<svg width="488" height="726" viewBox="0 0 488 726" fill="none" xmlns="http://www.w3.org/2000/svg">
<path d="M190.434 83.2614L191.733 84.9329C191.633 84.7457 191.542 84.5602 191.443 84.3726C191.005 83.7531 190.566 83.1326 190.118 82.5103C190.225 82.7608 190.327 83.0107 190.434 83.2614ZM197.296 93.8232C197.65 94.2547 198.012 94.6897 198.362 95.1197L198.259 94.9437L197.049 93.3174L197.296 93.8232ZM192.356 87.8096C193.144 88.7591 193.9 89.697 194.685 90.645C194.438 90.1546 194.172 89.66 193.922 89.1683C193.214 88.2409 192.473 87.3021 191.746 86.3684C191.947 86.8482 192.158 87.3304 192.356 87.8096ZM204.733 104.577C205.038 104.937 205.319 105.289 205.622 105.648L205.616 105.639C205.295 105.226 204.959 104.808 204.633 104.393L204.733 104.577ZM199.628 98.6299C200.36 99.4788 201.102 100.332 201.825 101.178C201.61 100.792 201.403 100.408 201.186 100.022C200.42 99.0611 199.694 98.1144 198.916 97.1491C199.151 97.6419 199.397 98.1374 199.628 98.6299ZM194.148 92.3072C195.201 93.5018 196.213 94.6813 197.247 95.8696C196.952 95.2566 196.653 94.6436 196.352 94.0292C195.384 92.8427 194.397 91.6495 193.42 90.4599C193.665 91.0763 193.906 91.6916 194.148 92.3072ZM108.027 569.516L108.3 569.1C108.331 568.784 108.365 568.468 108.398 568.152L108.186 568.538C108.131 568.863 108.081 569.19 108.027 569.516ZM212.877 115.823L213.199 116.197C213.062 116.027 212.934 115.861 212.798 115.691L212.877 115.823ZM207.37 109.51C208.074 110.298 208.756 111.077 209.442 111.859C209.258 111.553 209.08 111.248 208.895 110.94C208.21 110.11 207.508 109.273 206.823 108.442C207.011 108.8 207.185 109.153 207.37 109.51ZM201.737 103.245C202.763 104.386 203.796 105.529 204.813 106.666C204.478 106.04 204.127 105.409 203.788 104.781C202.842 103.661 201.868 102.53 200.894 101.399C201.176 102.015 201.459 102.631 201.737 103.245ZM195.88 96.8197C197.145 98.1843 198.392 99.5415 199.621 100.891C199.303 100.204 199.003 99.5204 198.681 98.8316C197.471 97.4351 196.284 96.0457 195.072 94.6473C195.35 95.3728 195.608 96.0955 195.88 96.8197ZM107.447 573.128C107.63 572.886 107.821 572.646 108.007 572.405L108.128 571.011C107.976 571.245 107.82 571.479 107.67 571.714C107.595 572.185 107.519 572.656 107.447 573.128ZM105.845 575.258L106.198 574.784L106.336 573.834L106.075 574.249C105.998 574.585 105.918 574.921 105.845 575.258ZM104.383 577.23L104.43 577.163L104.494 576.865L104.383 577.23ZM215.713 120.767C216.373 121.505 217.045 122.248 217.712 122.988L217.005 121.89C216.394 121.171 215.748 120.439 215.12 119.713C215.32 120.066 215.514 120.416 215.713 120.767ZM209.871 114.385C210.88 115.463 211.896 116.543 212.868 117.606C212.568 117.085 212.239 116.556 211.934 116.035C210.935 114.886 209.953 113.743 208.953 112.593C209.255 113.19 209.572 113.79 209.871 114.385ZM203.769 107.844L207.533 111.878C207.162 111.157 206.801 110.44 206.425 109.718C205.273 108.418 204.076 107.101 202.891 105.788C203.194 106.476 203.472 107.158 203.769 107.844ZM197.521 101.287C198.983 102.796 200.452 104.307 201.855 105.793C201.514 105.016 201.143 104.233 200.792 103.454C199.396 101.914 198.038 100.389 196.622 98.8409C196.92 99.6559 197.231 100.474 197.521 101.287ZM106.939 576.639C107.206 576.337 107.469 576.033 107.739 575.731C107.781 575.164 107.82 574.597 107.865 574.031C107.635 574.333 107.413 574.639 107.183 574.942C107.103 575.508 107.017 576.073 106.939 576.639ZM105.121 578.707C105.325 578.47 105.535 578.234 105.741 577.998C105.803 577.536 105.867 577.076 105.933 576.616L105.409 577.331C105.313 577.79 105.215 578.248 105.121 578.707ZM103.39 580.744L103.789 580.274C103.852 579.955 103.913 579.636 103.979 579.318C103.877 579.46 103.774 579.602 103.672 579.744C103.58 580.078 103.483 580.41 103.39 580.744ZM101.797 582.656L101.882 582.553L101.981 582.175L101.962 582.201L101.797 582.656ZM224.535 132.21C225.149 132.87 225.777 133.536 226.379 134.192C226.235 133.978 226.082 133.761 225.935 133.547C225.27 132.782 224.623 132.025 223.954 131.259L224.535 132.21ZM218.513 125.743C219.495 126.791 220.454 127.831 221.432 128.878C221.114 128.363 220.816 127.855 220.494 127.339C219.553 126.279 218.575 125.205 217.612 124.137C217.907 124.671 218.222 125.211 218.513 125.743ZM212.197 119.132C213.437 120.412 214.686 121.696 215.883 122.957C215.517 122.298 215.142 121.637 214.768 120.976C213.564 119.649 212.398 118.337 211.171 117.001C211.521 117.714 211.854 118.421 212.197 119.132ZM205.722 112.414C207.2 113.936 208.64 115.442 210.103 116.959C209.715 116.172 209.323 115.384 208.926 114.595C207.549 113.105 206.14 111.603 204.735 110.102C205.059 110.872 205.405 111.646 205.722 112.414ZM199.008 105.641C200.648 107.279 202.305 108.924 203.882 110.536C203.534 109.709 203.178 108.88 202.821 108.051C201.284 106.42 199.734 104.784 198.157 103.137C198.447 103.973 198.727 104.807 199.008 105.641ZM106.487 580.082C106.823 579.753 107.164 579.425 107.503 579.096C107.545 578.442 107.593 577.79 107.639 577.137C107.335 577.481 107.03 577.826 106.729 578.171C106.646 578.808 106.567 579.445 106.487 580.082ZM104.454 582.108C104.747 581.814 105.039 581.519 105.333 581.226C105.403 580.663 105.476 580.101 105.548 579.539C105.285 579.844 105.028 580.15 104.768 580.455C104.661 581.006 104.559 581.557 104.454 582.108ZM102.501 584.094C102.736 583.852 102.966 583.607 103.203 583.365C103.287 582.909 103.377 582.453 103.463 581.997C103.257 582.244 103.058 582.494 102.853 582.742L102.501 584.094ZM100.649 586.022C100.798 585.864 100.953 585.708 101.102 585.551C101.184 585.224 101.272 584.898 101.356 584.572L100.985 585.029C100.874 585.36 100.759 585.69 100.649 586.022ZM98.9232 587.878L99.0598 587.731C99.1044 587.591 99.1465 587.451 99.1919 587.312L99.1316 587.389C99.0637 587.553 98.9911 587.715 98.9232 587.878ZM233.737 143.726C234.359 144.383 234.924 145.015 235.535 145.667C235.438 145.53 235.35 145.395 235.252 145.258C234.632 144.56 233.989 143.853 233.364 143.154C233.486 143.344 233.616 143.537 233.737 143.726ZM227.571 137.297C228.501 138.265 229.442 139.239 230.357 140.201C230.041 139.717 229.733 139.236 229.413 138.751C228.494 137.739 227.601 136.738 226.661 135.717C226.976 136.247 227.26 136.768 227.571 137.297ZM221.032 130.493C222.322 131.815 223.543 133.109 224.813 134.423C224.417 133.759 223.993 133.085 223.59 132.419C222.413 131.146 221.212 129.863 220.021 128.585C220.363 129.222 220.699 129.857 221.032 130.493ZM214.459 123.868C215.901 125.316 217.352 126.768 218.757 128.2C218.353 127.446 217.975 126.701 217.561 125.944C216.176 124.475 214.769 122.995 213.341 121.508C213.713 122.294 214.096 123.083 214.459 123.868ZM207.504 116.878C209.185 118.548 210.803 120.192 212.456 121.849C212.062 121.014 211.652 120.173 211.246 119.335C209.688 117.712 208.115 116.082 206.538 114.45C206.865 115.261 207.185 116.069 207.504 116.878ZM200.429 109.969C202.238 111.728 204.056 113.491 205.813 115.227C205.464 114.357 205.132 113.491 204.773 112.619C203.094 110.898 201.352 109.15 199.608 107.403C199.89 108.259 200.156 109.114 200.429 109.969ZM106.075 583.512C106.49 583.157 106.898 582.799 107.317 582.445C107.354 581.735 107.388 581.025 107.429 580.315C107.056 580.682 106.687 581.049 106.317 581.416C106.232 582.114 106.153 582.813 106.075 583.512ZM103.846 585.44C104.215 585.115 104.591 584.791 104.964 584.467C105.033 583.835 105.096 583.202 105.168 582.57C104.84 582.901 104.504 583.231 104.179 583.563C104.062 584.188 103.954 584.814 103.846 585.44ZM101.685 587.363C102.005 587.074 102.33 586.789 102.653 586.501C102.746 585.954 102.836 585.406 102.932 584.859C102.644 585.159 102.353 585.457 102.068 585.757C101.935 586.291 101.814 586.828 101.685 587.363ZM99.6029 589.267C99.8627 589.027 100.121 588.787 100.384 588.547L100.703 587.205C100.475 587.45 100.248 587.697 100.02 587.943C99.8789 588.384 99.7405 588.826 99.6029 589.267ZM97.6218 591.117C97.8006 590.947 97.9738 590.776 98.1538 590.607C98.2523 590.284 98.3567 589.964 98.4582 589.642C98.3066 589.809 98.1602 589.978 98.0111 590.146C97.8816 590.469 97.7488 590.792 97.6218 591.117ZM95.7949 592.869L95.9757 592.695C96.0326 592.545 96.0865 592.395 96.1443 592.246L96.036 592.369L95.7949 592.869ZM243.504 155.683C243.996 156.201 244.495 156.722 244.99 157.242C244.846 157.045 244.707 156.85 244.562 156.652C244.083 156.125 243.585 155.589 243.094 155.056C243.236 155.267 243.364 155.473 243.504 155.683ZM236.975 148.901C237.895 149.835 238.802 150.763 239.694 151.685C239.425 151.294 239.151 150.901 238.882 150.509C237.974 149.528 237.055 148.541 236.149 147.561C236.43 148.009 236.698 148.454 236.975 148.901ZM230.427 142.263C231.653 143.506 232.89 144.753 234.105 145.991C233.676 145.311 233.236 144.627 232.799 143.945C231.662 142.739 230.471 141.509 229.289 140.283C229.667 140.942 230.056 141.605 230.427 142.263ZM223.569 135.375C225.025 136.817 226.448 138.243 227.87 139.67C227.455 138.95 227.051 138.234 226.629 137.512L222.443 133.151C222.827 133.895 223.193 134.633 223.569 135.375ZM216.522 128.457C218.182 130.08 219.84 131.704 221.47 133.314C221.023 132.448 220.543 131.572 220.085 130.702C218.577 129.155 216.989 127.572 215.418 125.999C215.79 126.819 216.16 127.639 216.522 128.457ZM209.241 121.375C211.071 123.135 212.865 124.879 214.652 126.621C214.268 125.771 213.902 124.926 213.507 124.074C211.759 122.313 210.03 120.56 208.264 118.79C208.598 119.653 208.917 120.513 209.241 121.375ZM201.774 114.262C203.749 116.135 205.719 118.007 207.652 119.862C207.3 118.94 206.916 118.01 206.551 117.086C204.739 115.284 202.829 113.441 200.942 111.608C201.219 112.493 201.509 113.379 201.774 114.262ZM110.724 583.243C135.515 565.489 165.901 549.512 196.873 533.235C310.504 473.516 431.885 409.676 311.732 238.419M105.707 586.911C106.184 586.552 106.672 586.197 107.154 585.841C107.186 585.077 107.219 584.312 107.258 583.549C106.82 583.923 106.383 584.299 105.949 584.674C105.866 585.419 105.781 586.164 105.707 586.911ZM103.281 588.762C103.726 588.419 104.173 588.078 104.623 587.737C104.689 587.037 104.762 586.338 104.837 585.64C104.431 585.996 104.032 586.356 103.63 586.714C103.511 587.396 103.39 588.078 103.281 588.762ZM100.925 590.598C101.33 590.278 101.729 589.957 102.138 589.638C102.235 589.017 102.334 588.395 102.437 587.774C102.071 588.104 101.712 588.436 101.35 588.766C101.206 589.376 101.063 589.987 100.925 590.598ZM98.6442 592.415C98.9936 592.132 99.3456 591.85 99.6976 591.569C99.8143 591.037 99.9217 590.503 100.044 589.972C99.7324 590.26 99.4157 590.546 99.1091 590.836C98.9495 591.361 98.7991 591.889 98.6442 592.415ZM96.4402 594.224C96.7234 593.988 97.013 593.755 97.2983 593.52L97.6813 592.205C97.4295 592.447 97.1743 592.688 96.9247 592.93L96.4402 594.224ZM94.3322 596.006L94.9283 595.497C95.0438 595.177 95.1673 594.859 95.2866 594.54L94.7793 595.045C94.6315 595.366 94.4774 595.685 94.3322 596.006ZM92.4199 597.653L92.6437 597.454L92.836 597.015L92.6712 597.187C92.585 597.341 92.5048 597.498 92.4199 597.653ZM253.441 167.534C253.875 167.978 254.319 168.427 254.747 168.868L254.659 168.753C254.152 168.204 253.658 167.661 253.15 167.112L253.441 167.534ZM246.856 160.803C247.791 161.76 248.725 162.716 249.667 163.676C249.346 163.224 248.998 162.762 248.674 162.309C247.809 161.39 246.907 160.455 246.022 159.528C246.301 159.953 246.581 160.379 246.856 160.803ZM240.199 154.128C241.347 155.26 242.509 156.397 243.619 157.511C243.262 156.973 242.928 156.443 242.566 155.903C241.356 154.64 240.184 153.392 238.962 152.124C239.366 152.789 239.801 153.465 240.199 154.128ZM233.121 147.129L237.441 151.402C236.977 150.642 236.504 149.878 236.031 149.116C234.706 147.756 233.331 146.374 231.969 144.998C232.364 145.712 232.732 146.417 233.121 147.129ZM225.945 140.152C227.594 141.734 229.243 143.315 230.84 144.873C230.401 144.08 229.939 143.28 229.489 142.484C227.875 140.855 226.318 139.25 224.68 137.61C225.102 138.458 225.532 139.308 225.945 140.152ZM218.508 133.022C220.324 134.76 222.13 136.491 223.93 138.22C223.494 137.343 223.067 136.467 222.62 135.586C220.932 133.909 219.182 132.205 217.443 130.505C217.81 131.347 218.151 132.182 218.508 133.022ZM210.876 125.816C212.864 127.674 214.84 129.525 216.771 131.357C216.385 130.464 215.971 129.565 215.574 128.669C213.673 126.811 211.808 124.969 209.874 123.095C210.208 124.002 210.553 124.911 210.876 125.816ZM202.987 118.469C205.109 120.438 207.213 122.398 209.306 124.355C208.972 123.432 208.633 122.509 208.286 121.584C206.311 119.679 204.262 117.742 202.224 115.809C202.487 116.697 202.735 117.583 202.987 118.469ZM105.401 590.308C105.945 589.95 106.487 589.591 107.036 589.234C107.059 588.43 107.089 587.626 107.12 586.823C106.615 587.201 106.11 587.581 105.61 587.961C105.539 588.743 105.468 589.526 105.401 590.308ZM102.791 592.046C103.303 591.701 103.814 591.355 104.331 591.011C104.393 590.268 104.461 589.527 104.529 588.786C104.058 589.147 103.581 589.506 103.115 589.868C103.006 590.594 102.895 591.319 102.791 592.046ZM100.236 593.784C100.708 593.458 101.189 593.135 101.665 592.81C101.761 592.13 101.866 591.453 101.969 590.774C101.534 591.118 101.095 591.461 100.665 591.806C100.52 592.465 100.372 593.123 100.236 593.784ZM97.7475 595.535C98.1767 595.23 98.6107 594.926 99.0454 594.622C99.1677 594.013 99.2998 593.405 99.4318 592.797C99.0353 593.119 98.6437 593.443 98.2506 593.765C98.0799 594.355 97.9097 594.944 97.7475 595.535ZM95.3414 597.272C95.7223 596.994 96.0984 596.715 96.4831 596.437C96.6245 595.915 96.7586 595.391 96.9051 594.87C96.5557 595.162 96.2161 595.458 95.8696 595.751C95.6879 596.257 95.5193 596.766 95.3414 597.272ZM93.0198 598.987C93.3327 598.753 93.6427 598.518 93.9569 598.284C94.1034 597.857 94.2549 597.43 94.4022 597.003C94.1267 597.241 93.8486 597.478 93.5752 597.717C93.3905 598.141 93.202 598.563 93.0198 598.987ZM90.8129 600.665C91.0298 600.498 91.2502 600.333 91.4684 600.167C91.5987 599.856 91.7304 599.547 91.865 599.237C91.676 599.405 91.4854 599.571 91.2998 599.739C91.136 600.048 90.9738 600.356 90.8129 600.665ZM88.7864 602.258L89.0526 602.047L89.2802 601.594L89.0797 601.782L88.7864 602.258ZM263.63 179.39L263.718 179.48L263.617 179.373L263.63 179.39ZM257.179 172.95C258.01 173.78 258.856 174.617 259.679 175.444C259.423 175.097 259.187 174.758 258.929 174.41C258.008 173.445 257.139 172.504 256.201 171.532C256.521 172.002 256.862 172.481 257.179 172.95ZM250.155 165.937C251.348 167.116 252.482 168.269 253.669 169.446C253.279 168.88 252.893 168.315 252.497 167.747C251.404 166.622 250.282 165.484 249.176 164.354C249.516 164.886 249.82 165.407 250.155 165.937ZM243.064 159.059C244.499 160.441 245.943 161.828 247.34 163.192C246.879 162.476 246.389 161.747 245.922 161.028C244.541 159.631 243.183 158.243 241.772 156.832C242.21 157.577 242.634 158.317 243.064 159.059ZM235.744 151.98C237.384 153.558 238.987 155.12 240.624 156.697C240.159 155.91 239.73 155.136 239.255 154.345C237.677 152.773 236.064 151.186 234.457 149.601C234.882 150.392 235.33 151.192 235.744 151.98ZM228.172 144.834C229.978 146.522 231.799 148.217 233.546 149.877C233.095 149.035 232.637 148.192 232.177 147.346C230.456 145.659 228.743 143.974 226.983 142.269C227.394 143.129 227.771 143.978 228.172 144.834ZM220.395 137.537C222.381 139.394 224.336 141.237 226.313 143.09C225.881 142.184 225.439 141.275 224.995 140.365C223.12 138.554 221.206 136.727 219.292 134.897C219.658 135.777 220.04 136.661 220.395 137.537ZM212.374 130.165C214.496 132.095 216.634 134.032 218.683 135.929C218.31 135.031 217.938 134.133 217.555 133.232C215.539 131.313 213.518 129.393 211.456 127.453C211.773 128.36 212.069 129.261 212.374 130.165ZM204.142 122.653C206.407 124.713 208.634 126.754 210.887 128.807C210.567 127.88 210.254 126.955 209.923 126.026C207.784 124.02 205.604 121.995 203.417 119.969C203.666 120.864 203.903 121.759 204.142 122.653ZM105.132 593.699C105.738 593.348 106.351 593.001 106.963 592.652C106.978 591.817 106.986 590.981 107.006 590.147C106.441 590.516 105.875 590.885 105.316 591.256C105.249 592.069 105.191 592.884 105.132 593.699ZM102.341 595.329C102.916 594.988 103.502 594.651 104.082 594.312C104.138 593.531 104.186 592.749 104.246 591.97C103.706 592.332 103.174 592.697 102.638 593.061C102.533 593.816 102.438 594.573 102.341 595.329ZM99.6046 596.977C100.15 596.645 100.695 596.314 101.246 595.984C101.338 595.261 101.429 594.538 101.526 593.817C101.016 594.168 100.516 594.522 100.011 594.875C99.8725 595.575 99.7375 596.276 99.6046 596.977ZM96.9217 598.631C97.4324 598.312 97.9377 597.991 98.4531 597.673C98.5767 597.015 98.707 596.36 98.8348 595.704C98.3682 596.035 97.8995 596.366 97.4376 596.699C97.2635 597.342 97.0872 597.986 96.9217 598.631ZM94.3186 600.275C94.7763 599.98 95.2408 599.688 95.7036 599.395C95.8526 598.804 96.0088 598.215 96.1664 597.626C95.7426 597.936 95.3143 598.244 94.8943 598.555C94.699 599.128 94.5071 599.701 94.3186 600.275ZM91.797 601.918C92.1995 601.652 92.6109 601.388 93.0156 601.123C93.1795 600.617 93.3357 600.108 93.5034 599.603C93.1332 599.882 92.7659 600.162 92.3991 600.442C92.1949 600.933 91.9966 601.426 91.797 601.918ZM89.3481 603.566C89.6856 603.336 90.0223 603.105 90.3641 602.876C90.5326 602.454 90.7088 602.033 90.8799 601.611C90.5747 601.85 90.2754 602.091 89.9722 602.331C89.7642 602.743 89.5515 603.153 89.3481 603.566ZM87.0528 605.147C87.2974 604.976 87.5347 604.803 87.7797 604.633C87.9232 604.332 88.0591 604.03 88.206 603.731C87.9894 603.905 87.7818 604.083 87.5674 604.258C87.3916 604.553 87.2265 604.851 87.0528 605.147ZM84.9257 606.655L85.2263 606.442C85.3146 606.285 85.4072 606.13 85.4967 605.973C85.422 606.037 85.3447 606.099 85.2692 606.162L84.9257 606.655ZM274.503 191.854L275.672 193.036L275.601 192.944C275.196 192.52 274.764 192.082 274.352 191.654L274.503 191.854ZM267.656 185.012C268.402 185.739 269.162 186.472 269.883 187.188L269.372 186.512C268.586 185.701 267.794 184.885 267.017 184.078C267.237 184.393 267.436 184.698 267.656 185.012ZM260.592 178.109C261.741 179.234 262.903 180.365 264.049 181.488C263.606 180.867 263.142 180.238 262.694 179.614C261.652 178.558 260.557 177.476 259.477 176.401C259.856 176.974 260.217 177.539 260.592 178.109ZM253.305 171.033C254.761 172.428 256.164 173.797 257.593 175.179C257.147 174.512 256.696 173.844 256.244 173.175C254.841 171.774 253.431 170.368 252.028 168.968C252.454 169.656 252.886 170.348 253.305 171.033ZM245.932 164.05C247.531 165.561 249.138 167.075 250.708 168.573C250.209 167.769 249.727 166.97 249.217 166.162C247.7 164.669 246.133 163.155 244.563 161.638C245.021 162.442 245.484 163.249 245.932 164.05ZM238.148 156.693C240.009 158.433 241.786 160.134 243.624 161.863C243.136 161.006 242.62 160.139 242.121 159.278C240.389 157.6 238.651 155.92 236.906 154.236C237.331 155.059 237.735 155.874 238.148 156.693ZM230.337 149.505C232.298 151.302 234.264 153.102 236.172 154.874C235.714 153.983 235.273 153.099 234.803 152.204C232.932 150.416 231.009 148.606 229.079 146.791C229.494 147.695 229.935 148.606 230.337 149.505ZM222.129 141.951C224.29 143.923 226.365 145.856 228.505 147.819C228.085 146.898 227.652 145.973 227.22 145.047C225.193 143.141 223.161 141.231 221.108 139.313C221.46 140.196 221.788 141.072 222.129 141.951ZM213.818 134.499C216.077 136.514 218.348 138.534 220.536 140.516C220.174 139.595 219.82 138.676 219.444 137.752C217.302 135.762 215.111 133.751 212.906 131.733C213.214 132.656 213.523 133.579 213.818 134.499ZM205.225 126.803C207.632 128.95 209.979 131.068 212.38 133.211C212.072 132.269 211.738 131.32 211.419 130.375C209.13 128.281 206.835 126.184 204.512 124.076C204.75 124.985 204.998 125.896 205.225 126.803ZM104.899 597.102C105.57 596.763 106.244 596.426 106.92 596.089C106.925 595.22 106.935 594.351 106.949 593.483C106.319 593.845 105.696 594.21 105.071 594.574C105.01 595.416 104.95 596.258 104.899 597.102ZM101.933 598.628C102.577 598.293 103.217 597.957 103.868 597.624C103.913 596.811 103.966 595.998 104.021 595.186C103.42 595.54 102.817 595.894 102.223 596.25C102.122 597.041 102.024 597.834 101.933 598.628ZM99.0216 600.161C99.6339 599.834 100.246 599.508 100.864 599.183C100.948 598.426 101.034 597.668 101.127 596.912C100.556 597.257 99.9799 597.6 99.4156 597.947C99.2789 598.683 99.1511 599.422 99.0216 600.161ZM96.1664 601.7C96.74 601.386 97.3255 601.075 97.9038 600.762C98.0231 600.063 98.1377 599.363 98.2633 598.665C97.725 598.999 97.1896 599.335 96.6572 599.671C96.4903 600.347 96.3281 601.023 96.1664 601.7ZM93.3569 603.27C93.8961 602.966 94.4417 602.663 94.9856 602.36C95.1363 601.716 95.296 601.074 95.4522 600.432C94.9474 600.755 94.4541 601.082 93.9548 601.408C93.7531 602.028 93.5488 602.647 93.3569 603.27ZM90.649 604.827C91.1394 604.541 91.6255 604.254 92.1218 603.97C92.2942 603.397 92.4725 602.826 92.6538 602.256C92.1948 602.559 91.7402 602.864 91.2859 603.17C91.068 603.72 90.86 604.274 90.649 604.827ZM88.0115 606.382C88.4458 606.122 88.8781 605.86 89.3162 605.601C89.5009 605.11 89.6856 604.618 89.8737 604.128C89.4822 604.395 89.0849 604.659 88.6981 604.928C88.4688 605.412 88.2361 605.896 88.0115 606.382ZM85.4721 607.921C85.8233 607.704 86.1837 607.492 86.5361 607.276C86.7216 606.867 86.9161 606.461 87.1084 606.053C86.7824 606.285 86.4524 606.515 86.1281 606.748C85.9069 607.138 85.6891 607.529 85.4721 607.921ZM83.0622 609.443L83.8422 608.949C84.0005 608.654 84.1597 608.359 84.3211 608.064L83.6328 608.574L83.0622 609.443ZM80.8158 610.895L81.1754 610.657L81.4573 610.213L81.1652 610.441L80.8158 610.895ZM278.383 197.175C279.141 197.91 279.892 198.643 280.631 199.369L280.042 198.616C279.302 197.861 278.532 197.093 277.78 196.333C277.986 196.615 278.179 196.893 278.383 197.175ZM271.267 190.281C272.435 191.415 273.617 192.557 274.786 193.69C274.399 193.165 273.975 192.623 273.583 192.095C272.41 190.917 271.279 189.759 270.101 188.579C270.491 189.147 270.881 189.715 271.267 190.281ZM263.99 183.314C265.345 184.594 266.702 185.873 268.018 187.134C267.574 186.494 267.157 185.865 266.707 185.222C265.382 183.913 264.006 182.581 262.644 181.254C263.086 181.938 263.557 182.633 263.99 183.314ZM256.333 176.08C257.947 177.602 259.551 179.119 261.157 180.638C260.66 179.87 260.155 179.099 259.649 178.328C258.089 176.81 256.569 175.311 255.004 173.79C255.466 174.561 255.881 175.314 256.333 176.08ZM248.546 168.847C250.367 170.521 252.201 172.201 253.966 173.85C253.452 172.992 252.892 172.117 252.366 171.255C250.68 169.638 248.925 167.99 247.184 166.348C247.644 167.183 248.097 168.016 248.546 168.847ZM240.545 161.463C242.531 163.28 244.444 165.064 246.403 166.869C245.925 165.999 245.472 165.138 244.983 164.263C243.053 162.439 241.154 160.629 239.215 158.801C239.656 159.688 240.115 160.58 240.545 161.463ZM232.284 154.006C234.415 155.922 236.551 157.841 238.63 159.732C238.167 158.795 237.677 157.849 237.202 156.908C235.231 155.07 233.171 153.192 231.13 151.322C231.524 152.22 231.9 153.112 232.284 154.006ZM223.837 146.423C226.113 148.45 228.341 150.454 230.573 152.461C230.174 151.546 229.797 150.638 229.386 149.719C227.181 147.692 225.003 145.677 222.783 143.643C223.134 144.569 223.498 145.5 223.837 146.423ZM215.129 138.729C217.536 140.848 219.934 142.961 222.292 145.057C221.931 144.095 221.546 143.127 221.172 142.162C218.932 140.127 216.596 138.048 214.276 135.977C214.565 136.896 214.853 137.813 215.129 138.729ZM206.207 130.926C208.736 133.123 211.249 135.312 213.717 137.481C213.432 136.556 213.153 135.633 212.857 134.706C210.419 132.526 208.014 130.36 205.559 128.172C205.785 129.092 205.993 130.009 206.207 130.926ZM104.729 600.508C105.46 600.183 106.189 599.858 106.926 599.536C106.919 598.647 106.92 597.759 106.921 596.872C106.232 597.216 105.541 597.559 104.86 597.907C104.814 598.773 104.769 599.639 104.729 600.508ZM101.579 601.921C102.282 601.601 102.991 601.283 103.701 600.965C103.737 600.123 103.782 599.283 103.827 598.442C103.163 598.784 102.501 599.128 101.843 599.472C101.751 600.288 101.66 601.104 101.579 601.921ZM98.4863 603.346C99.1575 603.032 99.8394 602.722 100.518 602.41C100.594 601.616 100.684 600.824 100.773 600.032C100.132 600.371 99.5023 600.714 98.868 601.055C98.7376 601.818 98.6073 602.581 98.4863 603.346ZM95.4586 604.791C96.101 604.481 96.7463 604.172 97.3964 603.864C97.5097 603.127 97.6282 602.391 97.7509 601.656C97.1399 601.989 96.537 602.324 95.9337 602.659C95.769 603.368 95.6153 604.08 95.4586 604.791ZM92.4802 606.25C93.0937 605.945 93.7008 605.638 94.3211 605.335C94.468 604.662 94.6086 603.987 94.7597 603.316C94.1925 603.635 93.6219 603.952 93.061 604.272C92.8644 604.931 92.67 605.59 92.4802 606.25ZM89.5723 607.712C90.1374 607.423 90.7076 607.135 91.2774 606.848C91.4536 606.228 91.6391 605.611 91.823 604.992C91.2931 605.299 90.7598 605.604 90.2372 605.914C90.0117 606.512 89.7875 607.111 89.5723 607.712ZM86.7552 609.173C87.2672 608.902 87.7903 608.636 88.3074 608.368C88.5019 607.817 88.6938 607.264 88.8959 606.715C88.4106 607.005 87.9304 607.297 87.4515 607.59C87.2146 608.116 86.9866 608.645 86.7552 609.173ZM83.9861 610.665C84.448 610.413 84.9108 610.162 85.3774 609.912C85.5855 609.428 85.8012 608.947 86.0126 608.466C85.5833 608.733 85.1647 609.004 84.7397 609.272C84.4871 609.736 84.2311 610.199 83.9861 610.665ZM81.366 612.117C81.7498 611.901 82.1252 611.682 82.5124 611.467C82.7106 611.081 82.9026 610.692 83.1055 610.307C82.7557 610.532 82.4113 610.759 82.0636 610.985C81.8262 611.361 81.5991 611.74 81.366 612.117ZM78.8483 613.549C79.1251 613.388 79.4096 613.229 79.6894 613.067C79.8626 612.78 80.0439 612.496 80.2184 612.209C79.9734 612.374 79.7212 612.535 79.4775 612.7C79.2695 612.984 79.0529 613.265 78.8483 613.549ZM76.5509 614.914L76.939 614.684L77.2379 614.253L76.9122 614.479C76.7912 614.623 76.6723 614.769 76.5509 614.914ZM289.469 209.542C290.215 210.259 290.976 210.982 291.703 211.69C291.466 211.394 291.213 211.089 290.976 210.793C290.255 210.065 289.497 209.321 288.757 208.585L289.469 209.542ZM282.296 202.643L285.586 205.806C285.22 205.322 284.881 204.85 284.511 204.363C283.372 203.232 282.246 202.107 281.101 200.973C281.493 201.527 281.909 202.091 282.296 202.643ZM274.853 195.589C276.181 196.833 277.523 198.083 278.815 199.311C278.346 198.653 277.879 197.998 277.403 197.338C276.137 196.101 274.83 194.844 273.536 193.593C273.984 194.262 274.413 194.923 274.853 195.589ZM267.069 188.28C268.714 189.814 270.308 191.324 271.938 192.851C271.404 192.058 270.836 191.25 270.293 190.452C268.744 188.96 267.23 187.484 265.654 185.98C266.136 186.751 266.595 187.512 267.069 188.28ZM259.237 181.076C261.025 182.713 262.82 184.353 264.568 185.971C264.049 185.144 263.552 184.325 263.023 183.494C261.284 181.842 259.514 180.175 257.746 178.51C258.242 179.365 258.753 180.225 259.237 181.076ZM251.094 173.633C253.071 175.425 254.998 177.193 256.942 178.969C256.421 178.07 255.905 177.172 255.372 176.268C253.514 174.528 251.63 172.775 249.726 171.013C250.191 171.89 250.64 172.76 251.094 173.633ZM242.74 166.127C244.882 168.045 247.017 169.961 249.122 171.862C248.63 170.928 248.091 169.976 247.584 169.037C245.546 167.153 243.503 165.267 241.443 163.373C241.884 164.293 242.313 165.21 242.74 166.127ZM234.203 158.533C236.464 160.529 238.706 162.516 240.916 164.489C240.468 163.544 240.045 162.607 239.584 161.658C237.449 159.709 235.233 157.722 233.031 155.743C233.424 156.674 233.822 157.606 234.203 158.533ZM225.38 150.765C227.796 152.884 230.179 154.987 232.565 157.091C232.166 156.132 231.734 155.163 231.32 154.2C229.007 152.116 226.731 150.049 224.379 147.948C224.72 148.889 225.052 149.828 225.38 150.765ZM216.368 142.952C218.891 145.125 221.421 147.3 223.874 149.44C223.538 148.499 223.218 147.562 222.871 146.617C220.48 144.488 218.029 142.331 215.577 140.174C215.853 141.102 216.103 142.026 216.368 142.952ZM207.127 134.985C209.793 137.269 212.382 139.517 215.017 141.785C214.741 140.834 214.454 139.88 214.166 138.926C211.636 136.702 209.092 134.472 206.511 132.225C206.722 133.145 206.927 134.066 207.127 134.985ZM104.604 603.92C105.39 603.616 106.184 603.315 106.978 603.013C106.961 602.102 106.937 601.189 106.926 600.279C106.177 600.609 105.434 600.94 104.691 601.272C104.656 602.154 104.631 603.037 104.604 603.92ZM101.284 605.225C102.046 604.921 102.815 604.621 103.585 604.321C103.611 603.456 103.63 602.591 103.664 601.729C102.936 602.057 102.219 602.388 101.499 602.718C101.421 603.553 101.354 604.389 101.284 605.225ZM98.012 606.551C98.752 606.247 99.4908 605.943 100.238 605.642C100.305 604.828 100.376 604.015 100.449 603.202C99.751 603.525 99.0543 603.849 98.3635 604.175C98.2434 604.966 98.1228 605.758 98.012 606.551ZM94.8026 607.887C95.51 607.587 96.2173 607.287 96.9336 606.992C97.038 606.225 97.156 605.461 97.2732 604.697C96.6045 605.016 95.9324 605.333 95.2713 605.654C95.1113 606.397 94.9525 607.14 94.8026 607.887ZM91.6607 609.229C92.3324 608.936 93.0147 608.647 93.6941 608.357C93.8354 607.643 93.9789 606.93 94.1305 606.218C93.4864 606.535 92.8458 606.853 92.2097 607.173C92.0187 607.856 91.8424 608.544 91.6607 609.229ZM88.5677 610.599C89.2054 610.311 89.8542 610.028 90.4991 609.743C90.6715 609.083 90.8451 608.423 91.0252 607.765C90.4193 608.073 89.8287 608.385 89.23 608.696C89.0071 609.329 88.78 609.962 88.5677 610.599ZM85.5642 611.975C86.1582 611.7 86.7497 611.424 87.3483 611.151C87.5474 610.548 87.7572 609.95 87.9656 609.351C87.4005 609.648 86.8427 609.947 86.2839 610.246C86.0372 610.821 85.802 611.398 85.5642 611.975ZM82.6206 613.365C83.1709 613.1 83.7161 612.834 84.2731 612.572C84.4867 612.043 84.6977 611.513 84.918 610.986C84.4153 611.259 83.9075 611.53 83.4099 611.806C83.1467 612.325 82.8779 612.843 82.6206 613.365ZM79.7887 614.739C80.2604 614.505 80.7432 614.274 81.2196 614.042C81.4446 613.577 81.6798 613.115 81.9138 612.652C81.4633 612.907 81.0115 613.16 80.5661 613.416C80.3012 613.855 80.046 614.298 79.7887 614.739ZM77.0434 616.13C77.4446 615.923 77.8535 615.719 78.2581 615.514C78.4751 615.136 78.6916 614.757 78.9111 614.38C78.5405 614.598 78.1719 614.818 77.8034 615.037C77.5508 615.402 77.2931 615.764 77.0434 616.13ZM74.4501 617.489C74.7443 617.332 75.0377 617.174 75.3341 617.019C75.5192 616.742 75.7026 616.464 75.8899 616.188C75.613 616.359 75.3417 616.532 75.0657 616.703C74.8551 616.963 74.6568 617.228 74.4501 617.489ZM72.058 618.774C72.2058 618.693 72.3476 618.61 72.4966 618.528C72.6066 618.385 72.7208 618.244 72.8312 618.101C72.7046 618.182 72.5832 618.265 72.4563 618.347C72.3242 618.489 72.1888 618.631 72.058 618.774ZM300.897 222.094C301.6 222.768 302.319 223.45 303.013 224.119C302.808 223.867 302.622 223.623 302.417 223.37C301.69 222.645 300.927 221.903 300.184 221.17C300.419 221.477 300.665 221.789 300.897 222.094ZM293.579 215.091C294.623 216.083 295.625 217.054 296.662 218.041C296.29 217.561 295.929 217.086 295.554 216.604C294.51 215.578 293.493 214.566 292.443 213.537C292.818 214.054 293.206 214.576 293.579 215.091ZM285.943 207.929C287.288 209.184 288.643 210.445 289.966 211.69C289.476 211.024 288.966 210.348 288.468 209.679C287.209 208.459 285.912 207.222 284.633 205.991C285.081 206.642 285.501 207.281 285.943 207.929ZM278.124 200.649C279.766 202.163 281.361 203.655 282.976 205.155C282.437 204.378 281.868 203.587 281.318 202.806C279.765 201.322 278.219 199.843 276.634 198.345C277.135 199.114 277.634 199.883 278.124 200.649ZM270.241 193.439C271.988 195.034 273.739 196.632 275.467 198.218C274.929 197.393 274.419 196.58 273.87 195.751C272.141 194.122 270.394 192.485 268.648 190.849C269.17 191.709 269.731 192.583 270.241 193.439ZM261.937 185.921C263.903 187.684 265.854 189.441 267.774 191.182C267.225 190.276 266.657 189.363 266.095 188.452C264.275 186.762 262.402 185.047 260.531 183.332C261.019 184.202 261.462 185.055 261.937 185.921ZM253.496 178.36C255.633 180.267 257.743 182.162 259.859 184.06C259.341 183.131 258.806 182.195 258.272 181.261C256.206 179.365 254.179 177.489 252.083 175.581C252.559 176.509 253.034 177.437 253.496 178.36ZM244.863 170.75C247.109 172.716 249.367 174.688 251.553 176.625C251.078 175.688 250.613 174.756 250.125 173.815C247.986 171.879 245.791 169.916 243.601 167.955C244.028 168.889 244.448 169.82 244.863 170.75ZM235.951 162.941C238.39 165.062 240.759 167.15 243.158 169.253C242.719 168.282 242.233 167.295 241.778 166.318C239.479 164.263 237.181 162.208 234.837 160.131C235.215 161.07 235.586 162.006 235.951 162.941ZM226.859 155.105C229.382 157.272 231.896 159.434 234.366 161.575C233.989 160.624 233.626 159.677 233.234 158.721C230.817 156.585 228.379 154.439 225.918 152.283C226.243 153.226 226.548 154.165 226.859 155.105ZM217.547 147.141C220.204 149.399 222.826 151.64 225.429 153.872C225.102 152.904 224.753 151.93 224.413 150.958C221.898 148.761 219.33 146.538 216.75 144.31C217.013 145.254 217.295 146.201 217.547 147.141ZM207.976 139.04C210.748 141.375 213.476 143.69 216.203 146.004C215.943 145.053 215.67 144.098 215.398 143.144C212.728 140.838 210.095 138.552 207.387 136.229C207.587 137.166 207.788 138.104 207.976 139.04ZM104.517 607.354C105.363 607.07 106.211 606.787 107.064 606.505C107.035 605.574 107.013 604.644 106.992 603.714C106.186 604.024 105.381 604.334 104.582 604.646C104.555 605.547 104.532 606.45 104.517 607.354ZM101.031 608.549C101.856 608.263 102.675 607.974 103.507 607.691C103.521 606.808 103.54 605.926 103.564 605.046C102.781 605.353 101.994 605.659 101.22 605.971C101.152 606.829 101.089 607.688 101.031 608.549ZM97.5972 609.757C98.3941 609.472 99.1932 609.188 99.9994 608.906C100.055 608.069 100.11 607.232 100.174 606.397C99.4131 606.706 98.6523 607.013 97.9003 607.325C97.7916 608.133 97.6974 608.946 97.5972 609.757ZM94.2099 610.982C94.978 610.698 95.7601 610.419 96.5375 610.139C96.6317 609.348 96.7294 608.556 96.8313 607.766C96.0976 608.073 95.3736 608.383 94.6485 608.692C94.4977 609.454 94.3492 610.217 94.2099 610.982ZM90.8935 612.228C91.6293 611.949 92.3707 611.671 93.1141 611.393C93.247 610.647 93.3951 609.905 93.5403 609.163C92.8326 609.467 92.1333 609.776 91.434 610.084C91.2476 610.798 91.0697 611.512 90.8935 612.228ZM87.6379 613.492C88.3478 613.213 89.0513 612.932 89.7693 612.656C89.9336 611.969 90.0975 611.282 90.2724 610.598C89.6028 610.896 88.9341 611.193 88.273 611.494C88.0569 612.158 87.8459 612.825 87.6379 613.492ZM84.4459 614.769C85.1146 614.497 85.7825 614.225 86.4584 613.956C86.6541 613.32 86.8583 612.686 87.063 612.052C86.4338 612.342 85.8011 612.629 85.1791 612.922C84.9303 613.536 84.6833 614.152 84.4459 614.769ZM81.3401 616.048C81.9575 615.788 82.5871 615.533 83.2112 615.276C83.4307 614.697 83.6498 614.119 83.8778 613.543C83.2868 613.825 82.7009 614.109 82.1158 614.394C81.8526 614.943 81.5974 615.496 81.3401 616.048ZM78.2955 617.359C78.8631 617.111 79.4372 616.866 80.0108 616.621C80.2481 616.1 80.4969 615.582 80.741 615.063C80.1993 615.331 79.6699 615.605 79.1345 615.876C78.8508 616.369 78.5697 616.863 78.2955 617.359ZM75.3625 618.666C75.8711 618.437 76.3734 618.205 76.8867 617.977C77.1258 617.535 77.358 617.09 77.603 616.65C77.1317 616.894 76.666 617.139 76.1985 617.385C75.9166 617.811 75.6393 618.238 75.3625 618.666ZM72.5319 619.968C72.9543 619.77 73.3734 619.571 73.798 619.374C74.0289 619.008 74.2731 618.646 74.5104 618.282C74.1211 618.491 73.7245 618.696 73.3398 618.906C73.0681 619.259 72.7981 619.613 72.5319 619.968ZM69.8655 621.237C70.1716 621.087 70.4883 620.941 70.797 620.793C70.9906 620.53 71.1804 620.267 71.3761 620.005C71.0951 620.163 70.8097 620.319 70.5316 620.477C70.3083 620.731 70.0854 620.983 69.8655 621.237ZM67.3643 622.483L67.825 622.252C67.9345 622.122 68.0394 621.99 68.1502 621.86L67.7354 622.104C67.6085 622.229 67.4908 622.357 67.3643 622.483ZM312.625 234.79C313.204 235.345 313.796 235.905 314.375 236.46C314.182 236.225 313.996 235.994 313.8 235.759C313.2 235.167 312.577 234.562 311.97 233.966C312.183 234.238 312.414 234.519 312.625 234.79ZM304.967 227.52C305.994 228.482 306.998 229.432 308.006 230.385C307.638 229.922 307.266 229.456 306.895 228.992C305.882 228.004 304.918 227.041 303.89 226.046C304.26 226.542 304.601 227.025 304.967 227.52ZM297.3 220.372C298.673 221.654 300.058 222.942 301.429 224.222C300.929 223.558 300.382 222.872 299.874 222.205C298.574 220.956 297.249 219.697 295.942 218.444C296.4 219.089 296.848 219.73 297.3 220.372ZM289.492 213.174C291.04 214.586 292.594 215.999 294.102 217.391C293.582 216.665 293.103 215.955 292.575 215.225C291.048 213.78 289.487 212.317 287.92 210.852C288.439 211.624 288.982 212.406 289.492 213.174ZM281.382 205.775C283.153 207.384 284.89 208.976 286.646 210.578C286.087 209.748 285.529 208.919 284.958 208.084C283.251 206.489 281.563 204.904 279.839 203.301C280.362 204.129 280.87 204.951 281.382 205.775ZM273.055 198.308C275.02 200.059 276.993 201.815 278.912 203.544C278.342 202.641 277.726 201.719 277.144 200.811C275.312 199.122 273.427 197.408 271.55 195.698C272.065 196.573 272.554 197.437 273.055 198.308ZM264.551 190.731C266.676 192.61 268.748 194.463 270.837 196.326C270.305 195.417 269.812 194.524 269.267 193.61C267.203 191.731 265.148 189.856 263.044 187.958C263.543 188.882 264.064 189.813 264.551 190.731ZM255.794 183.054C258.05 185.026 260.299 186.994 262.515 188.947C262.007 188.001 261.491 187.051 260.968 186.1C258.823 184.171 256.654 182.231 254.474 180.286C254.931 181.214 255.351 182.13 255.794 183.054ZM246.828 175.266C249.241 177.347 251.635 179.419 253.993 181.475C253.52 180.503 253.017 179.52 252.527 178.543C250.251 176.521 247.927 174.476 245.592 172.426C246.01 173.374 246.425 174.322 246.828 175.266ZM237.636 167.352C240.165 169.52 242.656 171.67 245.153 173.823C244.735 172.861 244.328 171.903 243.896 170.936C241.455 168.793 239.048 166.666 236.573 164.507C236.939 165.458 237.284 166.404 237.636 167.352ZM228.245 159.384C230.89 161.615 233.55 163.854 236.124 166.051C235.759 165.081 235.363 164.103 234.983 163.129C232.473 160.95 229.894 158.737 227.319 156.527C227.629 157.479 227.949 158.435 228.245 159.384ZM218.587 151.236C221.368 153.568 224.083 155.869 226.824 158.182C226.517 157.221 226.207 156.258 225.888 155.294C223.232 153.015 220.583 150.737 217.879 148.435C218.124 149.37 218.353 150.302 218.587 151.236ZM208.74 143.044C211.618 145.429 214.481 147.807 217.294 150.16C217.053 149.218 216.829 148.279 216.578 147.333C213.822 144.991 211.039 142.637 208.228 140.268C208.411 141.195 208.568 142.119 208.74 143.044ZM104.482 610.803C105.387 610.539 106.29 610.276 107.202 610.015C107.159 609.069 107.123 608.125 107.091 607.18C106.226 607.466 105.362 607.751 104.509 608.041C104.496 608.961 104.484 609.881 104.482 610.803ZM100.822 611.884C101.701 611.62 102.587 611.358 103.474 611.097C103.475 610.192 103.487 609.29 103.501 608.387C102.658 608.676 101.822 608.966 100.986 609.258C100.927 610.132 100.867 611.007 100.822 611.884ZM97.2278 612.977C98.0774 612.713 98.9426 612.455 99.8007 612.195C99.8436 611.333 99.8979 610.474 99.9536 609.615C99.1295 609.905 98.3198 610.2 97.505 610.494C97.4065 611.32 97.3153 612.148 97.2278 612.977ZM93.6817 614.101C94.5122 613.835 95.3457 613.57 96.1838 613.307C96.2661 612.496 96.3498 611.684 96.4449 610.876C95.6497 611.165 94.8591 611.456 94.0711 611.748C93.936 612.531 93.8087 613.316 93.6817 614.101ZM90.1807 615.245C90.9899 614.976 91.7924 614.706 92.6101 614.441C92.732 613.678 92.8597 612.917 92.9875 612.156C92.2267 612.442 91.4595 612.726 90.7067 613.015C90.5267 613.757 90.3463 614.499 90.1807 615.245ZM86.7683 616.393C87.5356 616.13 88.3075 615.868 89.0832 615.609C89.2407 614.889 89.4083 614.173 89.5778 613.457C88.839 613.744 88.1045 614.033 87.3742 614.322C87.1653 615.01 86.9683 615.702 86.7683 616.393ZM83.4027 617.563C84.1351 617.302 84.8845 617.048 85.625 616.79C85.816 616.123 86.002 615.455 86.2003 614.79C85.4993 615.072 84.811 615.359 84.1194 615.644C83.8778 616.283 83.6328 616.92 83.4027 617.563ZM80.1225 618.758C80.8116 618.503 81.5061 618.25 82.2046 617.999C82.4236 617.38 82.6555 616.765 82.8856 616.15C82.2177 616.429 81.5567 616.713 80.8956 616.996C80.6298 617.58 80.3776 618.17 80.1225 618.758ZM76.8944 619.973C77.5512 619.721 78.2017 619.466 78.867 619.218C79.1035 618.665 79.3382 618.111 79.5824 617.561C78.9744 617.825 78.3634 618.088 77.761 618.355C77.4701 618.894 77.175 619.431 76.8944 619.973ZM73.7852 621.182C74.3754 620.948 74.9664 620.715 75.5625 620.483C75.8155 619.986 76.0762 619.491 76.3403 618.997C75.776 619.252 75.2063 619.504 74.6484 619.762C74.3533 620.232 74.0748 620.709 73.7852 621.182ZM70.741 622.409C71.2666 622.193 71.8058 621.981 72.3366 621.766C72.5926 621.337 72.8549 620.91 73.1161 620.482C72.6223 620.715 72.1298 620.949 71.6411 621.184C71.3405 621.592 71.0327 621.998 70.741 622.409ZM67.8449 623.637C68.2835 623.449 68.7243 623.262 69.1675 623.075C69.4104 622.726 69.6452 622.375 69.8927 622.028C69.4766 622.233 69.0698 622.441 68.658 622.647C68.3829 622.976 68.1145 623.307 67.8449 623.637ZM65.0563 624.858C65.39 624.709 65.7174 624.558 66.0536 624.41C66.2625 624.149 66.4803 623.892 66.6926 623.632C66.3772 623.795 66.0727 623.961 65.7615 624.124C65.5263 624.369 65.2877 624.612 65.0563 624.858ZM62.5657 625.978C62.7207 625.906 62.8821 625.837 63.0387 625.765L63.3903 625.38C63.254 625.454 63.1113 625.526 62.9755 625.6L62.5657 625.978ZM324.25 247.256L326.017 248.938L325.508 248.335C324.931 247.769 324.339 247.196 323.761 246.629C323.929 246.84 324.083 247.045 324.25 247.256ZM316.657 240.124C317.682 241.076 318.72 242.036 319.724 242.978C319.336 242.497 318.92 242.003 318.528 241.521C317.553 240.578 316.56 239.627 315.561 238.674C315.932 239.159 316.29 239.64 316.657 240.124ZM308.911 232.915C310.269 234.168 311.573 235.395 312.916 236.641C312.462 236.051 312.048 235.481 311.588 234.888C310.23 233.594 308.885 232.305 307.517 231.007C307.98 231.642 308.455 232.283 308.911 232.915ZM301.1 225.787C302.597 227.15 304.107 228.519 305.583 229.87C305.037 229.127 304.506 228.389 303.952 227.642C302.493 226.271 300.988 224.878 299.498 223.492C300.025 224.254 300.582 225.029 301.1 225.787ZM292.796 218.26C294.581 219.863 296.33 221.449 298.081 223.036C297.503 222.203 296.896 221.357 296.306 220.518C294.626 218.96 292.966 217.411 291.257 215.838C291.786 216.653 292.274 217.449 292.796 218.26ZM284.419 210.779C286.383 212.529 288.344 214.278 290.284 216.017C289.704 215.128 289.106 214.232 288.513 213.338C286.633 211.615 284.726 209.881 282.821 208.147C283.359 209.026 283.893 209.905 284.419 210.779ZM275.9 203.256C277.971 205.07 280.041 206.883 282.059 208.672C281.503 207.759 280.969 206.857 280.399 205.938C278.398 204.128 276.35 202.295 274.295 200.46C274.822 201.389 275.387 202.333 275.9 203.256ZM266.974 195.436C269.26 197.427 271.487 199.39 273.743 201.367C273.204 200.411 272.634 199.443 272.08 198.481C269.911 196.544 267.775 194.622 265.577 192.671C266.061 193.6 266.504 194.512 266.974 195.436ZM257.977 187.686C260.364 189.734 262.758 191.784 265.087 193.804C264.591 192.843 264.097 191.883 263.586 190.916C261.305 188.902 258.962 186.857 256.624 184.815C257.076 185.772 257.54 186.734 257.977 187.686ZM248.693 179.734C251.227 181.89 253.714 184.023 256.201 186.157C255.747 185.186 255.293 184.214 254.824 183.238C252.415 181.133 249.999 179.026 247.54 176.899C247.939 177.849 248.307 178.788 248.693 179.734ZM239.226 171.727C241.878 173.962 244.511 176.188 247.115 178.399C246.711 177.423 246.284 176.439 245.865 175.457C243.323 173.262 240.762 171.058 238.178 168.843C238.529 169.805 238.889 170.769 239.226 171.727ZM229.508 163.589C232.27 165.89 235.025 168.188 237.725 170.458C237.378 169.487 237.028 168.517 236.666 167.541C234.047 165.304 231.366 163.036 228.682 160.765C228.971 161.711 229.229 162.647 229.508 163.589ZM219.589 155.337C222.477 157.727 225.301 160.087 228.147 162.457C227.86 161.498 227.576 160.54 227.274 159.577C224.488 157.22 221.739 154.882 218.907 152.504C219.14 153.449 219.368 154.395 219.589 155.337ZM209.458 147.031C212.442 149.467 215.435 151.907 218.338 154.304C218.11 153.348 217.853 152.387 217.614 151.429C214.777 149.053 211.869 146.643 208.959 144.23C209.128 145.164 209.299 146.099 209.458 147.031ZM104.507 614.262C105.462 614.023 106.426 613.787 107.39 613.552C107.335 612.591 107.275 611.628 107.227 610.668C106.303 610.933 105.391 611.202 104.476 611.47C104.479 612.399 104.496 613.331 104.507 614.262ZM100.682 615.232C101.615 614.991 102.56 614.754 103.503 614.517C103.492 613.598 103.478 612.68 103.474 611.763C102.574 612.028 101.683 612.298 100.793 612.567C100.753 613.454 100.714 614.342 100.682 615.232ZM96.9068 616.229C97.8214 615.983 98.7389 615.739 99.6632 615.498C99.6929 614.623 99.732 613.75 99.7731 612.877C98.8977 613.144 98.0234 613.411 97.1577 613.681C97.069 614.529 96.982 615.378 96.9068 616.229ZM93.2054 617.237C94.0936 616.991 94.9784 616.744 95.8751 616.502C95.9468 615.67 96.0288 614.841 96.1124 614.012C95.2603 614.281 94.4048 614.548 93.5629 614.82C93.4359 615.624 93.3209 616.43 93.2054 617.237ZM89.5472 618.265C90.4095 618.018 91.2782 617.774 92.1507 617.53C92.2615 616.743 92.3681 615.956 92.4891 615.172C91.6629 615.442 90.8417 615.715 90.024 615.988C89.8614 616.746 89.7001 617.505 89.5472 618.265ZM85.9599 619.309C86.7862 619.064 87.6252 618.824 88.4616 618.581C88.6093 617.836 88.7681 617.094 88.9282 616.352C88.1253 616.623 87.3377 616.9 86.545 617.175C86.3442 617.884 86.148 618.596 85.9599 619.309ZM82.4356 620.384C83.235 620.137 84.0379 619.89 84.8467 619.647C85.0276 618.954 85.2084 618.261 85.4003 617.571C84.6348 617.841 83.8723 618.111 83.114 618.384C82.8826 619.049 82.658 619.716 82.4356 620.384ZM78.974 621.477C79.7403 621.23 80.4995 620.982 81.2752 620.739C81.4858 620.096 81.7074 619.456 81.9277 618.816C81.2026 619.08 80.4698 619.342 79.7535 619.609C79.4881 620.23 79.2274 620.852 78.974 621.477ZM75.5939 622.58C76.3144 622.339 77.0409 622.101 77.7682 621.864C78.0047 621.273 78.2412 620.681 78.4887 620.093C77.8013 620.353 77.1169 620.613 76.4388 620.876C76.1544 621.444 75.8712 622.011 75.5939 622.58ZM72.2954 623.699C72.9581 623.469 73.6362 623.244 74.3074 623.016C74.5673 622.473 74.8403 621.934 75.1111 621.394C74.4637 621.65 73.8277 621.91 73.187 622.169C72.8838 622.677 72.5887 623.188 72.2954 623.699ZM69.0724 624.849C69.6906 624.626 70.3109 624.403 70.9367 624.182C71.2051 623.705 71.4649 623.225 71.7421 622.751C71.1567 622.991 70.5856 623.237 70.0086 623.48C69.6953 623.937 69.379 624.391 69.0724 624.849ZM65.9649 625.999C66.5113 625.793 67.0497 625.582 67.6029 625.378C67.8721 624.966 68.1536 624.558 68.4338 624.149C67.9103 624.374 67.386 624.599 66.8676 624.827C66.5585 625.215 66.2664 625.609 65.9649 625.999ZM62.9581 627.15C63.42 626.969 63.8875 626.789 64.3545 626.609C64.6067 626.276 64.8619 625.944 65.1166 625.612C64.6929 625.803 64.262 625.991 63.8425 626.184C63.5491 626.507 63.2464 626.826 62.9581 627.15ZM60.1495 628.278C60.4823 628.142 60.8216 628.008 61.157 627.873C61.3617 627.637 61.5569 627.397 61.7658 627.161C61.455 627.309 61.1438 627.455 60.8369 627.603C60.6038 627.826 60.3792 628.053 60.1495 628.278ZM57.4802 629.397L58.0126 629.17C58.1327 629.048 58.2606 628.928 58.3833 628.806L57.8975 629.051C57.7608 629.167 57.6173 629.28 57.4802 629.397ZM336.083 259.791C336.746 260.412 337.369 261.013 338.023 261.628L337.684 261.234L335.662 259.265L336.083 259.791ZM328.591 252.823C329.613 253.776 330.652 254.737 331.673 255.689C331.313 255.251 330.97 254.82 330.606 254.381C329.59 253.406 328.537 252.413 327.504 251.43C327.865 251.893 328.234 252.361 328.591 252.823ZM320.872 245.698C322.106 246.823 323.334 247.944 324.539 249.054C324.084 248.475 323.65 247.907 323.19 247.326C321.91 246.115 320.662 244.92 319.36 243.698C319.852 244.359 320.386 245.04 320.872 245.698ZM312.749 238.302C314.278 239.69 315.799 241.077 317.319 242.463C316.763 241.721 316.194 240.974 315.628 240.228C314.197 238.893 312.743 237.546 311.305 236.207C311.806 236.914 312.255 237.598 312.749 238.302ZM304.475 230.872C306.253 232.455 308.045 234.044 309.776 235.604C309.175 234.761 308.515 233.891 307.903 233.043C306.254 231.524 304.556 229.982 302.861 228.44C303.409 229.255 303.938 230.062 304.475 230.872ZM296.025 223.336C297.98 225.067 299.871 226.765 301.798 228.482C301.221 227.625 300.69 226.788 300.101 225.927C298.175 224.174 296.284 222.439 294.332 220.673C294.893 221.559 295.477 222.456 296.025 223.336ZM287.379 215.761C289.458 217.578 291.539 219.396 293.579 221.193C292.995 220.27 292.409 219.346 291.812 218.416C289.837 216.642 287.814 214.843 285.796 213.047C286.334 213.956 286.855 214.858 287.379 215.761ZM278.437 207.983C280.721 209.956 282.977 211.914 285.213 213.863C284.645 212.9 284.021 211.913 283.439 210.943C281.291 209.036 279.132 207.123 276.939 205.192C277.452 206.128 277.939 207.053 278.437 207.983ZM269.371 200.181C271.746 202.22 274.104 204.249 276.449 206.273C275.931 205.32 275.452 204.382 274.92 203.424C272.597 201.385 270.261 199.338 267.906 197.283C268.39 198.247 268.902 199.222 269.371 200.181ZM260.005 192.221C262.519 194.345 265.044 196.475 267.494 198.566C267.008 197.587 266.505 196.602 266.003 195.617C263.64 193.563 261.202 191.474 258.775 189.389C259.205 190.341 259.589 191.275 260.005 192.221ZM250.461 184.159C253.126 186.395 255.72 188.598 258.34 190.814C257.903 189.835 257.46 188.854 257.007 187.869C254.445 185.667 251.907 183.477 249.301 181.254C249.688 182.222 250.089 183.194 250.461 184.159ZM240.687 176.023C243.444 178.31 246.202 180.598 248.897 182.856C248.511 181.879 248.122 180.901 247.723 179.92C245.104 177.692 242.428 175.437 239.75 173.18C240.081 174.133 240.371 175.074 240.687 176.023ZM230.731 167.787C233.602 170.15 236.446 172.499 239.259 174.834C238.931 173.863 238.598 172.89 238.255 171.916C235.499 169.595 232.709 167.258 229.894 164.909C230.17 165.867 230.467 166.832 230.731 167.787ZM220.502 159.405C223.49 161.844 226.448 164.269 229.383 166.683C229.112 165.717 228.818 164.746 228.532 163.777C225.662 161.384 222.783 158.986 219.866 156.569C220.081 157.515 220.298 158.461 220.502 159.405ZM210.085 150.96C213.165 153.444 216.252 155.934 219.255 158.381C219.044 157.43 218.836 156.48 218.613 155.527C215.681 153.104 212.655 150.635 209.641 148.172C209.793 149.102 209.942 150.032 210.085 150.96ZM219.525 159.591C216.487 157.112 213.374 154.597 210.265 152.083C223.14 238.118 191.792 316.788 160.482 395.367C141.469 443.084 122.474 490.767 113.41 540.044C124.689 497.687 144.059 456.792 163.546 415.66C201.558 335.422 239.987 254.273 219.525 159.591ZM229.751 167.969C226.794 165.534 223.791 163.078 220.775 160.614C240.737 254.92 202.407 335.817 164.511 415.812C143.964 459.183 123.552 502.289 112.626 547.121C125.551 508.181 146.375 470.823 167.405 433.11C212.276 352.647 258.06 270.558 229.751 167.969ZM311.732 238.419C309.891 236.754 308.034 235.08 306.15 233.394C411.834 395.191 299.846 462.179 194.616 525.077C164.275 543.212 134.508 561.01 110.706 580.652M104.573 617.743C105.582 617.529 106.598 617.318 107.617 617.108C107.547 616.132 107.486 615.158 107.427 614.183C106.452 614.423 105.479 614.664 104.514 614.908C104.528 615.851 104.548 616.797 104.573 617.743ZM100.592 618.607C101.584 618.389 102.573 618.17 103.574 617.955C103.548 617.023 103.526 616.092 103.511 615.162C102.557 615.404 101.599 615.644 100.655 615.89C100.626 616.794 100.61 617.701 100.592 618.607ZM96.6576 619.489C97.6295 619.268 98.5996 619.046 99.5812 618.829C99.5969 617.939 99.6092 617.048 99.6351 616.16C98.7053 616.405 97.7755 616.649 96.8563 616.896C96.7858 617.759 96.7179 618.623 96.6576 619.489ZM92.7833 620.388C93.725 620.165 94.6765 619.945 95.6297 619.725C95.6879 618.873 95.7558 618.023 95.8241 617.173C94.9122 617.421 94.0125 617.674 93.1094 617.926C92.9947 618.745 92.884 619.565 92.7833 620.388ZM88.9736 621.307C89.8881 621.081 90.8154 620.861 91.7418 620.639C91.8391 619.831 91.944 619.024 92.0548 618.218C91.1632 618.47 90.28 618.725 89.3973 618.98C89.2483 619.753 89.1133 620.531 88.9736 621.307ZM85.2059 622.258C86.1039 622.028 87.0002 621.798 87.9079 621.572C88.0425 620.812 88.1745 620.051 88.3189 619.294C87.4668 619.543 86.6134 619.792 85.7714 620.046C85.5778 620.781 85.3846 621.518 85.2059 622.258ZM81.5337 623.219C82.3944 622.989 83.2499 622.759 84.119 622.534C84.2901 621.816 84.4735 621.101 84.6573 620.387C83.8286 620.638 82.9964 620.888 82.1774 621.144C81.9549 621.833 81.7452 622.526 81.5337 623.219ZM77.8951 624.206C78.7256 623.975 79.5645 623.748 80.4048 623.521C80.6077 622.85 80.806 622.179 81.0191 621.512C80.2273 621.762 79.4423 622.016 78.6602 622.27C78.4012 622.914 78.1388 623.557 77.8951 624.206ZM74.3665 625.204C75.146 624.978 75.9416 624.758 76.7296 624.536C76.9627 623.907 77.2077 623.281 77.4557 622.657C76.6868 622.91 75.9344 623.171 75.1748 623.428C74.8959 624.017 74.6352 624.612 74.3665 625.204ZM70.876 626.243C71.6275 626.016 72.3782 625.789 73.1377 625.566C73.3929 624.994 73.651 624.424 73.9143 623.854C73.2018 624.1 72.4945 624.347 71.7901 624.595C71.4823 625.143 71.1732 625.69 70.876 626.243ZM67.5002 627.287C68.1991 627.066 68.8911 626.843 69.598 626.626C69.871 626.109 70.1474 625.594 70.4306 625.081C69.7696 625.319 69.1004 625.553 68.4466 625.794C68.1252 626.289 67.8127 626.788 67.5002 627.287ZM64.1991 628.347C64.8322 628.138 65.4733 627.932 66.1135 627.727C66.3976 627.264 66.6956 626.805 66.989 626.345C66.3818 626.574 65.7726 626.802 65.1718 627.033C64.8419 627.469 64.5192 627.907 64.1991 628.347ZM61.008 629.421C61.5697 629.227 62.1446 629.038 62.7122 628.847C62.9933 628.453 63.265 628.056 63.5533 627.664C63.0188 627.875 62.4936 628.088 61.9654 628.301C61.6457 628.674 61.3218 629.046 61.008 629.421ZM57.9438 630.506C58.4113 630.338 58.8792 630.169 59.3521 630.002C59.6213 629.672 59.8999 629.346 60.1784 629.02C59.7101 629.213 59.2583 629.413 58.7955 629.608C58.5038 629.905 58.23 630.208 57.9438 630.506ZM55.0142 631.582C55.3802 631.444 55.7369 631.302 56.1058 631.166C56.3228 630.934 56.5448 630.704 56.7622 630.474C56.4315 630.618 56.1028 630.764 55.7725 630.909C55.5229 631.135 55.2617 631.356 55.0142 631.582ZM52.3819 632.585C52.5504 632.519 52.7253 632.456 52.8939 632.39C53.0136 632.278 53.1287 632.165 53.2484 632.053C53.0956 632.123 52.9368 632.192 52.7844 632.263L52.3819 632.585ZM199.187 139.631C199.277 140.549 199.375 141.468 199.456 142.384C202.665 144.956 205.775 147.479 208.92 150.02C208.774 149.086 208.632 148.152 208.473 147.216C205.387 144.692 202.331 142.184 199.187 139.631ZM198.794 135.826C198.895 136.739 198.99 137.652 199.082 138.565C202.191 141.086 205.224 143.571 208.281 146.067C208.118 145.124 207.933 144.178 207.76 143.233C204.788 140.773 201.818 138.312 198.794 135.826ZM198.337 131.986C198.452 132.9 198.557 133.813 198.661 134.726C201.649 137.179 204.607 139.619 207.54 142.047C207.363 141.108 207.186 140.169 206.998 139.228C204.149 136.832 201.243 134.409 198.337 131.986ZM197.816 128.11C197.946 129.03 198.083 129.952 198.203 130.871C201.058 133.25 203.942 135.642 206.74 137.994C206.548 137.054 206.354 136.114 206.15 135.173C203.425 132.843 200.601 130.467 197.816 128.11ZM197.25 124.207C197.391 125.123 197.523 126.039 197.655 126.955C200.414 129.289 203.192 131.631 205.89 133.937C205.683 132.999 205.451 132.057 205.233 131.118C202.6 128.827 199.945 126.527 197.25 124.207ZM196.62 120.308C196.772 121.206 196.913 122.104 197.055 123.002C199.721 125.294 202.32 127.554 204.928 129.819C204.705 128.881 204.49 127.944 204.257 127.005C201.77 124.8 199.168 122.542 196.62 120.308ZM195.913 116.338C196.082 117.252 196.259 118.169 196.418 119.083C198.896 121.253 201.469 123.466 203.894 125.611C203.659 124.693 203.419 123.774 203.174 122.854C200.795 120.7 198.351 118.518 195.913 116.338ZM195.155 112.349C195.337 113.256 195.509 114.162 195.68 115.069C198.057 117.191 200.483 119.335 202.803 121.432C202.553 120.513 202.283 119.59 202.021 118.669C199.758 116.573 197.476 114.47 195.155 112.349ZM194.326 108.324C194.52 109.225 194.7 110.125 194.883 111.026C197.135 113.081 199.393 115.138 201.593 117.169C201.331 116.268 201.084 115.368 200.813 114.465C198.658 112.422 196.533 110.39 194.326 108.324ZM193.409 104.252C193.618 105.153 193.831 106.054 194.029 106.955C196.153 108.939 198.241 110.908 200.313 112.87C200.037 111.97 199.753 111.068 199.466 110.165C197.442 108.192 195.483 106.247 193.409 104.252ZM192.45 100.216C192.666 101.088 192.879 101.96 193.085 102.832C195.08 104.747 197.005 106.632 198.953 108.527C198.662 107.632 198.348 106.732 198.048 105.836C196.182 103.963 194.357 102.105 192.45 100.216ZM191.43 96.1672C191.649 96.999 191.849 97.83 192.059 98.6611C193.903 100.486 195.645 102.267 197.448 104.074C197.151 103.211 196.87 102.351 196.564 101.486C194.866 99.7188 193.166 97.9505 191.43 96.1672ZM190.304 92.0596C190.532 92.8764 190.76 93.6934 190.979 94.5098C192.64 96.2086 194.227 97.8767 195.857 99.5639C195.55 98.7151 195.239 97.8663 194.921 97.0163C193.407 95.3735 191.854 93.7164 190.304 92.0596ZM189.122 87.9534C189.357 88.742 189.598 89.5313 189.824 90.3195C191.295 91.8838 192.729 93.4338 194.173 94.9876C193.858 94.1606 193.515 93.329 193.192 92.5005C191.868 90.9966 190.479 89.4692 189.122 87.9534ZM187.892 83.8666C188.12 84.5968 188.331 85.3253 188.553 86.0546C189.813 87.4549 191.065 88.8521 192.301 90.243C192.002 89.4972 191.708 88.752 191.401 88.0049C190.256 86.6342 189.063 85.2461 187.892 83.8666ZM186.551 79.7327C186.773 80.4053 186.988 81.0783 187.205 81.7508C188.231 82.9509 189.274 84.157 190.281 85.3504C190.013 84.7157 189.749 84.0815 189.476 83.4455C188.506 82.2093 187.542 80.9758 186.551 79.7327ZM185.195 75.7382C185.389 76.2953 185.589 76.8526 185.778 77.4094C186.538 78.3546 187.33 79.3102 188.077 80.2511C187.867 79.7735 187.647 79.2945 187.432 78.8164C186.685 77.7896 185.957 76.7691 185.195 75.7382ZM183.918 72.0929C184.027 72.3889 184.126 72.6847 184.232 72.9804C184.688 73.5896 185.164 74.2056 185.614 74.8122C185.509 74.5883 185.396 74.3635 185.291 74.1392L183.918 72.0929ZM112.369 612.995C112.473 614.023 112.58 615.051 112.696 616.08C145.866 609.505 183.633 604.668 222.129 599.744C297.029 590.161 374.664 580.228 426.192 556.406C501.732 521.483 521.225 456.608 394.122 319.076C509.774 451.001 484.81 513.788 408.177 548.947C358.828 571.588 288.092 582.748 219.685 593.539C181.85 599.507 144.735 605.366 112.369 612.995ZM112.005 609.325C112.099 610.341 112.206 611.358 112.308 612.374C144.652 604.782 181.678 598.936 219.423 592.982C287.728 582.207 358.362 571.064 407.553 548.495C486.405 512.317 510.198 446.681 381.259 305.956C498.886 441.481 469.014 505.118 388.664 541.682C342.088 562.876 278.581 574.949 217.011 586.654C179.921 593.705 143.537 600.624 112.005 609.325ZM111.706 605.676C111.783 606.678 111.863 607.68 111.952 608.684C143.448 600.03 179.724 593.133 216.697 586.104C278.186 574.415 341.608 562.358 388.045 541.226C470.731 503.601 499.636 437.111 368.189 292.48C488.528 432.455 452.686 497.042 367.97 535.249C324.709 554.76 268.737 567.374 214.314 579.637C177.992 587.822 142.373 595.854 111.706 605.676ZM111.44 602.042C111.506 603.034 111.576 604.025 111.652 605.017C142.274 595.254 177.766 587.252 213.95 579.098C268.309 566.849 324.216 554.251 367.355 534.794C454.082 495.68 489.354 428.773 357.026 280.969L356.346 280.307C478.604 424.686 435.193 489.934 345.601 529.952C306.416 547.454 258.417 560.119 211.595 572.473C176.064 581.847 141.22 591.045 111.44 602.042ZM111.209 598.434C111.266 599.409 111.333 600.385 111.397 601.362C141.12 590.438 175.809 581.28 211.178 571.948C257.948 559.608 305.893 546.958 344.99 529.495C435.609 489.018 478.737 422.579 349.776 273.916C349.098 273.263 348.459 272.627 347.774 271.969C468.716 419.346 415.403 484.424 320.65 526.303C286.654 541.33 247.343 553.362 208.848 565.145C174.126 575.772 140.073 586.198 111.209 598.434ZM111.038 594.842C111.08 595.799 111.121 596.757 111.173 597.716C139.97 585.573 173.847 575.203 208.382 564.632C246.842 552.861 286.114 540.84 320.043 525.844C415.54 483.636 468.789 417.762 342.73 267.169C341.718 266.205 340.69 265.233 339.678 264.269C491.967 456.782 343.712 509.094 206.078 557.627C172.189 569.576 138.957 581.301 111.038 594.842ZM110.896 591.263C110.928 592.204 110.964 593.146 111.003 594.088C138.846 580.661 171.878 569.008 205.557 557.133C343.91 508.347 492.991 455.718 334.996 259.829C333.881 258.781 332.719 257.71 331.573 256.647C471.845 441.376 332.716 497.582 203.271 549.895C170.238 563.245 137.839 576.341 110.896 591.263ZM110.792 587.714C110.816 588.631 110.844 589.548 110.872 590.466C137.73 575.684 169.901 562.677 202.699 549.423C332.717 496.878 472.441 440.358 327.535 252.894C326.044 251.512 324.593 250.15 323.085 248.759C451.775 425.904 321.779 485.926 200.428 541.921C168.267 556.761 136.727 571.322 110.792 587.714ZM110.736 584.17C110.745 585.064 110.752 585.957 110.77 586.851C136.612 570.629 167.907 556.187 199.805 541.468C321.577 485.278 452.113 425.043 319.845 245.801C318.147 244.246 316.409 242.672 314.681 241.102C431.718 410.529 310.802 474.142 197.548 533.663C166.287 550.092 135.624 566.212 110.736 584.17ZM110.72 577.147C110.715 577.973 110.711 578.798 110.709 579.624C134.409 560.233 163.875 542.62 193.894 524.676C299.45 461.584 411.793 394.357 303.475 231.009C301.486 229.23 299.491 227.449 297.482 225.66C392.084 379.883 288.908 450.008 191.631 516.108C162.236 536.082 133.389 555.69 110.72 577.147ZM110.77 573.656C110.753 574.445 110.733 575.233 110.725 576.023C133.296 554.863 161.813 535.476 190.867 515.735C288.439 449.434 391.939 379.071 295.041 223.49C292.914 221.61 290.714 219.694 288.526 217.785C372.425 364.534 278.001 437.576 188.585 506.686C160.161 528.655 132.256 550.23 110.77 573.656ZM110.843 570.19C110.822 570.917 110.812 571.645 110.796 572.374C132.187 549.309 159.734 528.016 187.78 506.34C277.445 437.038 372.182 363.788 286.39 215.915C284.084 213.9 281.791 211.892 279.442 209.856C352.983 349.192 267.12 424.831 185.467 496.723C158.037 520.874 131.089 544.603 110.843 570.19ZM110.967 566.726C110.944 567.396 110.916 568.064 110.894 568.733C131.056 543.583 157.606 520.197 184.629 496.405C266.505 424.317 352.613 348.452 277.457 208.147C275.066 206.082 272.638 203.997 270.203 201.91C333.698 333.837 256.251 411.715 182.265 486.105C155.86 512.654 129.904 538.762 110.967 566.726ZM111.115 563.283C111.086 563.869 111.053 564.455 111.028 565.041C129.897 537.605 155.433 511.925 181.399 485.817C255.588 411.224 333.27 333.122 268.398 200.356C265.866 198.19 263.285 195.999 260.691 193.802C314.581 318.377 245.42 398.116 178.97 474.685C153.614 503.904 128.663 532.664 111.115 563.283ZM111.29 559.858C111.263 560.327 111.243 560.797 111.217 561.266C128.724 531.304 153.205 503.086 178.076 474.427C244.707 397.65 314.066 317.683 259.028 192.396C256.379 190.153 253.743 187.916 251.055 185.653C295.74 302.845 234.616 383.927 175.568 462.271C151.285 494.489 127.355 526.244 111.29 559.858ZM111.509 556.417L111.445 557.389C127.507 524.603 150.908 493.542 174.651 462.04C233.864 383.478 295.142 302.149 249.491 184.34C246.76 182.05 243.94 179.717 241.138 177.391C277.068 287.131 223.84 368.983 172.036 448.595C148.858 484.216 125.972 519.389 111.509 556.417ZM111.745 553.027L111.723 553.292C126.247 517.333 148.533 483.073 171.099 448.392C223.047 368.555 276.429 286.464 239.709 176.203C236.847 173.825 233.975 171.443 231.058 169.039C258.729 271.192 213.1 353.051 168.356 433.287C146.297 472.847 124.456 512.014 111.745 553.027ZM156.271 370.678C138.597 423.964 120.797 477.64 113.801 532.808C123.327 486.044 141.408 440.656 159.507 395.237C190.914 316.411 222.347 237.49 209.1 151.142C205.927 148.577 202.784 146.025 199.542 143.425C206.08 220.491 181.308 295.194 156.271 370.678ZM110.115 563.174L110.162 562.259L110.007 562.588C109.969 562.915 109.926 563.242 109.89 563.57L110.115 563.174ZM109.966 566.605C109.985 566.142 109.997 565.677 110.017 565.214C109.892 565.435 109.763 565.655 109.64 565.876L109.493 567.304L109.966 566.605ZM109.843 570.044C109.86 569.46 109.885 568.877 109.906 568.293C109.697 568.604 109.497 568.918 109.293 569.23C109.237 569.8 109.193 570.372 109.141 570.942C109.375 570.642 109.606 570.343 109.843 570.044ZM109.769 573.496L109.808 571.513L109 572.555C108.943 573.212 108.881 573.868 108.83 574.527C109.143 574.183 109.454 573.839 109.769 573.496ZM109.716 576.97C109.722 576.241 109.731 575.512 109.743 574.783C109.407 575.154 109.066 575.523 108.734 575.896C108.683 576.613 108.63 577.331 108.583 578.049C108.958 577.688 109.338 577.33 109.716 576.97ZM109.702 580.458C109.702 579.672 109.708 578.887 109.711 578.101C109.302 578.493 108.901 578.887 108.496 579.28C108.449 580.042 108.411 580.806 108.37 581.568C108.814 581.198 109.256 580.827 109.702 580.458ZM109.729 583.955C109.72 583.134 109.702 582.312 109.697 581.491C109.237 581.875 108.768 582.258 108.311 582.644C108.267 583.455 108.222 584.265 108.188 585.078C108.698 584.702 109.212 584.329 109.729 583.955ZM109.779 587.482C109.76 586.616 109.75 585.752 109.741 584.887C109.206 585.276 108.682 585.668 108.153 586.059C108.122 586.897 108.091 587.734 108.065 588.572C108.634 588.207 109.206 587.844 109.779 587.482ZM109.884 591.007C109.856 590.118 109.828 589.229 109.805 588.341C109.212 588.718 108.619 589.093 108.033 589.473C108.01 590.34 107.997 591.21 107.979 592.079C108.612 591.721 109.244 591.362 109.884 591.007ZM110.02 594.565C109.98 593.647 109.941 592.73 109.907 591.813C109.255 592.177 108.611 592.544 107.965 592.91C107.948 593.801 107.932 594.692 107.926 595.585C108.619 595.243 109.321 594.905 110.02 594.565ZM110.188 598.135C110.136 597.195 110.097 596.257 110.056 595.318C109.344 595.666 108.633 596.016 107.927 596.368C107.926 597.28 107.925 598.192 107.931 599.105C108.682 598.781 109.432 598.457 110.188 598.135ZM110.414 601.721C110.351 600.765 110.288 599.809 110.231 598.854C109.462 599.182 108.694 599.51 107.931 599.841C107.941 600.771 107.96 601.703 107.976 602.635C108.786 602.329 109.597 602.024 110.414 601.721ZM110.672 605.332C110.596 604.355 110.524 603.378 110.459 602.403C109.628 602.711 108.81 603.023 107.991 603.336C108.009 604.281 108.028 605.226 108.057 606.174C108.923 605.891 109.8 605.612 110.672 605.332ZM110.969 608.957C110.882 607.968 110.803 606.979 110.726 605.991C109.842 606.276 108.959 606.561 108.083 606.85C108.117 607.811 108.153 608.772 108.197 609.736C109.118 609.475 110.04 609.215 110.969 608.957ZM111.324 612.604C111.223 611.603 111.116 610.601 111.022 609.601C110.085 609.862 109.151 610.123 108.221 610.386C108.268 611.36 108.328 612.335 108.384 613.31C109.359 613.073 110.338 612.837 111.324 612.604ZM111.712 616.276C111.598 615.258 111.49 614.24 111.387 613.224C110.389 613.46 109.406 613.701 108.42 613.943C108.477 614.928 108.538 615.914 108.608 616.901C109.637 616.691 110.674 616.484 111.712 616.276ZM145.344 725.471C126.159 688.31 115.848 652.204 111.785 616.886C110.738 617.095 109.694 617.307 108.656 617.521C111.199 652.176 120.584 687.937 139.877 725.305L138.917 725.471C119.63 688.114 110.23 652.367 107.666 617.727C106.638 617.939 105.61 618.151 104.593 618.368C105.604 652.334 114.049 687.731 133.448 725.305L132.487 725.471C113.097 687.914 104.636 652.534 103.595 618.586C102.585 618.804 101.58 619.023 100.581 619.244C100.033 652.506 107.515 687.526 127.021 725.305L126.061 725.471C106.566 687.71 99.0577 652.708 99.5685 619.465C98.5737 619.687 97.5925 619.916 96.6075 620.142C94.4693 652.684 100.981 687.318 120.595 725.305L119.634 725.471C100.036 687.51 93.4911 652.897 95.5792 620.377C94.6166 620.601 93.6614 620.827 92.7082 621.055C88.9443 652.864 94.443 687.103 114.166 725.305L113.207 725.471C93.5 687.303 87.9656 653.09 91.6654 621.305C90.7241 621.532 89.7816 621.758 88.8505 621.989C83.4308 653.05 87.9007 686.885 107.737 725.305L106.777 725.471C86.9641 687.096 82.4432 653.292 87.7831 622.26C86.8681 622.49 85.9532 622.719 85.0493 622.953C77.9427 653.25 81.3609 686.666 101.31 725.305L100.35 725.471C80.4277 686.885 76.9496 653.502 83.9615 623.235C83.0699 623.468 82.1931 623.706 81.3117 623.943C72.4817 653.458 74.8199 686.445 94.8841 725.305L93.9238 725.471C73.8939 686.677 71.4768 653.727 80.1845 624.245C79.3234 624.479 78.4751 624.719 77.6255 624.958C67.0382 653.674 68.2742 686.22 88.4539 725.305L87.4939 725.471C67.3571 686.469 66.0265 653.968 76.4609 625.287C75.6398 625.521 74.8182 625.755 74.0072 625.993C61.6262 653.895 61.7281 685.989 82.0275 725.305L81.0667 725.471C60.8246 686.263 60.5889 654.221 72.776 626.36C72.002 626.591 71.2216 626.819 70.4561 627.054C56.2395 654.124 55.1794 685.753 75.6003 725.305L74.6399 725.471C54.2878 686.052 55.193 654.485 69.1671 627.458C68.4219 627.69 67.681 627.925 66.9448 628.162C50.8699 654.377 48.6341 685.525 69.1717 725.305L68.2135 725.471C47.7565 685.849 49.8 654.768 65.5819 628.596C64.8899 628.822 64.2152 629.055 63.5317 629.285C45.5449 654.63 42.0804 685.284 62.7437 725.305L61.7837 725.471C41.2274 685.655 44.4384 655.082 62.0461 629.784C61.413 630.001 60.7864 630.221 60.1614 630.442C40.2326 654.897 35.5296 685.044 56.3173 725.305L55.3564 725.471C34.7054 685.471 39.0986 655.424 58.5442 631.019C57.9944 631.218 57.4347 631.413 56.8892 631.615C34.9615 655.162 28.9732 684.791 49.89 725.305L48.9296 725.471C28.1958 685.312 33.7544 655.809 55.0351 632.321C54.5808 632.493 54.123 632.664 53.6747 632.838C29.7188 655.455 22.4152 684.544 43.4607 725.305L42.5002 725.471C21.6985 685.18 28.4272 656.246 51.5238 633.693C51.1778 633.832 50.833 633.973 50.4895 634.113C24.4901 655.776 15.8665 684.309 37.0334 725.305L36.073 725.471C15.2284 685.096 23.1056 656.761 47.9667 635.164C47.7917 635.239 47.6194 635.315 47.4461 635.391C19.3158 656.083 9.30385 684.046 30.6066 725.305L29.6462 725.471C8.95948 685.402 17.6103 657.813 43.6542 637.242C13.9704 656.901 2.93477 684.158 24.1785 725.305L23.2193 725.471C2.96787 686.246 11.8322 659.576 38.1696 640.075C8.17829 658.657 -3.05898 685 17.75 725.305L16.79 725.471C-3.00888 687.12 5.99723 661.347 32.487 642.858C2.33398 660.422 -9.03621 685.874 11.3231 725.305L10.3627 725.471C-12.0987 681.967 3.72915 655.373 40.748 637.62C42.5228 636.602 44.3705 635.614 46.2577 634.643C47.9802 633.585 49.7444 632.542 51.5769 631.528C53.2272 630.44 54.9416 629.376 56.6943 628.329C58.3238 627.171 59.9971 626.03 61.7276 624.912C63.2667 623.733 64.8546 622.572 66.4863 621.428C68.0042 620.165 69.573 618.921 71.1851 617.693C72.6062 616.41 74.0625 615.14 75.5672 613.888C76.9521 612.518 78.3923 611.168 79.8622 609.828C81.1847 608.396 82.5438 606.975 83.9462 605.57C85.1567 604.125 86.4011 602.691 87.6833 601.269C88.8445 599.727 90.0533 598.2 91.2854 596.682C92.3825 595.055 93.5149 593.439 94.6812 591.834C95.687 590.153 96.7187 588.48 97.7882 586.818C98.6947 585.095 99.6233 583.38 100.587 581.674C101.407 579.875 102.249 578.083 103.125 576.298C103.851 574.427 104.601 572.562 105.378 570.704C106.009 568.755 106.66 566.81 107.34 564.871C107.854 562.909 108.395 560.953 108.95 559.001C109.379 556.889 109.834 554.782 110.306 552.679C110.622 550.531 110.96 548.386 111.317 546.243C116.908 486.295 136.17 428.204 155.286 370.569C180.407 294.836 205.265 219.889 198.465 142.567C144.828 99.5959 82.4903 52.3515 10.4519 0.359596L11.2306 -0.000517918C82.8767 51.7079 144.915 98.7194 198.361 141.514C198.278 140.593 198.185 139.671 198.091 138.749C146.462 96.8899 86.4028 50.9222 16.877 0.359596L17.6599 -0.000517918C86.7879 50.2722 146.548 96.0032 197.987 137.683C197.89 136.76 197.781 135.836 197.676 134.912C148.065 94.1674 90.297 49.4816 23.3043 0.358463L24.0906 0.000899018C90.6689 48.819 148.132 93.2578 197.545 133.811C197.435 132.893 197.337 131.975 197.217 131.056C149.64 91.4307 94.1704 48.03 29.7307 0.356975L30.5174 0.00167833C94.5245 47.3549 149.685 90.4985 197.06 129.921C196.937 128.994 196.803 128.067 196.671 127.14C151.15 88.6512 97.9946 46.5491 36.1567 0.355841L36.9476 0.00267019C98.3453 45.8668 151.194 87.7073 196.509 125.984C196.371 125.054 196.221 124.122 196.074 123.19C152.63 85.8503 101.781 45.0461 42.5809 0.354637L43.3757 0.00394543C102.111 44.3443 152.652 84.8731 195.88 121.985C195.733 121.083 195.596 120.182 195.44 119.279C154.057 83.0607 105.609 43.5792 49.0077 0.353503L49.8077 0.00500813C105.934 42.8679 154.044 82.0517 195.211 118.032C195.047 117.11 194.877 116.187 194.703 115.265C155.427 80.2055 109.347 42.0511 55.432 0.352795L56.2358 0.00599999C109.673 41.3351 155.41 79.1825 194.471 113.995C194.292 113.071 194.098 112.146 193.91 111.221C156.753 77.3281 113.058 40.5083 61.8572 0.350174L62.6647 0.00819624C113.368 39.7759 156.702 76.2681 193.637 109.898C193.445 108.983 193.259 108.068 193.058 107.152C158.037 74.4296 116.743 38.9523 68.2844 0.348686L69.0957 0.00932979C117.036 38.1996 157.949 73.3247 192.741 105.764C192.536 104.851 192.33 103.938 192.114 103.025C159.251 71.4868 120.386 37.3707 74.7091 0.346702L75.5251 0.0119511C120.674 36.6086 159.15 70.358 191.782 101.598C191.561 100.683 191.32 99.7661 191.09 98.8509C160.403 68.5085 123.992 35.7677 81.1359 0.344081L81.9549 0.0141474C124.261 34.9829 160.263 67.3287 190.711 97.3488C190.483 96.4671 190.251 95.5853 190.014 94.7028C161.504 65.539 127.603 34.1816 87.5576 0.342593L88.3851 0.0161311C127.81 33.3314 161.312 64.2546 189.556 93.0404C189.323 92.197 189.099 91.354 188.857 90.5095C162.546 62.534 131.174 32.5715 93.9836 0.338555L94.8183 0.01939C131.351 31.6804 162.298 61.1645 188.332 88.7194C188.089 87.8938 187.839 87.0673 187.588 86.241C163.502 59.4731 134.692 30.9274 100.408 0.336359L101.247 0.0219405C134.85 30.0049 163.215 58.0326 187.02 84.343C186.771 83.5424 186.501 82.7406 186.244 81.9397C164.402 56.386 138.171 29.2637 106.83 0.332037L107.68 0.0267581C138.279 28.2731 164.019 54.7987 185.558 79.8245C185.314 79.0809 185.07 78.3373 184.817 77.5928C165.243 53.2634 141.61 27.5777 113.255 0.327361L114.113 0.0306547C141.648 26.4924 164.729 51.4792 183.977 75.1851C183.741 74.5113 183.512 73.8375 183.27 73.1628C165.991 50.0779 144.987 25.8532 119.676 0.322614L120.546 0.0353306C144.94 24.6416 165.317 48.0293 182.241 70.3608C182.028 69.785 181.813 69.2088 181.595 68.6321C166.638 46.8165 148.305 24.0863 126.098 0.316521L126.98 0.0422735C148.122 22.6722 165.724 44.3518 180.281 65.2066C180.149 64.8697 180.011 64.5319 179.876 64.1951C167.246 43.6094 151.63 22.3502 132.519 0.307949L133.412 0.0504209C150.947 20.2755 165.537 39.84 177.591 58.8323C167.393 39.7652 154.657 20.2787 138.938 0.298101L139.852 0.0604103C153.327 17.1905 164.611 33.9573 173.994 50.4084C166.437 33.866 156.99 17.1686 145.358 0.285774L146.286 0.073021C160.117 20.1436 170.874 39.9522 179.025 59.5471C180.726 62.7463 182.367 65.9362 183.927 69.1126C185.935 72.5032 187.833 75.8685 189.687 79.2237C191.92 82.6997 194.083 86.1567 196.147 89.5862C198.656 93.2288 201.091 96.8482 203.405 100.43C206.069 104.107 208.608 107.741 211.083 111.355C213.862 115.031 216.553 118.677 219.149 122.288C222.192 126.156 225.146 129.989 227.979 133.777C231.24 137.793 234.358 141.752 237.39 145.677C240.565 149.49 243.642 153.262 246.614 156.992C249.865 160.8 253.027 164.57 256.077 168.294C260.047 172.824 263.824 177.271 267.496 181.672C270.994 185.613 274.388 189.507 277.666 193.351C281.185 197.246 284.598 201.094 287.91 204.896C292.064 209.417 296.095 213.882 299.974 218.277C303.89 222.485 307.686 226.636 311.35 230.727C315.356 234.979 319.248 239.177 322.996 243.308C327.13 247.646 331.153 251.931 335.019 256.142C339.079 260.366 343.039 264.542 346.853 268.646C350.882 272.798 354.805 276.897 358.597 280.932C362.681 285.097 366.631 289.195 370.475 293.24C524.562 448.826 507.224 519.682 426.814 556.857C375.102 580.764 297.355 590.711 222.346 600.307C183.779 605.241 145.947 610.086 112.768 616.689C116.814 652.021 127.115 688.138 146.304 725.305L145.344 725.471Z" fill="#1A57FF"/>
</svg>
