<svg width="488" height="726" viewBox="0 0 488 726" fill="none" xmlns="http://www.w3.org/2000/svg">
<path d="M296.763 83.2614L295.464 84.9329C295.564 84.7457 295.656 84.5602 295.755 84.3726C296.192 83.7531 296.632 83.1326 297.08 82.5103C296.972 82.7607 296.87 83.0107 296.763 83.2614ZM289.901 93.8232C289.547 94.2548 289.185 94.6897 288.836 95.1196L288.938 94.9437L290.148 93.3174L289.901 93.8232ZM294.841 87.8096C294.053 88.7591 293.298 89.697 292.512 90.645C292.76 90.1546 293.025 89.6601 293.275 89.1683C293.983 88.2409 294.725 87.302 295.451 86.3683C295.25 86.8482 295.04 87.3304 294.841 87.8096ZM282.464 104.577C282.16 104.937 281.878 105.289 281.575 105.648L281.581 105.639C281.903 105.226 282.239 104.808 282.564 104.393L282.464 104.577ZM287.569 98.6299C286.838 99.4788 286.095 100.332 285.372 101.178C285.588 100.792 285.794 100.408 286.011 100.022C286.777 99.0611 287.503 98.1144 288.282 97.149C288.047 97.6419 287.8 98.1374 287.569 98.6299ZM293.049 92.3073C291.996 93.5018 290.984 94.6813 289.95 95.8696C290.246 95.2566 290.545 94.6436 290.845 94.0292C291.813 92.8427 292.8 91.6495 293.778 90.4599C293.532 91.0763 293.292 91.6916 293.049 92.3073ZM379.17 569.516L378.898 569.1C378.867 568.784 378.832 568.468 378.799 568.152L379.012 568.538C379.066 568.863 379.116 569.19 379.17 569.516ZM274.321 115.823L273.998 116.197C274.135 116.027 274.263 115.861 274.4 115.691L274.321 115.823ZM279.827 109.51C279.123 110.298 278.442 111.078 277.755 111.859C277.94 111.553 278.117 111.248 278.303 110.94C278.987 110.11 279.689 109.273 280.375 108.442C280.187 108.8 280.013 109.153 279.827 109.51ZM285.46 103.245C284.434 104.386 283.401 105.529 282.384 106.666C282.719 106.04 283.07 105.409 283.41 104.781C284.356 103.661 285.329 102.53 286.303 101.399C286.021 102.015 285.738 102.631 285.46 103.245ZM291.318 96.8197C290.052 98.1843 288.805 99.5415 287.576 100.891C287.894 100.204 288.194 99.5204 288.516 98.8316C289.726 97.4351 290.913 96.0458 292.125 94.6473C291.847 95.3728 291.589 96.0955 291.318 96.8197ZM379.751 573.128C379.567 572.886 379.376 572.646 379.19 572.405L379.069 571.011C379.221 571.245 379.378 571.479 379.527 571.714C379.602 572.185 379.679 572.656 379.751 573.128ZM381.353 575.258L380.999 574.784L380.861 573.834L381.122 574.249C381.199 574.585 381.279 574.921 381.353 575.258ZM382.815 577.23L382.767 577.163L382.704 576.865L382.815 577.23ZM271.484 120.767C270.825 121.505 270.152 122.248 269.486 122.988L270.192 121.89C270.803 121.171 271.45 120.439 272.077 119.713C271.877 120.066 271.684 120.416 271.484 120.767ZM277.326 114.385C276.317 115.463 275.301 116.543 274.33 117.606C274.63 117.085 274.958 116.556 275.264 116.035C276.262 114.886 277.245 113.743 278.245 112.593C277.942 113.189 277.626 113.79 277.326 114.385ZM283.428 107.844L279.664 111.878C280.035 111.157 280.396 110.44 280.773 109.718C281.924 108.418 283.121 107.101 284.306 105.788C284.004 106.476 283.725 107.158 283.428 107.844ZM289.677 101.287C288.214 102.796 286.745 104.307 285.342 105.793C285.684 105.016 286.054 104.233 286.405 103.454C287.801 101.914 289.16 100.389 290.576 98.8409C290.278 99.6559 289.966 100.474 289.677 101.287ZM380.259 576.639C379.991 576.337 379.729 576.033 379.459 575.731C379.417 575.164 379.378 574.597 379.332 574.031C379.562 574.333 379.785 574.639 380.014 574.942C380.095 575.508 380.18 576.073 380.259 576.639ZM382.076 578.707C381.872 578.47 381.663 578.234 381.456 577.998C381.394 577.536 381.33 577.076 381.264 576.616L381.788 577.331C381.884 577.79 381.982 578.248 382.076 578.707ZM383.807 580.744L383.408 580.274C383.346 579.955 383.284 579.636 383.219 579.318C383.321 579.46 383.424 579.602 383.525 579.744C383.617 580.078 383.715 580.41 383.807 580.744ZM385.401 582.656L385.315 582.553L385.217 582.175L385.235 582.201L385.401 582.656ZM262.663 132.21C262.048 132.87 261.42 133.536 260.818 134.192C260.963 133.978 261.115 133.761 261.262 133.547C261.927 132.782 262.574 132.025 263.243 131.259L262.663 132.21ZM268.684 125.743C267.703 126.791 266.743 127.831 265.765 128.878C266.083 128.363 266.381 127.855 266.703 127.339C267.645 126.279 268.622 125.205 269.585 124.137C269.29 124.671 268.975 125.211 268.684 125.743ZM275 119.132C273.761 120.412 272.511 121.696 271.314 122.957C271.681 122.298 272.055 121.637 272.43 120.976C273.633 119.649 274.8 118.337 276.026 117.001C275.676 117.714 275.343 118.421 275 119.132ZM281.475 112.414C279.998 113.936 278.557 115.443 277.094 116.959C277.482 116.172 277.874 115.384 278.271 114.595C279.648 113.105 281.057 111.603 282.462 110.102C282.138 110.872 281.792 111.646 281.475 112.414ZM288.189 105.641C286.549 107.279 284.892 108.924 283.315 110.536C283.663 109.709 284.019 108.88 284.376 108.051C285.913 106.42 287.463 104.784 289.04 103.137C288.751 103.973 288.471 104.807 288.189 105.641ZM380.711 580.082C380.374 579.753 380.034 579.425 379.695 579.096C379.653 578.442 379.605 577.79 379.558 577.137C379.862 577.481 380.168 577.826 380.469 578.171C380.552 578.808 380.63 579.445 380.711 580.082ZM382.744 582.108C382.45 581.814 382.158 581.519 381.864 581.226C381.795 580.663 381.721 580.101 381.649 579.539C381.912 579.844 382.17 580.15 382.429 580.455C382.536 581.006 382.639 581.557 382.744 582.108ZM384.696 584.094C384.461 583.852 384.232 583.607 383.994 583.365C383.911 582.909 383.82 582.453 383.735 581.997C383.94 582.244 384.14 582.494 384.344 582.742L384.696 584.094ZM386.548 586.022C386.399 585.864 386.245 585.708 386.096 585.551C386.014 585.224 385.925 584.898 385.841 584.572L386.212 585.029C386.324 585.36 386.438 585.69 386.548 586.022ZM388.274 587.878L388.137 587.731C388.093 587.591 388.051 587.451 388.005 587.312L388.066 587.389C388.134 587.553 388.206 587.715 388.274 587.878ZM253.461 143.726C252.839 144.383 252.274 145.015 251.662 145.667C251.759 145.53 251.847 145.395 251.945 145.258C252.565 144.56 253.208 143.853 253.833 143.154C253.712 143.344 253.581 143.537 253.461 143.726ZM259.626 137.297C258.697 138.265 257.755 139.239 256.84 140.201C257.156 139.717 257.464 139.236 257.785 138.751C258.703 137.739 259.597 136.738 260.536 135.717C260.222 136.247 259.937 136.768 259.626 137.297ZM266.165 130.493C264.875 131.815 263.654 133.109 262.384 134.423C262.781 133.759 263.204 133.085 263.607 132.419C264.784 131.146 265.985 129.863 267.176 128.585C266.834 129.222 266.499 129.857 266.165 130.493ZM272.739 123.868C271.296 125.316 269.845 126.768 268.44 128.201C268.844 127.446 269.223 126.701 269.636 125.944C271.021 124.475 272.428 122.995 273.857 121.508C273.485 122.294 273.101 123.083 272.739 123.868ZM279.694 116.878C278.012 118.548 276.394 120.192 274.741 121.849C275.135 121.014 275.546 120.173 275.951 119.335C277.51 117.712 279.082 116.082 280.659 114.45C280.332 115.261 280.013 116.069 279.694 116.878ZM286.768 109.969C284.96 111.728 283.141 113.491 281.384 115.227C281.734 114.357 282.065 113.491 282.425 112.619C284.104 110.898 285.846 109.15 287.589 107.403C287.308 108.259 287.041 109.114 286.768 109.969ZM381.123 583.512C380.708 583.157 380.299 582.799 379.88 582.445C379.844 581.735 379.809 581.025 379.768 580.315C380.141 580.682 380.51 581.049 380.88 581.416C380.965 582.114 381.044 582.813 381.123 583.512ZM383.352 585.44C382.982 585.115 382.606 584.791 382.233 584.467C382.164 583.835 382.102 583.202 382.029 582.57C382.357 582.901 382.693 583.231 383.019 583.563C383.135 584.188 383.244 584.814 383.352 585.44ZM385.512 587.363C385.192 587.074 384.867 586.789 384.545 586.501C384.452 585.954 384.361 585.406 384.265 584.859C384.553 585.159 384.844 585.457 385.13 585.757C385.262 586.291 385.383 586.828 385.512 587.363ZM387.594 589.267C387.335 589.027 387.076 588.787 386.814 588.547L386.494 587.205C386.722 587.45 386.949 587.697 387.177 587.943C387.318 588.384 387.457 588.826 387.594 589.267ZM389.575 591.117C389.397 590.947 389.223 590.776 389.043 590.607C388.945 590.284 388.841 589.964 388.739 589.642C388.891 589.809 389.037 589.978 389.186 590.146C389.316 590.469 389.449 590.792 389.575 591.117ZM391.402 592.869L391.222 592.695C391.165 592.545 391.111 592.395 391.053 592.246L391.161 592.369L391.402 592.869ZM243.693 155.683C243.202 156.201 242.702 156.722 242.207 157.242C242.352 157.045 242.491 156.85 242.636 156.652C243.115 156.125 243.612 155.589 244.103 155.056C243.961 155.267 243.833 155.473 243.693 155.683ZM250.222 148.901C249.302 149.835 248.395 150.763 247.504 151.685C247.772 151.294 248.047 150.901 248.316 150.509C249.223 149.528 250.143 148.541 251.048 147.561C250.768 148.009 250.499 148.453 250.222 148.901ZM256.77 142.263C255.544 143.506 254.308 144.753 253.092 145.991C253.521 145.311 253.961 144.627 254.399 143.945C255.535 142.739 256.727 141.509 257.909 140.283C257.531 140.942 257.141 141.605 256.77 142.263ZM263.628 135.375C262.172 136.817 260.749 138.244 259.328 139.67C259.742 138.95 260.146 138.234 260.568 137.512L264.754 133.151C264.37 133.895 264.004 134.633 263.628 135.375ZM270.676 128.457C269.016 130.08 267.357 131.704 265.727 133.314C266.174 132.448 266.654 131.572 267.112 130.702C268.621 129.155 270.209 127.572 271.78 125.999C271.408 126.819 271.037 127.639 270.676 128.457ZM277.957 121.375C276.126 123.135 274.333 124.879 272.545 126.621C272.929 125.771 273.295 124.926 273.691 124.074C275.439 122.313 277.167 120.56 278.934 118.79C278.6 119.653 278.28 120.513 277.957 121.375ZM285.423 114.262C283.448 116.135 281.478 118.007 279.545 119.862C279.897 118.94 280.281 118.01 280.646 117.086C282.458 115.284 284.368 113.441 286.255 111.608C285.978 112.493 285.688 113.379 285.423 114.262ZM376.473 583.243C351.682 565.489 321.296 549.512 290.325 533.235C176.693 473.516 55.3128 409.676 175.465 238.419M381.49 586.911C381.013 586.552 380.526 586.197 380.043 585.841C380.011 585.077 379.978 584.312 379.94 583.549C380.377 583.923 380.814 584.299 381.248 584.674C381.331 585.419 381.416 586.164 381.49 586.911ZM383.916 588.762C383.471 588.419 383.024 588.078 382.574 587.737C382.508 587.037 382.435 586.338 382.36 585.64C382.767 585.996 383.165 586.356 383.568 586.714C383.686 587.396 383.807 588.078 383.916 588.762ZM386.272 590.598C385.867 590.278 385.469 589.957 385.06 589.638C384.962 589.017 384.863 588.395 384.76 587.774C385.126 588.104 385.485 588.436 385.847 588.766C385.991 589.376 386.134 589.987 386.272 590.598ZM388.553 592.415C388.204 592.132 387.852 591.85 387.5 591.569C387.383 591.037 387.276 590.503 387.153 589.972C387.465 590.26 387.782 590.546 388.088 590.836C388.248 591.361 388.398 591.889 388.553 592.415ZM390.757 594.224C390.474 593.988 390.184 593.755 389.899 593.52L389.516 592.205C389.768 592.447 390.023 592.688 390.273 592.93L390.757 594.224ZM392.865 596.006L392.269 595.497C392.153 595.177 392.03 594.859 391.911 594.54L392.418 595.045C392.566 595.366 392.72 595.685 392.865 596.006ZM394.777 597.653L394.554 597.454L394.361 597.015L394.526 597.187C394.612 597.341 394.692 597.498 394.777 597.653ZM233.756 167.534C233.323 167.978 232.878 168.427 232.451 168.868L232.538 168.753C233.045 168.204 233.539 167.661 234.047 167.112L233.756 167.534ZM240.341 160.803C239.406 161.76 238.473 162.716 237.53 163.676C237.851 163.224 238.199 162.762 238.523 162.309C239.388 161.39 240.29 160.455 241.175 159.528C240.897 159.953 240.616 160.379 240.341 160.803ZM246.999 154.128C245.85 155.26 244.688 156.397 243.579 157.511C243.935 156.973 244.269 156.443 244.631 155.903C245.841 154.64 247.014 153.392 248.235 152.124C247.831 152.789 247.397 153.465 246.999 154.128ZM254.076 147.129L249.756 151.402C250.22 150.642 250.694 149.878 251.166 149.116C252.491 147.756 253.866 146.374 255.229 144.998C254.833 145.712 254.465 146.417 254.076 147.129ZM261.253 140.152C259.603 141.734 257.954 143.315 256.357 144.873C256.797 144.08 257.259 143.28 257.708 142.484C259.322 140.855 260.879 139.25 262.517 137.61C262.095 138.458 261.665 139.308 261.253 140.152ZM268.689 133.022C266.874 134.76 265.067 136.491 263.267 138.22C263.703 137.343 264.13 136.467 264.577 135.586C266.266 133.909 268.015 132.205 269.754 130.505C269.387 131.347 269.046 132.183 268.689 133.022ZM276.322 125.816C274.333 127.674 272.357 129.525 270.426 131.357C270.812 130.464 271.226 129.565 271.623 128.669C273.524 126.811 275.389 124.969 277.324 123.095C276.989 124.002 276.644 124.911 276.322 125.816ZM284.21 118.469C282.088 120.438 279.985 122.398 277.891 124.355C278.225 123.432 278.564 122.509 278.911 121.584C280.886 119.679 282.935 117.742 284.974 115.809C284.71 116.697 284.462 117.583 284.21 118.469ZM381.797 590.308C381.252 589.95 380.711 589.591 380.162 589.234C380.138 588.43 380.108 587.626 380.077 586.823C380.583 587.201 381.087 587.581 381.587 587.961C381.658 588.743 381.729 589.526 381.797 590.308ZM384.406 592.046C383.895 591.701 383.383 591.355 382.867 591.011C382.805 590.268 382.736 589.527 382.668 588.786C383.14 589.147 383.617 589.506 384.082 589.868C384.191 590.594 384.302 591.319 384.406 592.046ZM386.961 593.784C386.49 593.458 386.009 593.135 385.532 592.81C385.436 592.13 385.331 591.453 385.228 590.774C385.663 591.118 386.102 591.461 386.533 591.806C386.677 592.465 386.825 593.123 386.961 593.784ZM389.45 595.535C389.021 595.23 388.587 594.926 388.152 594.622C388.03 594.013 387.898 593.405 387.765 592.797C388.162 593.119 388.554 593.443 388.947 593.765C389.117 594.355 389.288 594.944 389.45 595.535ZM391.856 597.272C391.475 596.994 391.099 596.715 390.714 596.437C390.573 595.915 390.439 595.391 390.292 594.87C390.642 595.162 390.981 595.458 391.328 595.751C391.509 596.257 391.678 596.766 391.856 597.272ZM394.177 598.987C393.865 598.753 393.555 598.518 393.24 598.284C393.094 597.857 392.942 597.43 392.795 597.003C393.071 597.241 393.349 597.478 393.622 597.717C393.807 598.141 393.995 598.563 394.177 598.987ZM396.384 600.665C396.167 600.498 395.947 600.333 395.729 600.167C395.599 599.856 395.467 599.547 395.332 599.237C395.521 599.405 395.712 599.571 395.897 599.739C396.061 600.048 396.223 600.356 396.384 600.665ZM398.411 602.258L398.145 602.047L397.917 601.594L398.118 601.782L398.411 602.258ZM223.568 179.39L223.479 179.48L223.581 179.373L223.568 179.39ZM230.018 172.95C229.187 173.78 228.341 174.617 227.519 175.445C227.775 175.097 228.011 174.758 228.268 174.41C229.189 173.445 230.058 172.504 230.996 171.532C230.677 172.002 230.336 172.481 230.018 172.95ZM237.042 165.938C235.849 167.116 234.715 168.269 233.528 169.446C233.918 168.88 234.305 168.315 234.7 167.747C235.794 166.622 236.915 165.484 238.021 164.354C237.681 164.886 237.377 165.407 237.042 165.938ZM244.133 159.059C242.699 160.441 241.254 161.828 239.858 163.192C240.318 162.476 240.808 161.747 241.275 161.028C242.657 159.631 244.015 158.243 245.426 156.832C244.987 157.577 244.563 158.317 244.133 159.059ZM251.453 151.98C249.814 153.558 248.21 155.12 246.574 156.697C247.038 155.91 247.467 155.136 247.942 154.345C249.521 152.773 251.133 151.186 252.74 149.601C252.315 150.392 251.868 151.192 251.453 151.98ZM259.025 144.834C257.22 146.522 255.398 148.217 253.651 149.877C254.102 149.035 254.56 148.192 255.02 147.346C256.741 145.659 258.454 143.974 260.214 142.269C259.803 143.129 259.426 143.978 259.025 144.834ZM266.802 137.537C264.816 139.394 262.862 141.237 260.884 143.09C261.316 142.184 261.758 141.275 262.202 140.365C264.077 138.554 265.991 136.727 267.905 134.897C267.539 135.777 267.158 136.661 266.802 137.537ZM274.823 130.165C272.701 132.095 270.563 134.032 268.515 135.929C268.887 135.031 269.26 134.133 269.642 133.232C271.658 131.313 273.679 129.393 275.742 127.453C275.424 128.36 275.128 129.261 274.823 130.165ZM283.055 122.653C280.79 124.713 278.563 126.754 276.311 128.807C276.631 127.88 276.944 126.955 277.274 126.026C279.413 124.02 281.594 121.995 283.781 119.969C283.531 120.864 283.294 121.759 283.055 122.653ZM382.065 593.699C381.459 593.348 380.846 593.001 380.234 592.652C380.219 591.817 380.211 590.981 380.191 590.147C380.757 590.516 381.322 590.885 381.881 591.256C381.948 592.069 382.006 592.884 382.065 593.699ZM384.856 595.329C384.281 594.988 383.695 594.651 383.115 594.312C383.059 593.531 383.011 592.749 382.951 591.97C383.491 592.332 384.024 592.697 384.56 593.061C384.664 593.816 384.759 594.573 384.856 595.329ZM387.593 596.977C387.048 596.645 386.502 596.314 385.951 595.984C385.86 595.261 385.768 594.538 385.671 593.817C386.181 594.168 386.681 594.522 387.186 594.875C387.325 595.575 387.46 596.276 387.593 596.977ZM390.276 598.631C389.765 598.312 389.26 597.991 388.744 597.673C388.621 597.015 388.49 596.36 388.362 595.704C388.829 596.035 389.298 596.366 389.76 596.699C389.934 597.342 390.11 597.986 390.276 598.631ZM392.879 600.275C392.421 599.98 391.956 599.688 391.494 599.395C391.345 598.804 391.188 598.215 391.031 597.626C391.455 597.936 391.883 598.244 392.303 598.555C392.498 599.128 392.69 599.701 392.879 600.275ZM395.4 601.918C394.998 601.652 394.586 601.388 394.182 601.123C394.018 600.617 393.862 600.108 393.694 599.603C394.064 599.882 394.431 600.162 394.798 600.442C395.002 600.933 395.201 601.426 395.4 601.918ZM397.849 603.566C397.512 603.336 397.175 603.105 396.833 602.876C396.665 602.454 396.488 602.033 396.317 601.611C396.623 601.85 396.922 602.091 397.225 602.331C397.433 602.743 397.646 603.153 397.849 603.566ZM400.144 605.147C399.9 604.976 399.663 604.803 399.418 604.633C399.274 604.332 399.138 604.03 398.991 603.731C399.208 603.905 399.415 604.083 399.63 604.258C399.806 604.553 399.971 604.851 400.144 605.147ZM402.272 606.655L401.971 606.442C401.883 606.285 401.79 606.13 401.701 605.973C401.775 606.037 401.853 606.098 401.928 606.162L402.272 606.655ZM212.695 191.854L211.525 193.036L211.597 192.944C212.001 192.52 212.433 192.082 212.845 191.654L212.695 191.854ZM219.542 185.012C218.795 185.739 218.036 186.472 217.314 187.188L217.825 186.512C218.611 185.701 219.404 184.885 220.181 184.078C219.96 184.393 219.761 184.698 219.542 185.012ZM226.605 178.109C225.456 179.234 224.294 180.365 223.148 181.487C223.591 180.867 224.055 180.238 224.503 179.614C225.545 178.558 226.64 177.476 227.72 176.401C227.341 176.974 226.98 177.539 226.605 178.109ZM233.892 171.033C232.436 172.428 231.033 173.797 229.604 175.179C230.05 174.512 230.501 173.844 230.953 173.175C232.356 171.774 233.767 170.368 235.17 168.968C234.743 169.656 234.311 170.348 233.892 171.033ZM241.265 164.05C239.666 165.561 238.059 167.075 236.489 168.573C236.988 167.769 237.471 166.97 237.98 166.162C239.497 164.669 241.064 163.155 242.634 161.638C242.176 162.442 241.714 163.249 241.265 164.05ZM249.049 156.693C247.188 158.432 245.411 160.134 243.574 161.863C244.061 161.006 244.577 160.139 245.076 159.278C246.808 157.6 248.546 155.92 250.291 154.236C249.866 155.059 249.463 155.874 249.049 156.693ZM256.86 149.505C254.9 151.302 252.933 153.102 251.025 154.875C251.483 153.983 251.924 153.099 252.395 152.204C254.266 150.416 256.188 148.606 258.118 146.791C257.704 147.695 257.262 148.606 256.86 149.505ZM265.069 141.951C262.908 143.923 260.833 145.856 258.692 147.819C259.112 146.898 259.545 145.973 259.977 145.047C262.004 143.141 264.037 141.231 266.089 139.313C265.737 140.196 265.41 141.072 265.069 141.951ZM273.379 134.499C271.121 136.514 268.85 138.534 266.662 140.516C267.023 139.595 267.378 138.676 267.753 137.752C269.895 135.762 272.086 133.751 274.291 131.733C273.984 132.656 273.674 133.579 273.379 134.499ZM281.973 126.803C279.565 128.95 277.218 131.068 274.817 133.211C275.125 132.269 275.46 131.32 275.779 130.375C278.068 128.281 280.362 126.184 282.685 124.076C282.447 124.985 282.199 125.896 281.973 126.803ZM382.298 597.102C381.627 596.763 380.953 596.426 380.277 596.089C380.273 595.22 380.262 594.351 380.248 593.483C380.878 593.845 381.501 594.21 382.127 594.574C382.187 595.416 382.247 596.258 382.298 597.102ZM385.265 598.628C384.62 598.293 383.98 597.957 383.329 597.624C383.284 596.811 383.231 595.998 383.176 595.186C383.777 595.54 384.38 595.894 384.974 596.25C385.075 597.041 385.173 597.834 385.265 598.628ZM388.176 600.161C387.563 599.834 386.952 599.508 386.333 599.183C386.249 598.426 386.163 597.668 386.07 596.912C386.641 597.257 387.217 597.6 387.782 597.947C387.918 598.683 388.046 599.422 388.176 600.161ZM391.031 601.7C390.457 601.386 389.872 601.075 389.294 600.762C389.174 600.063 389.06 599.363 388.934 598.665C389.472 598.999 390.008 599.335 390.54 599.671C390.707 600.347 390.869 601.023 391.031 601.7ZM393.84 603.27C393.301 602.966 392.756 602.663 392.212 602.36C392.061 601.716 391.901 601.074 391.745 600.432C392.25 600.755 392.743 601.082 393.243 601.408C393.444 602.028 393.648 602.647 393.84 603.27ZM396.548 604.827C396.058 604.541 395.572 604.254 395.075 603.97C394.903 603.397 394.725 602.826 394.543 602.256C395.002 602.559 395.457 602.864 395.911 603.17C396.129 603.72 396.337 604.274 396.548 604.827ZM399.186 606.382C398.751 606.122 398.319 605.86 397.881 605.601C397.696 605.11 397.512 604.618 397.324 604.128C397.715 604.395 398.112 604.659 398.499 604.928C398.728 605.412 398.961 605.896 399.186 606.382ZM401.725 607.921C401.374 607.704 401.014 607.492 400.661 607.276C400.476 606.867 400.281 606.461 400.089 606.053C400.415 606.285 400.745 606.515 401.069 606.748C401.29 607.138 401.508 607.529 401.725 607.921ZM404.135 609.443L403.355 608.949C403.197 608.654 403.038 608.359 402.876 608.064L403.564 608.574L404.135 609.443ZM406.381 610.895L406.022 610.657L405.74 610.213L406.032 610.441L406.381 610.895ZM208.814 197.175C208.056 197.91 207.305 198.643 206.566 199.369L207.156 198.616C207.895 197.861 208.665 197.093 209.417 196.333C209.212 196.615 209.018 196.893 208.814 197.175ZM215.93 190.281C214.762 191.415 213.58 192.557 212.411 193.69C212.799 193.165 213.223 192.623 213.614 192.095C214.788 190.917 215.918 189.759 217.096 188.579C216.706 189.147 216.316 189.715 215.93 190.281ZM223.207 183.314C221.852 184.594 220.496 185.873 219.179 187.134C219.623 186.494 220.04 185.865 220.49 185.222C221.815 183.913 223.191 182.581 224.553 181.254C224.111 181.938 223.64 182.634 223.207 183.314ZM230.864 176.08C229.25 177.602 227.646 179.119 226.04 180.638C226.537 179.87 227.042 179.099 227.548 178.328C229.108 176.81 230.629 175.311 232.194 173.79C231.732 174.561 231.316 175.314 230.864 176.08ZM238.651 168.847C236.83 170.521 234.997 172.201 233.231 173.85C233.745 172.992 234.305 172.117 234.831 171.255C236.518 169.638 238.272 167.99 240.014 166.348C239.554 167.183 239.101 168.016 238.651 168.847ZM246.653 161.463C244.666 163.28 242.753 165.064 240.795 166.869C241.272 165.999 241.725 165.138 242.214 164.263C244.145 162.439 246.043 160.629 247.982 158.801C247.541 159.688 247.083 160.58 246.653 161.463ZM254.913 154.006C252.782 155.922 250.646 157.841 248.567 159.732C249.03 158.795 249.52 157.849 249.995 156.908C251.966 155.07 254.026 153.192 256.067 151.322C255.673 152.22 255.297 153.112 254.913 154.006ZM263.361 146.423C261.084 148.45 258.857 150.454 256.625 152.461C257.023 151.546 257.4 150.638 257.811 149.719C260.017 147.692 262.194 145.677 264.414 143.643C264.063 144.569 263.699 145.499 263.361 146.423ZM272.068 138.729C269.661 140.848 267.264 142.961 264.906 145.057C265.266 144.095 265.652 143.127 266.025 142.162C268.265 140.127 270.601 138.048 272.921 135.977C272.632 136.896 272.345 137.813 272.068 138.729ZM280.99 130.926C278.462 133.123 275.948 135.312 273.48 137.481C273.766 136.556 274.044 135.633 274.341 134.706C276.779 132.526 279.183 130.36 281.638 128.172C281.412 129.092 281.204 130.009 280.99 130.926ZM382.468 600.508C381.737 600.183 381.009 599.858 380.271 599.536C380.278 598.647 380.277 597.759 380.276 596.872C380.965 597.216 381.656 597.559 382.337 597.907C382.384 598.773 382.428 599.639 382.468 600.508ZM385.618 601.921C384.915 601.601 384.206 601.283 383.496 600.965C383.461 600.123 383.415 599.283 383.371 598.442C384.034 598.784 384.697 599.128 385.355 599.472C385.446 600.288 385.537 601.104 385.618 601.921ZM388.711 603.346C388.04 603.032 387.358 602.722 386.679 602.41C386.603 601.616 386.513 600.824 386.424 600.032C387.065 600.371 387.695 600.714 388.329 601.055C388.46 601.818 388.59 602.581 388.711 603.346ZM391.739 604.791C391.096 604.481 390.451 604.172 389.801 603.864C389.688 603.127 389.569 602.391 389.446 601.656C390.057 601.989 390.66 602.324 391.264 602.659C391.428 603.368 391.582 604.08 391.739 604.791ZM394.717 606.25C394.104 605.945 393.496 605.638 392.876 605.335C392.729 604.662 392.589 603.987 392.438 603.316C393.005 603.635 393.575 603.952 394.136 604.272C394.333 604.931 394.527 605.59 394.717 606.25ZM397.625 607.712C397.06 607.423 396.49 607.135 395.92 606.848C395.744 606.228 395.558 605.611 395.374 604.992C395.904 605.299 396.437 605.604 396.96 605.914C397.186 606.512 397.41 607.111 397.625 607.712ZM400.442 609.173C399.93 608.902 399.407 608.636 398.89 608.368C398.695 607.817 398.503 607.264 398.301 606.715C398.787 607.005 399.267 607.297 399.746 607.59C399.983 608.116 400.211 608.645 400.442 609.173ZM403.211 610.665C402.749 610.413 402.286 610.162 401.82 609.912C401.612 609.428 401.396 608.947 401.185 608.466C401.614 608.733 402.033 609.004 402.458 609.272C402.71 609.736 402.966 610.199 403.211 610.665ZM405.831 612.117C405.447 611.901 405.072 611.682 404.685 611.467C404.487 611.081 404.295 610.692 404.092 610.307C404.442 610.532 404.786 610.759 405.134 610.985C405.371 611.361 405.598 611.74 405.831 612.117ZM408.349 613.549C408.072 613.388 407.788 613.229 407.508 613.067C407.335 612.78 407.153 612.496 406.979 612.209C407.224 612.374 407.476 612.535 407.72 612.7C407.928 612.984 408.144 613.265 408.349 613.549ZM410.646 614.914L410.258 614.684L409.959 614.253L410.285 614.479C410.406 614.623 410.525 614.769 410.646 614.914ZM197.728 209.542C196.983 210.259 196.221 210.982 195.495 211.69C195.731 211.394 195.984 211.089 196.221 210.792C196.943 210.065 197.7 209.321 198.44 208.585L197.728 209.542ZM204.901 202.643L201.611 205.807C201.977 205.322 202.317 204.85 202.686 204.363C203.825 203.232 204.952 202.107 206.097 200.973C205.704 201.527 205.289 202.091 204.901 202.643ZM212.345 195.589C211.017 196.833 209.675 198.083 208.382 199.311C208.852 198.653 209.318 197.998 209.794 197.338C211.06 196.101 212.367 194.844 213.662 193.593C213.213 194.262 212.784 194.923 212.345 195.589ZM220.128 188.28C218.484 189.814 216.889 191.324 215.259 192.851C215.794 192.058 216.361 191.25 216.904 190.452C218.453 188.96 219.967 187.484 221.543 185.979C221.061 186.751 220.603 187.512 220.128 188.28ZM227.96 181.076C226.172 182.713 224.378 184.353 222.629 185.971C223.148 185.144 223.645 184.325 224.174 183.494C225.913 181.842 227.683 180.175 229.451 178.51C228.955 179.365 228.444 180.225 227.96 181.076ZM236.104 173.633C234.126 175.425 232.2 177.193 230.255 178.969C230.776 178.07 231.292 177.172 231.826 176.268C233.684 174.528 235.567 172.775 237.472 171.013C237.006 171.89 236.557 172.76 236.104 173.633ZM244.458 166.127C242.315 168.045 240.18 169.961 238.075 171.862C238.567 170.928 239.107 169.976 239.614 169.037C241.651 167.153 243.694 165.267 245.754 163.373C245.314 164.293 244.885 165.21 244.458 166.127ZM252.995 158.533C250.733 160.529 248.491 162.516 246.281 164.489C246.729 163.544 247.152 162.607 247.613 161.658C249.748 159.709 251.965 157.722 254.166 155.743C253.773 156.674 253.375 157.606 252.995 158.533ZM261.818 150.765C259.401 152.884 257.019 154.987 254.632 157.091C255.031 156.132 255.463 155.163 255.877 154.2C258.19 152.116 260.466 150.049 262.818 147.948C262.478 148.889 262.145 149.828 261.818 150.765ZM270.829 142.952C268.306 145.125 265.776 147.3 263.323 149.44C263.659 148.499 263.979 147.562 264.326 146.617C266.717 144.488 269.168 142.331 271.62 140.174C271.344 141.102 271.094 142.026 270.829 142.952ZM280.071 134.985C277.404 137.269 274.815 139.517 272.181 141.785C272.456 140.834 272.744 139.88 273.032 138.926C275.562 136.702 278.106 134.472 280.686 132.225C280.475 133.145 280.27 134.066 280.071 134.985ZM382.593 603.92C381.807 603.616 381.013 603.315 380.219 603.013C380.236 602.102 380.26 601.189 380.271 600.279C381.021 600.609 381.763 600.94 382.506 601.272C382.541 602.154 382.566 603.037 382.593 603.92ZM385.913 605.225C385.151 604.921 384.382 604.621 383.612 604.321C383.586 603.456 383.567 602.591 383.533 601.729C384.261 602.057 384.978 602.388 385.698 602.718C385.776 603.553 385.843 604.389 385.913 605.225ZM389.185 606.551C388.445 606.247 387.706 605.943 386.959 605.642C386.893 604.828 386.821 604.015 386.749 603.202C387.446 603.525 388.143 603.849 388.834 604.175C388.954 604.966 389.074 605.758 389.185 606.551ZM392.395 607.887C391.687 607.587 390.98 607.287 390.264 606.992C390.159 606.225 390.041 605.461 389.924 604.697C390.593 605.016 391.265 605.333 391.926 605.654C392.086 606.397 392.245 607.14 392.395 607.887ZM395.537 609.229C394.865 608.936 394.183 608.647 393.503 608.357C393.362 607.643 393.218 606.93 393.067 606.218C393.711 606.535 394.352 606.853 394.988 607.173C395.179 607.856 395.355 608.544 395.537 609.229ZM398.63 610.599C397.992 610.311 397.343 610.028 396.698 609.743C396.526 609.083 396.352 608.423 396.172 607.765C396.778 608.073 397.369 608.385 397.967 608.696C398.19 609.329 398.417 609.962 398.63 610.599ZM401.633 611.975C401.039 611.7 400.448 611.424 399.849 611.151C399.65 610.548 399.44 609.95 399.232 609.351C399.797 609.648 400.355 609.947 400.913 610.246C401.16 610.821 401.395 611.398 401.633 611.975ZM404.577 613.365C404.026 613.1 403.481 612.834 402.924 612.572C402.711 612.043 402.5 611.513 402.279 610.986C402.782 611.259 403.29 611.53 403.787 611.806C404.051 612.325 404.319 612.843 404.577 613.365ZM407.409 614.739C406.937 614.505 406.454 614.274 405.978 614.042C405.753 613.577 405.517 613.115 405.284 612.652C405.734 612.907 406.186 613.16 406.631 613.416C406.896 613.855 407.151 614.298 407.409 614.739ZM410.154 616.13C409.753 615.923 409.344 615.719 408.939 615.514C408.722 615.136 408.506 614.757 408.286 614.38C408.657 614.598 409.025 614.818 409.394 615.037C409.646 615.402 409.904 615.764 410.154 616.13ZM412.747 617.489C412.453 617.332 412.16 617.174 411.863 617.019C411.678 616.742 411.495 616.464 411.307 616.188C411.584 616.359 411.856 616.532 412.132 616.703C412.342 616.963 412.54 617.228 412.747 617.489ZM415.139 618.774C414.991 618.693 414.85 618.61 414.701 618.528C414.591 618.385 414.476 618.244 414.366 618.101C414.493 618.182 414.614 618.265 414.741 618.347C414.873 618.489 415.008 618.631 415.139 618.774ZM186.3 222.094C185.597 222.768 184.878 223.45 184.184 224.119C184.389 223.867 184.575 223.623 184.78 223.37C185.507 222.645 186.27 221.903 187.013 221.17C186.778 221.477 186.533 221.789 186.3 222.094ZM193.618 215.091C192.574 216.083 191.572 217.054 190.535 218.041C190.907 217.561 191.268 217.086 191.643 216.604C192.687 215.578 193.704 214.566 194.754 213.537C194.379 214.053 193.991 214.576 193.618 215.091ZM201.254 207.929C199.91 209.184 198.554 210.445 197.231 211.69C197.721 211.024 198.231 210.348 198.729 209.679C199.989 208.459 201.285 207.222 202.565 205.991C202.116 206.642 201.696 207.281 201.254 207.929ZM209.074 200.649C207.431 202.163 205.836 203.655 204.221 205.155C204.76 204.378 205.329 203.587 205.879 202.806C207.432 201.322 208.978 199.843 210.564 198.345C210.062 199.114 209.564 199.883 209.074 200.649ZM216.956 193.439C215.209 195.034 213.458 196.632 211.731 198.218C212.268 197.393 212.779 196.58 213.327 195.751C215.056 194.122 216.803 192.485 218.549 190.849C218.027 191.709 217.466 192.583 216.956 193.439ZM225.26 185.921C223.295 187.684 221.343 189.441 219.423 191.182C219.972 190.276 220.54 189.363 221.102 188.452C222.922 186.762 224.795 185.047 226.667 183.332C226.179 184.202 225.735 185.055 225.26 185.921ZM233.701 178.36C231.564 180.267 229.454 182.162 227.338 184.06C227.856 183.131 228.391 182.195 228.925 181.261C230.992 179.365 233.019 177.489 235.114 175.581C234.638 176.509 234.163 177.437 233.701 178.36ZM242.334 170.75C240.088 172.716 237.83 174.688 235.645 176.625C236.12 175.688 236.584 174.756 237.072 173.815C239.212 171.879 241.407 169.916 243.597 167.955C243.169 168.889 242.749 169.821 242.334 170.75ZM251.247 162.941C248.807 165.062 246.439 167.15 244.039 169.253C244.478 168.282 244.965 167.295 245.419 166.318C247.718 164.263 250.017 162.208 252.361 160.131C251.983 161.07 251.611 162.006 251.247 162.941ZM260.338 155.105C257.815 157.272 255.301 159.434 252.831 161.575C253.208 160.624 253.572 159.677 253.963 158.721C256.381 156.585 258.818 154.439 261.279 152.283C260.955 153.226 260.649 154.165 260.338 155.105ZM269.651 147.141C266.994 149.399 264.372 151.64 261.768 153.872C262.095 152.904 262.444 151.93 262.784 150.958C265.3 148.761 267.867 146.538 270.448 144.31C270.184 145.254 269.902 146.201 269.651 147.141ZM279.222 139.04C276.449 141.375 273.721 143.69 270.994 146.004C271.254 145.053 271.527 144.098 271.799 143.144C274.47 140.838 277.102 138.552 279.81 136.229C279.61 137.166 279.41 138.104 279.222 139.04ZM382.68 607.354C381.835 607.07 380.986 606.787 380.133 606.505C380.163 605.574 380.185 604.644 380.205 603.714C381.011 604.024 381.816 604.334 382.615 604.646C382.643 605.547 382.665 606.45 382.68 607.354ZM386.166 608.549C385.341 608.263 384.523 607.974 383.69 607.691C383.676 606.808 383.657 605.926 383.633 605.046C384.416 605.353 385.203 605.659 385.977 605.971C386.045 606.829 386.108 607.688 386.166 608.549ZM389.6 609.757C388.803 609.472 388.004 609.188 387.198 608.906C387.143 608.069 387.087 607.232 387.023 606.397C387.784 606.706 388.545 607.013 389.297 607.325C389.406 608.133 389.5 608.946 389.6 609.757ZM392.987 610.982C392.219 610.698 391.437 610.419 390.66 610.139C390.566 609.348 390.468 608.556 390.366 607.766C391.1 608.073 391.824 608.383 392.549 608.692C392.7 609.454 392.848 610.217 392.987 610.982ZM396.304 612.228C395.568 611.949 394.827 611.671 394.083 611.393C393.95 610.647 393.802 609.905 393.657 609.163C394.365 609.467 395.064 609.776 395.763 610.084C395.95 610.798 396.128 611.512 396.304 612.228ZM399.559 613.492C398.85 613.213 398.146 612.932 397.428 612.656C397.264 611.969 397.1 611.282 396.925 610.598C397.594 610.896 398.263 611.193 398.924 611.494C399.14 612.158 399.351 612.825 399.559 613.492ZM402.751 614.769C402.083 614.497 401.415 614.225 400.739 613.956C400.543 613.32 400.339 612.686 400.134 612.052C400.763 612.342 401.396 612.629 402.018 612.922C402.267 613.536 402.514 614.152 402.751 614.769ZM405.857 616.048C405.24 615.788 404.61 615.533 403.986 615.276C403.767 614.697 403.547 614.119 403.319 613.543C403.91 613.825 404.496 614.109 405.081 614.394C405.345 614.943 405.6 615.496 405.857 616.048ZM408.902 617.359C408.334 617.111 407.76 616.866 407.186 616.621C406.949 616.1 406.7 615.582 406.456 615.063C406.998 615.331 407.527 615.605 408.063 615.876C408.346 616.369 408.628 616.863 408.902 617.359ZM411.835 618.666C411.326 618.437 410.824 618.205 410.311 617.977C410.072 617.535 409.839 617.09 409.594 616.65C410.066 616.894 410.531 617.139 410.999 617.385C411.281 617.811 411.558 618.238 411.835 618.666ZM414.665 619.968C414.243 619.77 413.824 619.571 413.399 619.374C413.168 619.008 412.924 618.646 412.687 618.282C413.076 618.491 413.473 618.696 413.857 618.906C414.129 619.259 414.399 619.613 414.665 619.968ZM417.332 621.237C417.026 621.087 416.709 620.941 416.4 620.793C416.207 620.53 416.017 620.267 415.821 620.005C416.102 620.163 416.388 620.319 416.666 620.477C416.889 620.731 417.112 620.983 417.332 621.237ZM419.833 622.483L419.372 622.252C419.263 622.122 419.158 621.99 419.047 621.86L419.462 622.104C419.589 622.229 419.706 622.357 419.833 622.483ZM174.572 234.79C173.994 235.345 173.402 235.905 172.823 236.46C173.016 236.225 173.202 235.994 173.397 235.759C173.997 235.167 174.62 234.562 175.227 233.966C175.014 234.238 174.783 234.519 174.572 234.79ZM182.231 227.52C181.203 228.482 180.199 229.432 179.192 230.385C179.559 229.922 179.932 229.456 180.302 228.992C181.315 228.004 182.28 227.041 183.307 226.046C182.937 226.542 182.596 227.026 182.231 227.52ZM189.897 220.372C188.525 221.654 187.139 222.942 185.768 224.222C186.268 223.558 186.816 222.872 187.323 222.205C188.623 220.956 189.948 219.697 191.256 218.444C190.797 219.089 190.349 219.73 189.897 220.372ZM197.706 213.174C196.157 214.586 194.603 215.999 193.095 217.391C193.615 216.665 194.095 215.955 194.622 215.225C196.149 213.78 197.71 212.317 199.277 210.852C198.759 211.624 198.216 212.406 197.706 213.174ZM205.816 205.775C204.044 207.384 202.308 208.976 200.551 210.578C201.11 209.748 201.669 208.919 202.239 208.084C203.947 206.489 205.634 204.904 207.358 203.301C206.835 204.129 206.328 204.951 205.816 205.775ZM214.142 198.308C212.177 200.059 210.204 201.815 208.286 203.544C208.856 202.641 209.471 201.719 210.053 200.811C211.885 199.122 213.77 197.408 215.647 195.698C215.132 196.573 214.643 197.437 214.142 198.308ZM222.647 190.731C220.522 192.61 218.45 194.463 216.36 196.326C216.892 195.417 217.385 194.524 217.93 193.61C219.995 191.731 222.05 189.856 224.153 187.958C223.654 188.882 223.133 189.813 222.647 190.731ZM231.403 183.054C229.148 185.026 226.898 186.994 224.682 188.947C225.19 188.001 225.707 187.051 226.23 186.1C228.374 184.171 230.543 182.231 232.723 180.286C232.266 181.214 231.846 182.13 231.403 183.054ZM240.369 175.266C237.956 177.347 235.562 179.419 233.204 181.475C233.677 180.503 234.181 179.52 234.67 178.543C236.946 176.521 239.271 174.476 241.605 172.426C241.188 173.374 240.772 174.322 240.369 175.266ZM249.561 167.352C247.033 169.52 244.541 171.67 242.045 173.823C242.462 172.861 242.869 171.903 243.301 170.936C245.742 168.793 248.149 166.666 250.625 164.507C250.259 165.458 249.913 166.404 249.561 167.352ZM258.953 159.384C256.307 161.615 253.648 163.854 251.073 166.051C251.438 165.081 251.834 164.103 252.215 163.129C254.724 160.95 257.303 158.737 259.878 156.527C259.568 157.479 259.249 158.435 258.953 159.384ZM268.611 151.236C265.829 153.568 263.114 155.869 260.374 158.182C260.68 157.221 260.99 156.258 261.309 155.294C263.965 153.015 266.615 150.737 269.319 148.435C269.074 149.37 268.844 150.302 268.611 151.236ZM278.457 143.044C275.58 145.429 272.716 147.807 269.903 150.16C270.144 149.218 270.368 148.279 270.62 147.333C273.375 144.991 276.158 142.637 278.969 140.268C278.787 141.195 278.629 142.119 278.457 143.044ZM382.715 610.803C381.81 610.539 380.908 610.276 379.996 610.015C380.039 609.069 380.074 608.125 380.107 607.18C380.971 607.466 381.835 607.751 382.688 608.041C382.701 608.961 382.713 609.881 382.715 610.803ZM386.375 611.884C385.496 611.62 384.61 611.358 383.724 611.097C383.722 610.192 383.71 609.29 383.696 608.387C384.54 608.676 385.376 608.966 386.212 609.258C386.271 610.132 386.33 611.007 386.375 611.884ZM389.969 612.977C389.12 612.713 388.255 612.455 387.397 612.195C387.354 611.333 387.299 610.474 387.244 609.615C388.068 609.905 388.877 610.2 389.692 610.494C389.791 611.32 389.882 612.148 389.969 612.977ZM393.516 614.101C392.685 613.835 391.852 613.57 391.013 613.307C390.931 612.496 390.847 611.684 390.752 610.876C391.548 611.165 392.338 611.456 393.126 611.748C393.261 612.531 393.389 613.316 393.516 614.101ZM397.017 615.245C396.207 614.976 395.405 614.706 394.587 614.441C394.465 613.678 394.338 612.917 394.21 612.156C394.971 612.442 395.738 612.726 396.491 613.015C396.671 613.757 396.851 614.499 397.017 615.245ZM400.429 616.393C399.662 616.13 398.89 615.868 398.114 615.609C397.957 614.889 397.789 614.173 397.62 613.457C398.358 613.744 399.093 614.033 399.823 614.322C400.032 615.01 400.229 615.702 400.429 616.393ZM403.795 617.563C403.062 617.302 402.313 617.048 401.572 616.79C401.381 616.123 401.195 615.455 400.997 614.79C401.698 615.072 402.386 615.359 403.078 615.644C403.319 616.283 403.564 616.92 403.795 617.563ZM407.075 618.758C406.386 618.503 405.691 618.25 404.993 617.999C404.774 617.38 404.542 616.765 404.312 616.15C404.98 616.429 405.641 616.713 406.302 616.996C406.567 617.58 406.82 618.17 407.075 618.758ZM410.303 619.973C409.646 619.721 408.996 619.466 408.33 619.218C408.094 618.665 407.859 618.111 407.615 617.561C408.223 617.825 408.834 618.088 409.436 618.355C409.727 618.894 410.022 619.431 410.303 619.973ZM413.412 621.182C412.822 620.948 412.231 620.715 411.635 620.483C411.382 619.986 411.121 619.491 410.857 618.997C411.421 619.252 411.991 619.504 412.549 619.762C412.844 620.232 413.122 620.709 413.412 621.182ZM416.456 622.409C415.931 622.193 415.391 621.981 414.861 621.766C414.605 621.337 414.342 620.91 414.081 620.482C414.575 620.715 415.067 620.949 415.556 621.184C415.857 621.592 416.165 621.998 416.456 622.409ZM419.352 623.637C418.914 623.449 418.473 623.262 418.03 623.075C417.787 622.726 417.552 622.375 417.305 622.028C417.721 622.233 418.127 622.441 418.539 622.647C418.814 622.976 419.083 623.307 419.352 623.637ZM422.141 624.858C421.807 624.709 421.48 624.558 421.144 624.41C420.935 624.149 420.717 623.892 420.505 623.632C420.82 623.795 421.125 623.961 421.436 624.124C421.671 624.369 421.91 624.612 422.141 624.858ZM424.632 625.978C424.477 625.906 424.315 625.837 424.159 625.765L423.807 625.38C423.943 625.454 424.086 625.526 424.222 625.6L424.632 625.978ZM162.947 247.256L161.181 248.938L161.689 248.335C162.267 247.769 162.859 247.196 163.436 246.629C163.268 246.84 163.115 247.045 162.947 247.256ZM170.54 240.124C169.515 241.076 168.477 242.036 167.473 242.978C167.861 242.497 168.277 242.003 168.669 241.521C169.644 240.578 170.638 239.627 171.637 238.674C171.265 239.159 170.907 239.64 170.54 240.124ZM178.286 232.915C176.929 234.168 175.625 235.395 174.281 236.641C174.736 236.051 175.149 235.481 175.609 234.888C176.967 233.594 178.313 232.305 179.68 231.007C179.217 231.642 178.742 232.283 178.286 232.915ZM186.098 225.787C184.6 227.15 183.09 228.519 181.615 229.87C182.16 229.127 182.691 228.389 183.245 227.642C184.704 226.271 186.209 224.878 187.699 223.492C187.172 224.254 186.615 225.029 186.098 225.787ZM194.401 218.26C192.616 219.863 190.867 221.449 189.116 223.036C189.694 222.203 190.301 221.357 190.891 220.518C192.571 218.96 194.231 217.411 195.941 215.838C195.411 216.653 194.923 217.449 194.401 218.26ZM202.779 210.779C200.814 212.529 198.853 214.278 196.913 216.017C197.493 215.128 198.092 214.232 198.685 213.338C200.564 211.615 202.471 209.881 204.377 208.147C203.838 209.026 203.305 209.905 202.779 210.779ZM211.297 203.256C209.226 205.07 207.156 206.883 205.138 208.672C205.695 207.759 206.228 206.857 206.798 205.938C208.799 204.128 210.848 202.295 212.902 200.46C212.376 201.389 211.811 202.333 211.297 203.256ZM220.224 195.436C217.937 197.427 215.71 199.39 213.455 201.367C213.994 200.411 214.564 199.443 215.118 198.481C217.286 196.544 219.422 194.622 221.62 192.671C221.136 193.6 220.694 194.512 220.224 195.436ZM229.22 187.686C226.833 189.734 224.439 191.784 222.11 193.804C222.606 192.843 223.1 191.883 223.612 190.916C225.892 188.902 228.235 186.857 230.573 184.815C230.121 185.772 229.657 186.734 229.22 187.686ZM238.505 179.734C235.971 181.89 233.484 184.023 230.996 186.157C231.451 185.186 231.905 184.214 232.373 183.238C234.782 181.133 237.199 179.026 239.657 176.899C239.258 177.849 238.89 178.788 238.505 179.734ZM247.971 171.727C245.319 173.962 242.686 176.188 240.082 178.399C240.486 177.423 240.914 176.439 241.333 175.457C243.874 173.262 246.435 171.058 249.019 168.843C248.668 169.805 248.309 170.769 247.971 171.727ZM257.69 163.589C254.927 165.89 252.172 168.188 249.472 170.458C249.819 169.487 250.169 168.517 250.531 167.541C253.15 165.304 255.832 163.036 258.516 160.765C258.226 161.711 257.968 162.647 257.69 163.589ZM267.608 155.337C264.721 157.727 261.896 160.087 259.05 162.457C259.338 161.498 259.621 160.54 259.923 159.577C262.709 157.22 265.458 154.882 268.29 152.504C268.058 153.449 267.829 154.395 267.608 155.337ZM277.739 147.031C274.755 149.467 271.763 151.908 268.859 154.304C269.087 153.348 269.344 152.387 269.583 151.429C272.42 149.053 275.328 146.643 278.239 144.23C278.07 145.164 277.898 146.099 277.739 147.031ZM382.69 614.262C381.735 614.023 380.771 613.787 379.807 613.552C379.862 612.591 379.922 611.628 379.971 610.668C380.894 610.933 381.806 611.202 382.722 611.47C382.719 612.399 382.701 613.331 382.69 614.262ZM386.516 615.232C385.582 614.991 384.637 614.754 383.694 614.517C383.705 613.598 383.72 612.68 383.724 611.763C384.623 612.028 385.514 612.298 386.404 612.567C386.445 613.454 386.484 614.342 386.516 615.232ZM390.29 616.229C389.376 615.983 388.458 615.739 387.534 615.498C387.504 614.623 387.465 613.75 387.424 612.877C388.3 613.144 389.174 613.411 390.04 613.681C390.128 614.529 390.215 615.378 390.29 616.229ZM393.992 617.237C393.104 616.991 392.219 616.744 391.322 616.502C391.25 615.67 391.168 614.841 391.085 614.012C391.937 614.281 392.792 614.548 393.634 614.82C393.761 615.624 393.876 616.43 393.992 617.237ZM397.65 618.265C396.788 618.018 395.919 617.774 395.047 617.53C394.936 616.743 394.829 615.956 394.708 615.172C395.534 615.442 396.356 615.715 397.173 615.988C397.336 616.746 397.497 617.505 397.65 618.265ZM401.237 619.309C400.411 619.064 399.572 618.824 398.736 618.581C398.588 617.836 398.429 617.094 398.269 616.352C399.072 616.623 399.86 616.9 400.652 617.175C400.853 617.884 401.049 618.596 401.237 619.309ZM404.762 620.384C403.962 620.137 403.159 619.89 402.351 619.647C402.17 618.954 401.989 618.261 401.797 617.571C402.562 617.841 403.325 618.111 404.083 618.384C404.315 619.049 404.539 619.716 404.762 620.384ZM408.223 621.477C407.457 621.23 406.698 620.982 405.922 620.739C405.711 620.096 405.49 619.456 405.27 618.816C405.995 619.08 406.728 619.342 407.444 619.609C407.709 620.23 407.97 620.852 408.223 621.477ZM411.603 622.58C410.883 622.339 410.156 622.101 409.429 621.864C409.193 621.273 408.956 620.681 408.709 620.093C409.396 620.353 410.08 620.613 410.758 620.876C411.043 621.444 411.326 622.011 411.603 622.58ZM414.902 623.699C414.239 623.469 413.561 623.244 412.89 623.016C412.63 622.473 412.357 621.934 412.086 621.394C412.734 621.65 413.37 621.91 414.01 622.169C414.313 622.677 414.609 623.188 414.902 623.699ZM418.125 624.849C417.507 624.626 416.886 624.403 416.261 624.182C415.992 623.705 415.732 623.225 415.455 622.751C416.041 622.991 416.612 623.237 417.189 623.48C417.502 623.937 417.818 624.391 418.125 624.849ZM421.232 625.999C420.686 625.793 420.148 625.582 419.594 625.378C419.325 624.966 419.044 624.558 418.763 624.149C419.287 624.374 419.811 624.599 420.33 624.827C420.639 625.215 420.931 625.609 421.232 625.999ZM424.239 627.15C423.777 626.969 423.31 626.789 422.843 626.609C422.591 626.276 422.335 625.944 422.081 625.612C422.504 625.803 422.935 625.991 423.355 626.184C423.648 626.507 423.951 626.826 424.239 627.15ZM427.048 628.278C426.715 628.142 426.376 628.008 426.04 627.873C425.836 627.637 425.64 627.397 425.431 627.161C425.742 627.309 426.053 627.455 426.36 627.603C426.593 627.826 426.818 628.053 427.048 628.278ZM429.717 629.397L429.185 629.17C429.065 629.048 428.937 628.928 428.814 628.806L429.3 629.051C429.436 629.167 429.58 629.28 429.717 629.397ZM151.114 259.791C150.452 260.412 149.828 261.013 149.174 261.628L149.513 261.234L151.535 259.265L151.114 259.791ZM158.606 252.823C157.584 253.776 156.545 254.737 155.524 255.689C155.884 255.251 156.228 254.82 156.591 254.381C157.607 253.406 158.66 252.413 159.694 251.43C159.332 251.893 158.963 252.361 158.606 252.823ZM166.326 245.698C165.091 246.823 163.864 247.944 162.659 249.054C163.113 248.475 163.547 247.907 164.007 247.326C165.288 246.115 166.535 244.92 167.838 243.698C167.345 244.359 166.811 245.04 166.326 245.698ZM174.448 238.302C172.92 239.69 171.399 241.077 169.878 242.463C170.434 241.721 171.003 240.974 171.57 240.228C173 238.893 174.455 237.546 175.892 236.207C175.391 236.914 174.942 237.598 174.448 238.302ZM182.722 230.872C180.944 232.455 179.153 234.044 177.422 235.604C178.022 234.761 178.683 233.891 179.294 233.043C180.943 231.524 182.641 229.982 184.336 228.44C183.788 229.255 183.259 230.062 182.722 230.872ZM191.172 223.336C189.217 225.067 187.327 226.765 185.399 228.482C185.976 227.625 186.508 226.788 187.096 225.927C189.022 224.174 190.913 222.439 192.866 220.673C192.304 221.559 191.72 222.456 191.172 223.336ZM199.818 215.761C197.739 217.578 195.658 219.396 193.618 221.193C194.202 220.27 194.788 219.346 195.385 218.416C197.36 216.642 199.384 214.843 201.402 213.047C200.863 213.956 200.343 214.858 199.818 215.761ZM208.76 207.983C206.476 209.956 204.22 211.914 201.985 213.863C202.552 212.9 203.176 211.913 203.758 210.943C205.906 209.036 208.065 207.123 210.258 205.192C209.745 206.128 209.258 207.053 208.76 207.983ZM217.826 200.181C215.451 202.22 213.094 204.249 210.748 206.273C211.266 205.32 211.746 204.382 212.278 203.424C214.6 201.385 216.937 199.338 219.291 197.283C218.807 198.247 218.295 199.222 217.826 200.181ZM227.192 192.221C224.678 194.345 222.153 196.475 219.703 198.566C220.189 197.587 220.693 196.602 221.194 195.617C223.558 193.563 225.995 191.474 228.423 189.389C227.992 190.341 227.608 191.275 227.192 192.221ZM236.736 184.159C234.072 186.395 231.477 188.598 228.857 190.814C229.294 189.835 229.737 188.854 230.191 187.869C232.752 185.667 235.29 183.477 237.897 181.254C237.509 182.222 237.109 183.194 236.736 184.159ZM246.51 176.023C243.753 178.31 240.995 180.598 238.3 182.856C238.686 181.879 239.075 180.901 239.475 179.92C242.094 177.692 244.769 175.437 247.447 173.18C247.117 174.133 246.826 175.074 246.51 176.023ZM256.467 167.787C253.595 170.15 250.751 172.499 247.938 174.834C248.266 173.863 248.599 172.89 248.942 171.916C251.698 169.595 254.488 167.258 257.304 164.909C257.027 165.867 256.73 166.832 256.467 167.787ZM266.695 159.405C263.708 161.844 260.749 164.269 257.814 166.683C258.086 165.717 258.379 164.746 258.665 163.777C261.535 161.384 264.414 158.986 267.332 156.569C267.116 157.515 266.899 158.461 266.695 159.405ZM277.112 150.96C274.033 153.444 270.945 155.934 267.943 158.381C268.154 157.43 268.362 156.48 268.584 155.527C271.517 153.104 274.542 150.635 277.556 148.172C277.404 149.102 277.255 150.032 277.112 150.96ZM267.673 159.591C270.71 157.112 273.823 154.597 276.932 152.083C264.058 238.118 295.406 316.788 326.716 395.367C345.729 443.084 364.724 490.767 373.788 540.044C362.508 497.687 343.138 456.792 323.651 415.66C285.639 335.422 247.211 254.273 267.673 159.591ZM257.446 167.969C260.403 165.534 263.406 163.078 266.423 160.614C246.461 254.92 284.79 335.817 322.687 415.812C343.233 459.183 363.645 502.289 374.571 547.121C361.646 508.181 340.823 470.823 319.792 433.11C274.921 352.647 229.137 270.558 257.446 167.969ZM175.465 238.419C177.306 236.754 179.164 235.08 181.047 233.394C75.363 395.191 187.351 462.179 292.581 525.077C322.922 543.212 352.689 561.01 376.491 580.652M382.624 617.743C381.615 617.529 380.599 617.318 379.58 617.108C379.651 616.132 379.711 615.158 379.77 614.183C380.746 614.423 381.718 614.664 382.683 614.908C382.669 615.851 382.65 616.797 382.624 617.743ZM386.606 618.607C385.613 618.389 384.624 618.17 383.623 617.955C383.65 617.023 383.671 616.092 383.686 615.162C384.641 615.404 385.598 615.644 386.542 615.89C386.571 616.794 386.587 617.701 386.606 618.607ZM390.54 619.489C389.568 619.268 388.598 619.046 387.616 618.829C387.6 617.939 387.588 617.048 387.562 616.16C388.492 616.405 389.422 616.649 390.341 616.896C390.411 617.759 390.479 618.623 390.54 619.489ZM394.414 620.388C393.472 620.165 392.521 619.945 391.568 619.725C391.509 618.873 391.441 618.023 391.373 617.173C392.285 617.421 393.185 617.674 394.088 617.926C394.203 618.745 394.313 619.565 394.414 620.388ZM398.224 621.307C397.309 621.081 396.382 620.861 395.455 620.639C395.358 619.831 395.253 619.024 395.142 618.218C396.034 618.47 396.917 618.725 397.8 618.98C397.949 619.753 398.084 620.531 398.224 621.307ZM401.991 622.258C401.093 622.028 400.197 621.798 399.289 621.572C399.155 620.812 399.023 620.051 398.878 619.294C399.73 619.543 400.584 619.792 401.426 620.046C401.619 620.781 401.813 621.518 401.991 622.258ZM405.664 623.219C404.803 622.989 403.947 622.759 403.078 622.534C402.907 621.816 402.724 621.101 402.54 620.387C403.369 620.638 404.201 620.888 405.02 621.144C405.242 621.833 405.452 622.526 405.664 623.219ZM409.302 624.206C408.472 623.975 407.633 623.748 406.792 623.521C406.59 622.851 406.391 622.179 406.178 621.512C406.97 621.762 407.755 622.016 408.537 622.27C408.796 622.914 409.058 623.557 409.302 624.206ZM412.831 625.204C412.051 624.978 411.256 624.758 410.468 624.536C410.235 623.907 409.99 623.281 409.742 622.657C410.51 622.91 411.263 623.171 412.022 623.428C412.301 624.017 412.562 624.612 412.831 625.204ZM416.321 626.243C415.57 626.016 414.819 625.789 414.06 625.566C413.804 624.994 413.546 624.424 413.283 623.854C413.995 624.1 414.703 624.347 415.407 624.595C415.715 625.143 416.024 625.69 416.321 626.243ZM419.697 627.287C418.998 627.066 418.306 626.843 417.599 626.626C417.326 626.109 417.05 625.594 416.767 625.081C417.428 625.319 418.097 625.553 418.751 625.794C419.072 626.289 419.385 626.788 419.697 627.287ZM422.998 628.347C422.365 628.138 421.724 627.932 421.084 627.727C420.8 627.264 420.502 626.805 420.208 626.345C420.815 626.574 421.425 626.802 422.025 627.033C422.355 627.469 422.678 627.907 422.998 628.347ZM426.189 629.421C425.628 629.227 425.053 629.038 424.485 628.847C424.204 628.453 423.932 628.056 423.644 627.664C424.178 627.875 424.704 628.088 425.232 628.301C425.552 628.674 425.876 629.046 426.189 629.421ZM429.253 630.506C428.786 630.338 428.318 630.169 427.845 630.002C427.576 629.672 427.297 629.346 427.019 629.02C427.487 629.213 427.939 629.413 428.402 629.608C428.693 629.905 428.967 630.208 429.253 630.506ZM432.183 631.582C431.817 631.444 431.46 631.302 431.091 631.166C430.874 630.934 430.652 630.704 430.435 630.474C430.766 630.618 431.094 630.764 431.425 630.909C431.674 631.135 431.936 631.356 432.183 631.582ZM434.815 632.585C434.647 632.519 434.472 632.456 434.303 632.39C434.184 632.278 434.069 632.165 433.949 632.053C434.102 632.123 434.26 632.192 434.413 632.263L434.815 632.585ZM288.011 139.631C287.921 140.549 287.823 141.468 287.742 142.384C284.533 144.956 281.423 147.479 278.277 150.02C278.424 149.086 278.565 148.152 278.724 147.216C281.81 144.692 284.867 142.184 288.011 139.631ZM288.403 135.826C288.302 136.739 288.208 137.652 288.115 138.565C285.006 141.086 281.973 143.571 278.916 146.067C279.08 145.124 279.264 144.178 279.438 143.233C282.409 140.773 285.38 138.312 288.403 135.826ZM288.86 131.986C288.745 132.9 288.64 133.813 288.536 134.726C285.549 137.179 282.59 139.619 279.657 142.047C279.834 141.108 280.011 140.169 280.199 139.228C283.048 136.832 285.954 134.409 288.86 131.986ZM289.381 128.11C289.252 129.03 289.114 129.952 288.994 130.871C286.139 133.25 283.255 135.642 280.457 137.994C280.649 137.054 280.843 136.114 281.047 135.173C283.773 132.843 286.596 130.467 289.381 128.11ZM289.948 124.207C289.806 125.123 289.674 126.039 289.543 126.955C286.783 129.289 284.006 131.631 281.307 133.937C281.514 132.999 281.747 132.057 281.964 131.118C284.598 128.827 287.252 126.527 289.948 124.207ZM290.577 120.308C290.425 121.206 290.285 122.104 290.142 123.002C287.476 125.294 284.877 127.554 282.27 129.819C282.492 128.881 282.707 127.944 282.94 127.005C285.428 124.8 288.029 122.542 290.577 120.308ZM291.285 116.338C291.116 117.252 290.939 118.169 290.779 119.083C288.301 121.253 285.728 123.466 283.303 125.611C283.538 124.693 283.778 123.774 284.023 122.854C286.402 120.7 288.847 118.518 291.285 116.338ZM292.042 112.349C291.861 113.256 291.688 114.162 291.517 115.069C289.141 117.191 286.714 119.335 284.394 121.432C284.644 120.513 284.915 119.59 285.176 118.669C287.44 116.573 289.721 114.47 292.042 112.349ZM292.872 108.324C292.677 109.225 292.497 110.125 292.314 111.026C290.062 113.081 287.804 115.138 285.605 117.169C285.866 116.268 286.114 115.368 286.385 114.465C288.539 112.422 290.664 110.39 292.872 108.324ZM293.788 104.252C293.579 105.153 293.366 106.054 293.168 106.955C291.044 108.939 288.956 110.908 286.884 112.87C287.16 111.97 287.444 111.068 287.731 110.165C289.756 108.192 291.714 106.247 293.788 104.252ZM294.747 100.216C294.532 101.088 294.318 101.96 294.113 102.832C292.117 104.747 290.192 106.632 288.244 108.527C288.535 107.632 288.849 106.732 289.149 105.836C291.015 103.963 292.841 102.105 294.747 100.216ZM295.768 96.1672C295.548 96.999 295.349 97.83 295.138 98.6611C293.295 100.486 291.552 102.267 289.749 104.074C290.046 103.211 290.328 102.351 290.633 101.486C292.331 99.7189 294.032 97.9505 295.768 96.1672ZM296.893 92.0596C296.665 92.8765 296.437 93.6934 296.219 94.5098C294.558 96.2086 292.971 97.8767 291.34 99.5638C291.647 98.715 291.958 97.8663 292.276 97.0163C293.79 95.3735 295.343 93.7164 296.893 92.0596ZM298.075 87.9534C297.84 88.742 297.599 89.5314 297.373 90.3195C295.902 91.8838 294.469 93.4338 293.024 94.9876C293.34 94.1606 293.682 93.329 294.006 92.5005C295.329 90.9966 296.718 89.4692 298.075 87.9534ZM299.305 83.8666C299.077 84.5968 298.866 85.3253 298.644 86.0546C297.384 87.4549 296.132 88.8521 294.896 90.243C295.195 89.4972 295.49 88.752 295.796 88.0049C296.941 86.6342 298.134 85.2461 299.305 83.8666ZM300.647 79.7327C300.424 80.4053 300.209 81.0783 299.992 81.7508C298.966 82.9509 297.924 84.1571 296.916 85.3505C297.185 84.7157 297.449 84.0814 297.722 83.4455C298.692 82.2093 299.656 80.9758 300.647 79.7327ZM302.002 75.7382C301.809 76.2952 301.608 76.8526 301.419 77.4094C300.659 78.3546 299.867 79.3102 299.12 80.2511C299.33 79.7734 299.55 79.2945 299.765 78.8164C300.512 77.7896 301.241 76.7691 302.002 75.7382ZM303.279 72.0929C303.17 72.3889 303.071 72.6847 302.965 72.9804C302.51 73.5897 302.033 74.2056 301.584 74.8122C301.688 74.5883 301.801 74.3635 301.906 74.1392L303.279 72.0929ZM374.828 612.995C374.725 614.023 374.617 615.051 374.502 616.08C341.331 609.505 303.564 604.668 265.069 599.744C190.168 590.161 112.533 580.228 61.0055 556.406C-14.5344 521.483 -34.028 456.608 93.0751 319.076C-22.5767 451.001 2.38757 513.788 79.0208 548.947C128.369 571.588 199.105 582.748 267.512 593.539C305.347 599.507 342.463 605.366 374.828 612.995ZM375.193 609.325C375.099 610.341 374.992 611.358 374.889 612.374C342.546 604.782 305.519 598.936 267.775 592.982C199.469 582.207 128.836 571.064 79.6444 548.495C0.792419 512.317 -23.0009 446.681 105.938 305.956C-11.6889 441.481 18.1835 505.118 98.5334 541.682C145.11 562.876 208.616 574.949 270.187 586.654C307.277 593.705 343.66 600.624 375.193 609.325ZM375.491 605.676C375.414 606.678 375.334 607.68 375.246 608.684C343.75 600.03 307.474 593.133 270.501 586.104C209.011 574.415 145.59 562.358 99.1524 541.226C16.4665 503.601 -12.4391 437.111 119.008 292.48C-1.33094 432.455 34.5114 497.042 119.227 535.249C162.488 554.76 218.461 567.374 272.883 579.637C309.205 587.822 344.824 595.854 375.491 605.676ZM375.758 602.042C375.691 603.034 375.622 604.025 375.545 605.017C344.924 595.254 309.431 587.252 273.247 579.098C218.889 566.849 162.982 554.251 119.842 534.794C33.1151 495.68 -2.15715 428.773 130.171 280.969L130.851 280.307C8.59357 424.686 52.004 489.934 141.597 529.952C180.781 547.454 228.781 560.119 275.602 572.473C311.133 581.847 345.978 591.045 375.758 602.042ZM375.989 598.434C375.932 599.409 375.864 600.385 375.8 601.362C346.078 590.438 311.388 581.28 276.019 571.948C229.25 559.608 181.305 546.958 142.208 529.495C51.588 489.018 8.46066 422.579 137.422 273.916C138.099 273.263 138.739 272.627 139.423 271.969C18.4815 419.346 71.794 484.424 166.547 526.303C200.544 541.33 239.854 553.362 278.349 565.145C313.071 575.772 347.124 586.198 375.989 598.434ZM376.159 594.842C376.117 595.799 376.076 596.757 376.025 597.716C347.227 585.573 313.35 575.203 278.816 564.632C240.356 552.861 201.083 540.84 167.154 525.844C71.6569 483.636 18.4085 417.762 144.468 267.169C145.479 266.205 146.508 265.233 147.519 264.269C-4.76955 456.782 143.485 509.094 281.119 557.627C315.008 569.576 348.24 581.301 376.159 594.842ZM376.301 591.263C376.27 592.204 376.234 593.146 376.194 594.088C348.352 580.661 315.319 569.008 281.641 557.133C143.287 508.347 -5.79404 455.718 152.201 259.829C153.316 258.781 154.479 257.71 155.624 256.647C15.3524 441.376 154.481 497.582 283.927 549.895C316.96 563.245 349.358 576.341 376.301 591.263ZM376.405 587.714C376.382 588.631 376.354 589.548 376.325 590.466C349.467 575.684 317.296 562.677 284.498 549.423C154.48 496.878 14.7567 440.358 159.663 252.894C161.153 251.512 162.604 250.15 164.112 248.759C35.4226 425.904 165.419 485.926 286.769 541.921C318.931 556.761 350.471 571.322 376.405 587.714ZM376.462 584.17C376.453 585.064 376.445 585.957 376.427 586.851C350.585 570.63 319.29 556.187 287.392 541.468C165.62 485.278 35.0838 425.043 167.353 245.801C169.051 244.246 170.788 242.672 172.516 241.102C55.4792 410.529 176.395 474.142 289.65 533.663C320.91 550.092 351.574 566.212 376.462 584.17ZM376.478 577.147C376.482 577.973 376.486 578.798 376.488 579.624C352.788 560.233 323.322 542.62 293.303 524.676C187.747 461.584 75.4042 394.357 183.722 231.009C185.711 229.23 187.706 227.449 189.716 225.66C95.1134 379.883 198.29 450.008 295.566 516.108C324.961 536.082 353.809 555.69 376.478 577.147ZM376.427 573.656C376.445 574.445 376.464 575.233 376.473 576.023C353.902 554.863 325.385 535.476 296.33 515.735C198.758 449.434 95.2578 379.071 192.156 223.49C194.284 221.61 196.483 219.694 198.671 217.785C114.773 364.534 209.196 437.576 298.612 506.686C327.037 528.655 354.941 550.23 376.427 573.656ZM376.355 570.19C376.375 570.917 376.385 571.645 376.401 572.374C355.01 549.309 327.463 528.016 299.417 506.34C209.752 437.038 115.015 363.788 200.807 215.915C203.113 213.9 205.406 211.892 207.755 209.856C134.214 349.192 220.077 424.831 301.73 496.723C329.161 520.873 356.109 544.603 376.355 570.19ZM376.23 566.726C376.254 567.396 376.281 568.064 376.303 568.733C356.141 543.583 329.592 520.197 302.569 496.405C220.693 424.317 134.585 348.452 209.741 208.147C212.131 206.082 214.559 203.997 216.994 201.91C153.5 333.837 230.946 411.715 304.933 486.105C331.337 512.654 357.293 538.762 376.23 566.726ZM376.082 563.283C376.112 563.869 376.144 564.455 376.169 565.041C357.3 537.605 331.765 511.925 305.798 485.817C231.609 411.224 153.927 333.122 218.799 200.356C221.331 198.19 223.912 195.999 226.506 193.802C172.617 318.376 241.777 398.116 308.227 474.686C333.583 503.904 358.534 532.664 376.082 563.283ZM375.907 559.858C375.935 560.327 375.954 560.797 375.98 561.266C358.473 531.304 333.992 503.086 309.122 474.427C242.49 397.65 173.131 317.683 228.17 192.396C230.818 190.153 233.454 187.916 236.143 185.653C191.457 302.845 252.581 383.927 311.629 462.271C335.912 494.489 359.842 526.244 375.907 559.858ZM375.688 556.417L375.753 557.389C359.691 524.603 336.289 493.542 312.546 462.04C253.333 383.478 192.055 302.149 237.706 184.34C240.437 182.05 243.257 179.717 246.059 177.391C210.129 287.131 263.358 368.983 315.161 448.595C338.339 484.216 361.226 519.389 375.688 556.417ZM375.452 553.027L375.474 553.292C360.95 517.333 338.664 483.073 316.099 448.392C264.15 368.555 210.768 286.464 247.488 176.203C250.35 173.825 253.223 171.443 256.139 169.039C228.468 271.192 274.097 353.051 318.841 433.287C340.9 472.847 362.741 512.014 375.452 553.027ZM330.927 370.678C348.6 423.964 366.401 477.64 373.396 532.808C363.87 486.044 345.789 440.656 327.69 395.237C296.283 316.411 264.85 237.49 278.097 151.142C281.27 148.577 284.413 146.025 287.656 143.425C281.117 220.491 305.889 295.194 330.927 370.678ZM377.082 563.174L377.035 562.259L377.19 562.588C377.228 562.915 377.271 563.242 377.307 563.57L377.082 563.174ZM377.231 566.605C377.212 566.142 377.2 565.677 377.18 565.214C377.305 565.435 377.434 565.655 377.557 565.876L377.705 567.304L377.231 566.605ZM377.354 570.044C377.337 569.46 377.312 568.877 377.292 568.293C377.5 568.604 377.7 568.918 377.905 569.23C377.96 569.8 378.004 570.372 378.056 570.942C377.822 570.642 377.591 570.343 377.354 570.044ZM377.428 573.496L377.389 571.513L378.197 572.555C378.255 573.212 378.316 573.868 378.368 574.527C378.055 574.183 377.743 573.839 377.428 573.496ZM377.481 576.97C377.475 576.241 377.466 575.512 377.454 574.783C377.791 575.154 378.131 575.523 378.463 575.896C378.514 576.613 378.567 577.331 378.615 578.049C378.24 577.688 377.86 577.33 377.481 576.97ZM377.495 580.458C377.495 579.672 377.489 578.887 377.486 578.101C377.895 578.493 378.296 578.887 378.701 579.28C378.748 580.042 378.786 580.806 378.828 581.568C378.384 581.198 377.942 580.827 377.495 580.458ZM377.469 583.955C377.478 583.134 377.495 582.312 377.5 581.491C377.96 581.875 378.429 582.258 378.886 582.644C378.93 583.455 378.975 584.265 379.009 585.078C378.499 584.702 377.985 584.329 377.469 583.955ZM377.418 587.482C377.437 586.616 377.447 585.752 377.456 584.887C377.991 585.276 378.515 585.668 379.044 586.059C379.076 586.897 379.106 587.734 379.132 588.572C378.563 588.207 377.991 587.844 377.418 587.482ZM377.314 591.007C377.342 590.118 377.369 589.229 377.392 588.341C377.985 588.718 378.579 589.093 379.164 589.473C379.187 590.34 379.2 591.21 379.218 592.079C378.586 591.721 377.954 591.362 377.314 591.007ZM377.177 594.565C377.218 593.647 377.257 592.73 377.29 591.813C377.942 592.177 378.587 592.544 379.232 592.91C379.249 593.801 379.265 594.692 379.271 595.585C378.578 595.243 377.876 594.905 377.177 594.565ZM377.009 598.135C377.061 597.195 377.101 596.257 377.141 595.318C377.854 595.666 378.564 596.016 379.27 596.368C379.271 597.28 379.273 598.192 379.266 599.105C378.515 598.781 377.765 598.457 377.009 598.135ZM376.783 601.721C376.846 600.765 376.909 599.809 376.966 598.854C377.735 599.182 378.503 599.51 379.266 599.841C379.256 600.771 379.237 601.703 379.221 602.635C378.412 602.329 377.601 602.024 376.783 601.721ZM376.526 605.332C376.602 604.355 376.673 603.378 376.738 602.403C377.569 602.711 378.387 603.023 379.206 603.336C379.189 604.281 379.17 605.226 379.14 606.174C378.274 605.891 377.397 605.612 376.526 605.332ZM376.228 608.957C376.315 607.968 376.394 606.979 376.471 605.991C377.356 606.276 378.238 606.561 379.114 606.85C379.08 607.811 379.044 608.772 379.001 609.736C378.079 609.475 377.157 609.215 376.228 608.957ZM375.873 612.604C375.975 611.603 376.081 610.601 376.175 609.601C377.112 609.862 378.046 610.123 378.976 610.386C378.929 611.36 378.87 612.335 378.813 613.31C377.838 613.073 376.859 612.837 375.873 612.604ZM375.485 616.276C375.6 615.258 375.707 614.24 375.811 613.224C376.808 613.46 377.791 613.701 378.778 613.943C378.72 614.928 378.66 615.914 378.59 616.901C377.56 616.691 376.523 616.484 375.485 616.276ZM341.853 725.471C361.038 688.31 371.35 652.204 375.412 616.886C376.459 617.095 377.503 617.307 378.541 617.521C375.998 652.176 366.613 687.937 347.32 725.305L348.28 725.471C367.567 688.114 376.967 652.367 379.531 617.727C380.559 617.939 381.587 618.151 382.604 618.368C381.593 652.334 373.148 687.731 353.749 725.305L354.71 725.471C374.1 687.914 382.561 652.534 383.603 618.586C384.613 618.804 385.617 619.023 386.617 619.244C387.164 652.506 379.682 687.526 360.176 725.305L361.136 725.471C380.632 687.71 388.14 652.708 387.629 619.465C388.624 619.687 389.605 619.916 390.59 620.142C392.728 652.684 386.216 687.318 366.602 725.305L367.564 725.471C387.162 687.51 393.706 652.897 391.618 620.377C392.581 620.601 393.536 620.827 394.489 621.055C398.253 652.864 392.754 687.103 373.031 725.305L373.991 725.471C393.697 687.303 399.232 653.09 395.532 621.305C396.473 621.532 397.416 621.758 398.347 621.989C403.766 653.05 399.297 686.885 379.46 725.305L380.42 725.471C400.233 687.096 404.754 653.292 399.414 622.26C400.329 622.49 401.244 622.719 402.148 622.953C409.255 653.25 405.836 686.666 385.887 725.305L386.848 725.471C406.77 686.885 410.248 653.502 403.236 623.235C404.127 623.468 405.004 623.706 405.886 623.943C414.716 653.458 412.377 686.445 392.313 725.305L393.274 725.471C413.303 686.677 415.72 653.727 407.013 624.245C407.874 624.479 408.722 624.719 409.572 624.958C420.159 653.674 418.923 686.22 398.743 725.305L399.703 725.471C419.84 686.469 421.171 653.968 410.736 625.287C411.557 625.521 412.379 625.755 413.19 625.993C425.571 653.895 425.469 685.989 405.17 725.305L406.131 725.471C426.373 686.263 426.608 654.221 414.421 626.36C415.195 626.591 415.976 626.819 416.741 627.054C430.958 654.124 432.018 685.753 411.597 725.305L412.557 725.471C432.91 686.052 432.004 654.485 418.03 627.458C418.775 627.69 419.516 627.925 420.252 628.162C436.327 654.377 438.563 685.525 418.026 725.305L418.984 725.471C439.441 685.849 437.397 654.768 421.615 628.596C422.307 628.822 422.982 629.055 423.666 629.285C441.652 654.63 445.117 685.284 424.454 725.305L425.414 725.471C445.97 685.655 442.759 655.082 425.151 629.784C425.784 630.001 426.411 630.221 427.036 630.442C446.965 654.897 451.668 685.044 430.88 725.305L431.841 725.471C452.492 685.471 448.099 655.424 428.653 631.019C429.203 631.218 429.763 631.413 430.308 631.615C452.236 655.162 458.224 684.791 437.307 725.305L438.268 725.471C459.001 685.312 453.443 655.809 432.162 632.321C432.617 632.493 433.074 632.664 433.523 632.838C457.479 655.455 464.782 684.544 443.737 725.305L444.697 725.471C465.499 685.18 458.77 656.246 435.673 633.693C436.02 633.832 436.364 633.973 436.708 634.113C462.707 655.776 471.331 684.309 450.164 725.305L451.124 725.471C471.969 685.096 464.092 656.761 439.231 635.164C439.406 635.239 439.578 635.315 439.751 635.391C467.881 656.083 477.893 684.046 456.591 725.305L457.551 725.471C478.238 685.402 469.587 657.813 443.543 637.242C473.227 656.901 484.262 684.158 463.019 725.305L463.978 725.471C484.229 686.246 475.365 659.576 449.028 640.075C479.019 658.657 490.256 685 469.447 725.305L470.407 725.471C490.206 687.12 481.2 661.347 454.71 642.858C484.863 660.422 496.233 685.874 475.874 725.305L476.835 725.471C499.296 681.967 483.468 655.373 446.449 637.62C444.675 636.602 442.827 635.614 440.94 634.643C439.217 633.585 437.453 632.542 435.62 631.528C433.97 630.44 432.256 629.376 430.503 628.329C428.873 627.171 427.2 626.03 425.47 624.912C423.931 623.733 422.343 622.572 420.711 621.428C419.193 620.165 417.624 618.921 416.012 617.693C414.591 616.41 413.135 615.14 411.63 613.888C410.245 612.518 408.805 611.168 407.335 609.828C406.013 608.396 404.653 606.975 403.251 605.57C402.041 604.125 400.796 602.691 399.514 601.269C398.353 599.727 397.144 598.2 395.912 596.682C394.815 595.055 393.682 593.439 392.516 591.834C391.51 590.153 390.479 588.48 389.409 586.818C388.503 585.095 387.574 583.38 386.61 581.674C385.79 579.875 384.948 578.083 384.072 576.298C383.346 574.427 382.596 572.562 381.82 570.704C381.188 568.755 380.537 566.81 379.857 564.871C379.343 562.909 378.803 560.953 378.247 559.001C377.818 556.889 377.363 554.782 376.891 552.679C376.575 550.531 376.237 548.386 375.881 546.243C370.289 486.295 351.027 428.204 331.911 370.569C306.79 294.836 281.932 219.889 288.732 142.567C342.369 99.5959 404.707 52.3515 476.745 0.359619L475.967 -0.000488281C404.321 51.7079 342.282 98.7194 288.836 141.514C288.919 140.593 289.012 139.671 289.106 138.749C340.736 96.8899 400.794 50.9222 470.32 0.359619L469.537 -0.000488281C400.409 50.2722 340.649 96.0032 289.21 137.683C289.308 136.76 289.416 135.836 289.522 134.912C339.133 94.1674 396.9 49.4816 463.893 0.358459L463.107 0.000915527C396.528 48.819 339.065 93.2578 289.652 133.811C289.762 132.893 289.861 131.975 289.98 131.056C337.558 91.4308 393.027 48.03 457.467 0.356995L456.68 0.00164795C392.673 47.3549 337.512 90.4985 290.137 129.921C290.261 128.994 290.394 128.067 290.527 127.14C336.047 88.6512 389.203 46.549 451.041 0.355835L450.25 0.00268555C388.852 45.8668 336.004 87.7073 290.688 125.984C290.827 125.054 290.976 124.122 291.123 123.19C334.568 85.8503 385.416 45.0461 444.616 0.354614L443.822 0.00396729C385.086 44.3443 334.546 84.873 291.318 121.985C291.464 121.083 291.602 120.182 291.757 119.279C333.14 83.0607 381.588 43.5793 438.19 0.353516L437.39 0.00500488C381.264 42.8679 333.153 82.0517 291.986 118.032C292.15 117.11 292.32 116.187 292.494 115.265C331.771 80.2055 377.85 42.0511 431.765 0.352783L430.962 0.00598145C377.524 41.3351 331.788 79.1825 292.726 113.995C292.905 113.071 293.099 112.146 293.288 111.221C330.445 77.3282 374.139 40.5083 425.34 0.350159L424.533 0.00817871C373.829 39.7759 330.495 76.2681 293.56 109.898C293.752 108.983 293.939 108.068 294.139 107.152C329.16 74.4296 370.454 38.9523 418.913 0.348694L418.102 0.00933838C370.162 38.1996 329.248 73.3247 294.456 105.764C294.661 104.851 294.868 103.938 295.083 103.025C327.946 71.4868 366.812 37.3707 412.488 0.34668L411.672 0.0119629C366.523 36.6086 328.047 70.358 295.415 101.598C295.636 100.683 295.877 99.7661 296.107 98.8509C326.794 68.5085 363.205 35.7676 406.061 0.344055L405.242 0.0141602C362.937 34.9829 326.935 67.3287 296.487 97.3488C296.715 96.4671 296.946 95.5852 297.184 94.7028C325.694 65.539 359.594 34.1816 399.64 0.34259L398.812 0.0161133C359.388 33.3313 325.886 64.2546 297.641 93.0405C297.874 92.197 298.098 91.354 298.34 90.5095C324.651 62.534 356.023 32.5715 393.214 0.338562L392.379 0.0194092C355.846 31.6804 324.899 61.1645 298.865 88.7194C299.108 87.8938 299.358 87.0673 299.609 86.241C323.695 59.4731 352.505 30.9274 386.789 0.336365L385.95 0.0219116C352.347 30.0049 323.982 58.0326 300.177 84.343C300.426 83.5424 300.696 82.7406 300.953 81.9397C322.795 56.386 349.026 29.2637 380.368 0.332031L379.517 0.0267334C348.918 28.2731 323.178 54.7987 301.639 79.8245C301.884 79.0809 302.127 78.3373 302.38 77.5928C321.954 53.2634 345.587 27.5776 373.943 0.327332L373.084 0.0306396C345.549 26.4923 322.469 51.4792 303.22 75.1851C303.456 74.5113 303.685 73.8375 303.927 73.1628C321.206 50.0779 342.21 25.8533 367.522 0.322632L366.651 0.0353394C342.257 24.6416 321.88 48.0293 304.956 70.3608C305.169 69.785 305.384 69.2088 305.602 68.6321C320.559 46.8164 338.892 24.0863 361.1 0.316528L360.218 0.0422974C339.075 22.6722 321.473 44.3518 306.916 65.2066C307.048 64.8697 307.187 64.5319 307.321 64.1951C319.951 43.6095 335.568 22.3502 354.679 0.307922L353.785 0.050415C336.25 20.2755 321.66 39.84 309.606 58.8323C319.804 39.7652 332.54 20.2787 348.259 0.298096L347.345 0.0604248C333.87 17.1905 322.587 33.9573 313.203 50.4084C320.76 33.866 330.207 17.1686 341.839 0.285767L340.911 0.072998C327.081 20.1436 316.324 39.9521 308.172 59.5471C306.471 62.7463 304.831 65.9363 303.27 69.1127C301.263 72.5032 299.364 75.8685 297.511 79.2237C295.277 82.6997 293.114 86.1567 291.051 89.5862C288.541 93.2288 286.106 96.8482 283.792 100.43C281.128 104.107 278.59 107.741 276.114 111.355C273.336 115.031 270.644 118.677 268.048 122.288C265.005 126.156 262.052 129.989 259.218 133.777C255.957 137.793 252.84 141.752 249.807 145.677C246.632 149.49 243.555 153.262 240.583 156.992C237.333 160.8 234.17 164.57 231.12 168.294C227.151 172.823 223.373 177.271 219.701 181.672C216.203 185.613 212.809 189.507 209.531 193.351C206.012 197.246 202.599 201.094 199.287 204.896C195.133 209.417 191.102 213.882 187.223 218.277C183.307 222.485 179.511 226.636 175.847 230.727C171.841 234.979 167.949 239.177 164.202 243.308C160.067 247.646 156.044 251.931 152.178 256.142C148.118 260.366 144.158 264.542 140.344 268.646C136.315 272.798 132.392 276.897 128.6 280.932C124.516 285.097 120.566 289.195 116.723 293.24C-37.3647 448.826 -20.0267 519.682 60.3831 556.857C112.095 580.764 189.842 590.711 264.852 600.307C303.418 605.241 341.25 610.086 374.429 616.689C370.384 652.021 360.083 688.138 340.893 725.305L341.853 725.471Z" fill="#1A57FF"/>
</svg>
