<?xml version="1.0" encoding="UTF-8"?>
<svg id="Layer_2" data-name="Layer 2" xmlns="http://www.w3.org/2000/svg" viewBox="0 0 628.15 241.59">
  <defs>
    <style>
      .cls-1 {
        fill: #fff;
        stroke-width: 0px;
      }
    </style>
  </defs>
  <g id="Layer_1-2" data-name="Layer 1">
    <g>
      <g>
        <circle class="cls-1" cx="94.04" cy="120.52" r="53.08"/>
        <path class="cls-1" d="m188.47,26.68C154.5-9.89,94.04-6.54,59.54,22.63s-40.77,73.89-23.78,110.42c-11.68-34.77-1.97-64.94,22.08-86.91,30.14-27.53,78.07-24.59,105.85,5.31l24.78-24.78Z"/>
        <path class="cls-1" d="m161.12,54.03c-27.22-29.29-72.3-31.02-102.63-4.96-13.85,11.9-23.18,30.07-25.35,47.95-2.17,17.88,2.5,35.78,11.06,49.4-4.66-12.9-7.44-23.51-4.2-39.43,2.34-11.5,10.94-23.49,18.19-29.69,20.44-17.49,55.52-18.21,75.92,3.75l27.02-27.02Z"/>
        <path class="cls-1" d="m0,214.92c33.97,36.57,94.43,33.22,128.93,4.05,33.3-28.16,40.77-73.89,23.78-110.42,11.68,34.77,1.97,64.94-22.08,86.91-30.14,27.53-78.07,24.59-105.85-5.31L0,214.92Z"/>
        <path class="cls-1" d="m27.35,187.57c27.22,29.29,72.3,31.02,102.63,4.96,13.85-11.9,23.18-30.07,25.35-47.95,2.17-17.88-2.5-35.78-11.06-49.4,4.66,12.9,7.44,23.51,4.2,39.43-2.34,11.5-10.94,23.49-18.19,29.69-20.44,17.49-55.52,18.21-75.92-3.75l-27.02,27.02Z"/>
      </g>
      <g>
        <path class="cls-1" d="m226.16,151.82c4.04,2.64,11.18,5.43,18,5.43,9.93,0,14.59-4.97,14.59-11.17,0-6.52-3.88-10.09-13.97-13.81-13.5-4.81-19.87-12.26-19.87-21.26,0-12.11,9.78-22.04,25.92-22.04,7.61,0,14.28,2.17,18.47,4.66l-3.42,9.93c-2.95-1.86-8.38-4.35-15.37-4.35-8.07,0-12.57,4.66-12.57,10.24,0,6.21,4.5,9,14.28,12.73,13.04,4.97,19.71,11.49,19.71,22.66,0,13.19-10.24,22.51-28.09,22.51-8.23,0-15.83-2.02-21.11-5.12l3.41-10.4Z"/>
        <path class="cls-1" d="m309.82,69.09v21.57h19.56v10.4h-19.56v40.51c0,9.31,2.64,14.59,10.24,14.59,3.57,0,6.21-.47,7.92-.93l.62,10.24c-2.64,1.09-6.83,1.86-12.11,1.86-6.36,0-11.49-2.02-14.75-5.74-3.88-4.04-5.28-10.71-5.28-19.56v-40.98h-11.64v-10.4h11.64v-18l13.35-3.57Z"/>
        <path class="cls-1" d="m390.21,165.79l-1.09-9.47h-.47c-4.19,5.9-12.26,11.17-22.97,11.17-15.21,0-22.97-10.71-22.97-21.57,0-18.16,16.14-28.09,45.17-27.94v-1.55c0-6.21-1.71-17.38-17.07-17.38-6.98,0-14.28,2.17-19.56,5.59l-3.1-9c6.21-4.04,15.21-6.67,24.68-6.67,22.97,0,28.56,15.68,28.56,30.73v28.09c0,6.52.31,12.88,1.24,18h-12.42Zm-2.02-38.34c-14.9-.31-31.82,2.33-31.82,16.92,0,8.85,5.9,13.04,12.88,13.04,9.78,0,15.99-6.21,18.16-12.57.47-1.4.78-2.95.78-4.35v-13.04Z"/>
        <path class="cls-1" d="m425.45,151.82c4.04,2.64,11.18,5.43,18,5.43,9.93,0,14.59-4.97,14.59-11.17,0-6.52-3.88-10.09-13.97-13.81-13.5-4.81-19.87-12.26-19.87-21.26,0-12.11,9.78-22.04,25.92-22.04,7.61,0,14.28,2.17,18.47,4.66l-3.42,9.93c-2.95-1.86-8.38-4.35-15.37-4.35-8.07,0-12.57,4.66-12.57,10.24,0,6.21,4.5,9,14.28,12.73,13.04,4.97,19.71,11.49,19.71,22.66,0,13.19-10.24,22.51-28.09,22.51-8.23,0-15.83-2.02-21.11-5.12l3.41-10.4Z"/>
        <path class="cls-1" d="m500.26,130.71c.31,18.47,12.11,26.08,25.77,26.08,9.78,0,15.68-1.71,20.8-3.88l2.33,9.78c-4.81,2.17-13.04,4.66-24.99,4.66-23.13,0-36.94-15.21-36.94-37.87s13.35-40.51,35.23-40.51c24.52,0,31.04,21.57,31.04,35.39,0,2.79-.31,4.97-.47,6.36h-52.77Zm40.04-9.78c.16-8.69-3.57-22.2-18.94-22.2-13.81,0-19.87,12.73-20.95,22.2h39.89Z"/>
        <path class="cls-1" d="m627.84,163c-3.57,1.86-11.49,4.35-21.57,4.35-22.66,0-37.41-15.37-37.41-38.34s15.83-39.89,40.35-39.89c8.07,0,15.21,2.02,18.94,3.88l-3.1,10.55c-3.26-1.86-8.38-3.57-15.83-3.57-17.23,0-26.54,12.73-26.54,28.4,0,17.38,11.18,28.09,26.08,28.09,7.76,0,12.88-2.02,16.76-3.73l2.33,10.24Z"/>
      </g>
    </g>
  </g>
</svg>