<svg width="637" height="242" viewBox="0 0 637 242" fill="none" xmlns="http://www.w3.org/2000/svg">
<g clip-path="url(#clip0_424_107)">
<path d="M94.54 173.598C123.855 173.598 147.62 149.833 147.62 120.518C147.62 91.2029 123.855 67.4382 94.54 67.4382C65.2247 67.4382 41.46 91.2029 41.46 120.518C41.46 149.833 65.2247 173.598 94.54 173.598Z" fill="white"/>
<path d="M188.97 26.6782C155 -9.8918 94.5398 -6.5418 60.0398 22.6282C25.5398 51.7982 19.2698 96.5182 36.2598 133.048C24.5798 98.2782 34.2898 68.1082 58.3398 46.1382C88.4798 18.6082 136.41 21.5482 164.19 51.4482L188.97 26.6682V26.6782Z" fill="white"/>
<path d="M161.62 54.0282C134.4 24.7382 89.3201 23.0082 58.9901 49.0682C45.1401 60.9682 35.8101 79.1382 33.6401 97.0182C31.4701 114.898 36.1401 132.798 44.7001 146.418C40.0401 133.518 37.2601 122.908 40.5001 106.988C42.8401 95.4882 51.4401 83.4982 58.6901 77.2982C79.1301 59.8082 114.21 59.0882 134.61 81.0482L161.63 54.0282H161.62Z" fill="white"/>
<path d="M0.5 214.918C34.47 251.488 94.93 248.138 129.43 218.968C162.73 190.808 170.2 145.078 153.21 108.548C164.89 143.318 155.18 173.488 131.13 195.458C100.99 222.988 53.06 220.048 25.28 190.148L0.5 214.918Z" fill="white"/>
<path d="M27.8498 187.568C55.0698 216.858 100.15 218.588 130.48 192.528C144.33 180.628 153.66 162.458 155.83 144.578C158 126.698 153.33 108.798 144.77 95.1782C149.43 108.078 152.21 118.688 148.97 134.608C146.63 146.108 138.03 158.098 130.78 164.298C110.34 181.788 75.2598 182.508 54.8598 160.548L27.8398 187.568H27.8498Z" fill="white"/>
<path d="M222.614 174.01C216.361 174.01 210.252 173.192 204.287 171.557C198.322 169.921 193.56 167.853 190 165.352L196.927 151.642C200.391 153.951 204.527 155.827 209.338 157.27C214.244 158.617 219.055 159.291 223.769 159.291C234.544 159.291 239.932 156.452 239.932 150.776C239.932 148.082 238.537 146.206 235.747 145.148C233.053 144.09 228.675 143.08 222.614 142.118C216.265 141.156 211.07 140.049 207.029 138.798C203.084 137.548 199.621 135.383 196.639 132.305C193.752 129.13 192.309 124.752 192.309 119.172C192.309 111.861 195.34 106.04 201.401 101.711C207.558 97.2853 215.832 95.0725 226.222 95.0725C231.513 95.0725 236.805 95.6979 242.096 96.9485C247.388 98.103 251.717 99.6904 255.084 101.711L248.157 115.42C241.615 111.572 234.255 109.648 226.078 109.648C220.786 109.648 216.746 110.466 213.956 112.101C211.262 113.64 209.915 115.709 209.915 118.306C209.915 121.193 211.358 123.261 214.244 124.512C217.227 125.666 221.797 126.773 227.954 127.831C234.111 128.793 239.162 129.899 243.106 131.15C247.051 132.401 250.418 134.517 253.208 137.5C256.094 140.482 257.537 144.715 257.537 150.199C257.537 157.415 254.411 163.187 248.157 167.516C241.904 171.846 233.389 174.01 222.614 174.01ZM316.365 168.815C314.249 170.547 311.651 171.846 308.572 172.711C305.59 173.577 302.415 174.01 299.048 174.01C290.582 174.01 284.04 171.797 279.422 167.372C274.804 162.946 272.495 156.501 272.495 148.034V78.9098H290.534V96.5156H311.17V110.947H290.534V147.601C290.534 151.353 291.448 154.24 293.276 156.26C295.2 158.184 297.845 159.146 301.213 159.146C305.253 159.146 308.621 158.088 311.314 155.971L316.365 168.815ZM404.069 95.9384V173H386.896V163.043C383.913 166.698 380.209 169.44 375.784 171.268C371.454 173.096 366.644 174.01 361.353 174.01C353.849 174.01 347.114 172.375 341.149 169.104C335.281 165.833 330.663 161.215 327.296 155.25C324.025 149.285 322.389 142.358 322.389 134.469C322.389 126.58 324.025 119.701 327.296 113.833C330.663 107.868 335.281 103.25 341.149 99.9791C347.114 96.708 353.849 95.0725 361.353 95.0725C366.356 95.0725 370.925 95.9384 375.062 97.6701C379.295 99.4018 382.951 101.951 386.03 105.319V95.9384H404.069ZM363.373 158.569C370.011 158.569 375.495 156.356 379.824 151.931C384.154 147.505 386.318 141.685 386.318 134.469C386.318 127.254 384.154 121.433 379.824 117.008C375.495 112.582 370.011 110.369 363.373 110.369C356.735 110.369 351.251 112.582 346.922 117.008C342.689 121.433 340.572 127.254 340.572 134.469C340.572 141.685 342.689 147.505 346.922 151.931C351.251 156.356 356.735 158.569 363.373 158.569ZM451.481 174.01C445.228 174.01 439.119 173.192 433.154 171.557C427.189 169.921 422.427 167.853 418.867 165.352L425.794 151.642C429.257 153.951 433.394 155.827 438.205 157.27C443.111 158.617 447.922 159.291 452.636 159.291C463.411 159.291 468.798 156.452 468.798 150.776C468.798 148.082 467.403 146.206 464.613 145.148C461.92 144.09 457.542 143.08 451.481 142.118C445.132 141.156 439.936 140.049 435.896 138.798C431.951 137.548 428.488 135.383 425.505 132.305C422.619 129.13 421.176 124.752 421.176 119.172C421.176 111.861 424.207 106.04 430.268 101.711C436.425 97.2853 444.699 95.0725 455.089 95.0725C460.38 95.0725 465.672 95.6979 470.963 96.9485C476.254 98.103 480.584 99.6904 483.951 101.711L477.024 115.42C470.482 111.572 463.122 109.648 454.945 109.648C449.653 109.648 445.613 110.466 442.823 112.101C440.129 113.64 438.782 115.709 438.782 118.306C438.782 121.193 440.225 123.261 443.111 124.512C446.094 125.666 450.663 126.773 456.821 127.831C462.978 128.793 468.029 129.899 471.973 131.15C475.918 132.401 479.285 134.517 482.075 137.5C484.961 140.482 486.404 144.715 486.404 150.199C486.404 157.415 483.278 163.187 477.024 167.516C470.771 171.846 462.256 174.01 451.481 174.01ZM538.594 158.713C546.964 158.713 553.939 155.923 559.519 150.343L569.043 161.455C565.676 165.592 561.347 168.719 556.055 170.835C550.764 172.952 544.799 174.01 538.161 174.01C529.695 174.01 522.239 172.327 515.793 168.959C509.347 165.592 504.344 160.926 500.785 154.961C497.321 148.9 495.589 142.07 495.589 134.469C495.589 126.965 497.273 120.231 500.64 114.266C504.104 108.205 508.818 103.491 514.783 100.123C520.844 96.7561 527.674 95.0725 535.275 95.0725C542.49 95.0725 549.032 96.6599 554.901 99.8347C560.866 102.913 565.58 107.387 569.043 113.256C572.507 119.028 574.238 125.811 574.238 133.603L515.216 145.148C517.044 149.574 519.978 152.941 524.019 155.25C528.059 157.559 532.918 158.713 538.594 158.713ZM535.275 109.504C528.636 109.504 523.249 111.668 519.112 115.997C515.071 120.327 513.051 126.147 513.051 133.459V133.603L556.633 125.233C555.382 120.519 552.832 116.719 548.984 113.833C545.232 110.947 540.662 109.504 535.275 109.504ZM626.925 174.01C618.94 174.01 611.773 172.327 605.423 168.959C599.073 165.592 594.119 160.926 590.559 154.961C586.999 148.9 585.22 142.07 585.22 134.469C585.22 126.869 586.999 120.086 590.559 114.121C594.119 108.157 599.025 103.491 605.279 100.123C611.628 96.7561 618.844 95.0725 626.925 95.0725C634.526 95.0725 641.164 96.6118 646.84 99.6904C652.612 102.769 656.942 107.195 659.828 112.967L645.974 121.048C643.761 117.489 640.971 114.843 637.604 113.111C634.333 111.283 630.725 110.369 626.781 110.369C620.046 110.369 614.466 112.582 610.041 117.008C605.615 121.337 603.403 127.157 603.403 134.469C603.403 141.781 605.567 147.65 609.897 152.075C614.322 156.404 619.95 158.569 626.781 158.569C630.725 158.569 634.333 157.703 637.604 155.971C640.971 154.143 643.761 151.45 645.974 147.89L659.828 155.971C656.846 161.744 652.468 166.217 646.696 169.392C641.019 172.471 634.429 174.01 626.925 174.01Z" fill="white"/>
</g>
<defs>
<clipPath id="clip0_424_107">
<rect width="636.42" height="241.59" fill="white" transform="translate(0.5)"/>
</clipPath>
</defs>
</svg>
