<svg width="631" height="240" viewBox="0 0 631 240" fill="none" xmlns="http://www.w3.org/2000/svg">
<g clip-path="url(#clip0_424_98)">
<path d="M178.59 30.7757C143.47 -3.76434 87.0099 -3.59434 52.1099 31.3057C17.2099 66.2057 17.0399 122.666 51.5799 157.786L178.59 30.7757Z" fill="#6A1DFF"/>
<path d="M154.7 54.6657C126.18 26.6257 80.34 26.7557 52.01 55.0957C23.68 83.4257 23.5401 129.276 51.5801 157.786L154.7 54.6657Z" fill="#5009D7"/>
<path d="M0 209.366C35.12 243.906 91.58 243.736 126.48 208.836C161.38 173.936 161.55 117.476 127.01 82.3557L0 209.366Z" fill="#3C94FF"/>
<path d="M23.8901 185.476C52.4101 213.516 98.2501 213.386 126.58 185.046C154.91 156.716 155.05 110.866 127.01 82.3557L23.8901 185.476Z" fill="#1A57FF"/>
<path d="M89.0002 173.086C118.426 173.086 142.28 149.231 142.28 119.806C142.28 90.3799 118.426 66.5257 89.0002 66.5257C59.5745 66.5257 35.7202 90.3799 35.7202 119.806C35.7202 149.231 59.5745 173.086 89.0002 173.086Z" fill="url(#paint0_linear_424_98)"/>
<path d="M212.234 173.01C205.981 173.01 199.872 172.192 193.907 170.557C187.942 168.921 183.18 166.853 179.62 164.352L186.547 150.642C190.011 152.951 194.148 154.827 198.958 156.27C203.864 157.617 208.675 158.291 213.389 158.291C224.164 158.291 229.552 155.452 229.552 149.776C229.552 147.082 228.157 145.206 225.367 144.148C222.673 143.09 218.295 142.08 212.234 141.118C205.885 140.156 200.69 139.049 196.649 137.798C192.704 136.548 189.241 134.383 186.259 131.305C183.372 128.13 181.929 123.752 181.929 118.172C181.929 110.861 184.96 105.04 191.021 100.711C197.178 96.2853 205.452 94.0725 215.842 94.0725C221.134 94.0725 226.425 94.6979 231.716 95.9485C237.008 97.103 241.337 98.6904 244.704 100.711L237.777 114.42C231.235 110.572 223.875 108.648 215.698 108.648C210.407 108.648 206.366 109.466 203.576 111.101C200.882 112.64 199.535 114.709 199.535 117.306C199.535 120.193 200.978 122.261 203.864 123.512C206.847 124.666 211.417 125.773 217.574 126.831C223.731 127.793 228.782 128.899 232.727 130.15C236.671 131.401 240.038 133.517 242.828 136.5C245.714 139.482 247.158 143.715 247.158 149.199C247.158 156.415 244.031 162.187 237.777 166.516C231.524 170.846 223.01 173.01 212.234 173.01ZM305.985 167.815C303.869 169.547 301.271 170.846 298.193 171.711C295.21 172.577 292.035 173.01 288.668 173.01C280.202 173.01 273.66 170.797 269.042 166.372C264.424 161.946 262.115 155.501 262.115 147.034V77.9098H280.154V95.5156H300.79V109.947H280.154V146.601C280.154 150.353 281.068 153.24 282.896 155.26C284.82 157.184 287.466 158.146 290.833 158.146C294.873 158.146 298.241 157.088 300.934 154.971L305.985 167.815ZM393.689 94.9384V172H376.516V162.043C373.533 165.698 369.829 168.44 365.404 170.268C361.075 172.096 356.264 173.01 350.973 173.01C343.469 173.01 336.734 171.375 330.769 168.104C324.901 164.833 320.283 160.215 316.916 154.25C313.645 148.285 312.009 141.358 312.009 133.469C312.009 125.58 313.645 118.701 316.916 112.833C320.283 106.868 324.901 102.25 330.769 98.9791C336.734 95.708 343.469 94.0725 350.973 94.0725C355.976 94.0725 360.545 94.9384 364.682 96.6701C368.915 98.4018 372.571 100.951 375.65 104.319V94.9384H393.689ZM352.993 157.569C359.632 157.569 365.115 155.356 369.445 150.931C373.774 146.505 375.939 140.685 375.939 133.469C375.939 126.254 373.774 120.433 369.445 116.008C365.115 111.582 359.632 109.369 352.993 109.369C346.355 109.369 340.871 111.582 336.542 116.008C332.309 120.433 330.192 126.254 330.192 133.469C330.192 140.685 332.309 146.505 336.542 150.931C340.871 155.356 346.355 157.569 352.993 157.569ZM441.101 173.01C434.848 173.01 428.739 172.192 422.774 170.557C416.809 168.921 412.047 166.853 408.487 164.352L415.414 150.642C418.878 152.951 423.014 154.827 427.825 156.27C432.731 157.617 437.542 158.291 442.256 158.291C453.031 158.291 458.419 155.452 458.419 149.776C458.419 147.082 457.024 145.206 454.234 144.148C451.54 143.09 447.162 142.08 441.101 141.118C434.752 140.156 429.557 139.049 425.516 137.798C421.571 136.548 418.108 134.383 415.126 131.305C412.239 128.13 410.796 123.752 410.796 118.172C410.796 110.861 413.827 105.04 419.888 100.711C426.045 96.2853 434.319 94.0725 444.709 94.0725C450 94.0725 455.292 94.6979 460.583 95.9485C465.875 97.103 470.204 98.6904 473.571 100.711L466.644 114.42C460.102 110.572 452.742 108.648 444.565 108.648C439.273 108.648 435.233 109.466 432.443 111.101C429.749 112.64 428.402 114.709 428.402 117.306C428.402 120.193 429.845 122.261 432.731 123.512C435.714 124.666 440.284 125.773 446.441 126.831C452.598 127.793 457.649 128.899 461.593 130.15C465.538 131.401 468.905 133.517 471.695 136.5C474.581 139.482 476.024 143.715 476.024 149.199C476.024 156.415 472.898 162.187 466.644 166.516C460.391 170.846 451.877 173.01 441.101 173.01ZM528.214 157.713C536.584 157.713 543.559 154.923 549.139 149.343L558.663 160.455C555.296 164.592 550.967 167.719 545.676 169.835C540.384 171.952 534.419 173.01 527.781 173.01C519.315 173.01 511.859 171.327 505.413 167.959C498.967 164.592 493.964 159.926 490.405 153.961C486.941 147.9 485.21 141.07 485.21 133.469C485.21 125.965 486.893 119.231 490.26 113.266C493.724 107.205 498.438 102.491 504.403 99.1234C510.464 95.7561 517.295 94.0725 524.895 94.0725C532.11 94.0725 538.652 95.6599 544.521 98.8347C550.486 101.913 555.2 106.387 558.663 112.256C562.127 118.028 563.859 124.811 563.859 132.603L504.836 144.148C506.664 148.574 509.598 151.941 513.639 154.25C517.679 156.559 522.538 157.713 528.214 157.713ZM524.895 108.504C518.257 108.504 512.869 110.668 508.732 114.997C504.691 119.327 502.671 125.147 502.671 132.459V132.603L546.253 124.233C545.002 119.519 542.453 115.719 538.604 112.833C534.852 109.947 530.282 108.504 524.895 108.504ZM616.545 173.01C608.56 173.01 601.393 171.327 595.043 167.959C588.693 164.592 583.739 159.926 580.179 153.961C576.62 147.9 574.84 141.07 574.84 133.469C574.84 125.869 576.62 119.086 580.179 113.121C583.739 107.157 588.645 102.491 594.899 99.1234C601.248 95.7561 608.464 94.0725 616.545 94.0725C624.146 94.0725 630.784 95.6118 636.46 98.6904C642.233 101.769 646.562 106.195 649.448 111.967L635.594 120.048C633.382 116.489 630.592 113.843 627.224 112.111C623.953 110.283 620.345 109.369 616.401 109.369C609.667 109.369 604.087 111.582 599.661 116.008C595.236 120.337 593.023 126.157 593.023 133.469C593.023 140.781 595.187 146.65 599.517 151.075C603.942 155.404 609.57 157.569 616.401 157.569C620.345 157.569 623.953 156.703 627.224 154.971C630.592 153.143 633.382 150.45 635.594 146.89L649.448 154.971C646.466 160.744 642.088 165.217 636.316 168.392C630.64 171.471 624.049 173.01 616.545 173.01Z" fill="white"/>
</g>
<defs>
<linearGradient id="paint0_linear_424_98" x1="50.3602" y1="81.1657" x2="130.66" y2="161.466" gradientUnits="userSpaceOnUse">
<stop stop-color="#4B08B4"/>
<stop offset="0.37" stop-color="#3817B8"/>
<stop offset="1" stop-color="#103BC3"/>
</linearGradient>
<clipPath id="clip0_424_98">
<rect width="631" height="240" fill="white"/>
</clipPath>
</defs>
</svg>
