<?xml version="1.0" encoding="UTF-8"?>
<svg id="Layer_2" data-name="Layer 2" xmlns="http://www.w3.org/2000/svg" xmlns:xlink="http://www.w3.org/1999/xlink" viewBox="0 0 623.26 230.14">
  <defs>
    <style>
      .cls-1 {
        fill: url(#linear-gradient);
      }

      .cls-1, .cls-2, .cls-3, .cls-4, .cls-5, .cls-6 {
        stroke-width: 0px;
      }

      .cls-2 {
        fill: #3c93ff;
      }

      .cls-3 {
        fill: #5009d6;
      }

      .cls-4 {
        fill: #1a57ff;
      }

      .cls-5 {
        fill: #fff;
      }

      .cls-6 {
        fill: #6a1dff;
      }
    </style>
    <linearGradient id="linear-gradient" x1="50.36" y1="76.16" x2="130.66" y2="156.46" gradientUnits="userSpaceOnUse">
      <stop offset="0" stop-color="#4b08b3"/>
      <stop offset=".37" stop-color="#3817b7"/>
      <stop offset="1" stop-color="#103bc2"/>
    </linearGradient>
  </defs>
  <g id="Layer_1-2" data-name="Layer 1">
    <g>
      <path class="cls-6" d="m178.59,25.77c-35.12-34.54-91.58-34.37-126.48.53-34.9,34.9-35.07,91.36-.53,126.48L178.59,25.77Z"/>
      <path class="cls-3" d="m154.7,49.66c-28.52-28.04-74.36-27.91-102.69.43-28.33,28.33-28.47,74.18-.43,102.69l103.12-103.12Z"/>
      <path class="cls-2" d="m0,204.36c35.12,34.54,91.58,34.37,126.48-.53,34.9-34.9,35.07-91.36.53-126.48L0,204.36Z"/>
      <path class="cls-4" d="m23.89,180.47c28.52,28.04,74.36,27.91,102.69-.43,28.33-28.33,28.47-74.18.43-102.69L23.89,180.47Z"/>
      <circle class="cls-1" cx="89" cy="114.8" r="53.28"/>
    </g>
    <g>
      <path class="cls-5" d="m221.26,146.69c4.04,2.64,11.18,5.43,18,5.43,9.93,0,14.59-4.97,14.59-11.17,0-6.52-3.88-10.09-13.97-13.81-13.5-4.81-19.87-12.26-19.87-21.26,0-12.11,9.78-22.04,25.92-22.04,7.61,0,14.28,2.17,18.47,4.66l-3.42,9.93c-2.95-1.86-8.38-4.35-15.37-4.35-8.07,0-12.57,4.66-12.57,10.24,0,6.21,4.5,9,14.28,12.73,13.04,4.97,19.71,11.49,19.71,22.66,0,13.19-10.24,22.51-28.09,22.51-8.23,0-15.83-2.02-21.11-5.12l3.41-10.4Z"/>
      <path class="cls-5" d="m304.92,63.96v21.57h19.56v10.4h-19.56v40.51c0,9.31,2.64,14.59,10.24,14.59,3.57,0,6.21-.47,7.92-.93l.62,10.24c-2.64,1.09-6.83,1.86-12.11,1.86-6.36,0-11.49-2.02-14.75-5.74-3.88-4.04-5.28-10.71-5.28-19.56v-40.98h-11.64v-10.4h11.64v-18l13.35-3.57Z"/>
      <path class="cls-5" d="m385.32,160.66l-1.09-9.47h-.47c-4.19,5.9-12.26,11.17-22.97,11.17-15.21,0-22.97-10.71-22.97-21.57,0-18.16,16.14-28.09,45.17-27.94v-1.55c0-6.21-1.71-17.38-17.07-17.38-6.98,0-14.28,2.17-19.56,5.59l-3.1-9c6.21-4.04,15.21-6.67,24.68-6.67,22.97,0,28.56,15.68,28.56,30.73v28.09c0,6.52.31,12.88,1.24,18h-12.42Zm-2.02-38.34c-14.9-.31-31.82,2.33-31.82,16.92,0,8.85,5.9,13.04,12.88,13.04,9.78,0,15.99-6.21,18.16-12.57.47-1.4.78-2.95.78-4.35v-13.04Z"/>
      <path class="cls-5" d="m420.55,146.69c4.04,2.64,11.18,5.43,18,5.43,9.93,0,14.59-4.97,14.59-11.17,0-6.52-3.88-10.09-13.97-13.81-13.5-4.81-19.87-12.26-19.87-21.26,0-12.11,9.78-22.04,25.92-22.04,7.61,0,14.28,2.17,18.47,4.66l-3.42,9.93c-2.95-1.86-8.38-4.35-15.37-4.35-8.07,0-12.57,4.66-12.57,10.24,0,6.21,4.5,9,14.28,12.73,13.04,4.97,19.71,11.49,19.71,22.66,0,13.19-10.24,22.51-28.09,22.51-8.23,0-15.83-2.02-21.11-5.12l3.41-10.4Z"/>
      <path class="cls-5" d="m495.36,125.58c.31,18.47,12.11,26.08,25.77,26.08,9.78,0,15.68-1.71,20.8-3.88l2.33,9.78c-4.81,2.17-13.04,4.66-24.99,4.66-23.13,0-36.94-15.21-36.94-37.87s13.35-40.51,35.23-40.51c24.52,0,31.04,21.57,31.04,35.39,0,2.79-.31,4.97-.47,6.36h-52.77Zm40.04-9.78c.16-8.69-3.57-22.2-18.94-22.2-13.81,0-19.87,12.73-20.95,22.2h39.89Z"/>
      <path class="cls-5" d="m622.95,157.87c-3.57,1.86-11.49,4.35-21.57,4.35-22.66,0-37.41-15.37-37.41-38.34s15.83-39.89,40.35-39.89c8.07,0,15.21,2.02,18.94,3.88l-3.1,10.55c-3.26-1.86-8.38-3.57-15.83-3.57-17.23,0-26.54,12.73-26.54,28.4,0,17.38,11.18,28.09,26.08,28.09,7.76,0,12.88-2.02,16.76-3.73l2.33,10.24Z"/>
    </g>
  </g>
</svg>